<svg width="239" height="239" viewBox="0 0 239 239" fill="none" xmlns="http://www.w3.org/2000/svg">
<path d="M239 119.545C239 185.514 185.525 239 119.555 239C53.5851 239 0.124023 185.527 0.124023 119.545C0.124023 97.4845 6.10428 76.8285 16.5263 59.1023C37.2632 23.797 75.6465 0.0906982 119.555 0.0906982C185.525 0.0906982 239 53.577 239 119.545Z" fill="url(#paint0_linear)"/>
<path d="M19.5905 54.1523C29.5041 58.6072 43.6186 54.1523 43.6186 54.1523C54.5222 51.0619 58.5491 51.8244 66.1215 48.7207C73.6938 45.6169 97.3472 41.7372 108.786 41.7372C120.225 41.7372 128.185 42.259 141.363 38.901C154.541 35.5431 167.933 34.3658 184.416 36.5063C200.898 38.6335 197.928 36.8408 207.654 38.901C210.104 41.5298 211.433 43.0551 213.581 45.8845C197.754 47.5033 190.423 48.3327 175.693 45.1353C160.963 41.9379 143.504 45.4162 126.62 49.4966C109.749 53.5636 93.842 54.7275 79.4867 54.5402C65.1582 54.3396 42.6553 60.5471 26.9488 64.4268C11.2422 68.3065 12.7406 66.0455 12.7406 66.0455C15.0798 61.4223 16.6281 58.8082 19.5905 54.1523Z" fill="url(#paint1_linear)"/>
<path d="M7.18636 78.9822C7.18636 78.9822 19.7757 73.8048 35.6695 66.9819C51.5634 60.159 67.2833 59.5837 76.7821 60.547C86.281 61.5102 125.855 59.771 132.638 57.4432C139.421 55.1154 148.545 52.0116 163.088 52.2123C177.63 52.413 182.099 55.1154 195.665 53.5635C209.244 52.0116 213.285 51.2758 217.432 51.0618C219.362 53.8663 220.406 55.4796 222.221 58.4466C222.221 58.4466 207.505 61.3229 197.805 59.9583C188.106 58.6071 158.071 61.9651 154.552 63.2494C149.134 65.2427 119.835 67.905 109.359 66.6876C98.8836 65.4702 81.6252 67.7043 76.0061 69.2562C70.3871 70.8081 65.5307 72.9353 43.0411 75.0356C20.5383 77.136 3.48047 91.2635 3.48047 91.2635C4.66959 86.5658 5.51705 83.8677 7.18636 78.9822Z" fill="url(#paint2_linear)"/>
<path d="M0.123348 118.422C0.123348 118.422 9.00677 114.542 15.0138 114.743C21.0208 114.943 28.0045 110.194 34.4128 108.107C40.8078 106.02 48.7681 109.9 58.8556 105.632C68.9431 101.364 79.0307 102.341 86.9776 99.4246C94.9245 96.5081 98.8043 93.8191 105.989 95.2639C113.16 96.7088 125.575 94.6351 132.559 91.304C139.542 87.9728 156.225 85.257 163.008 87.7855C169.791 90.3006 181.431 85.5647 187.063 83.1833C192.682 80.802 224.952 80.0528 233.741 84.3071C234.076 84.0408 239.367 105.401 238.892 113.779C238.852 116.321 210.141 117.659 201.031 117.766C191.92 117.873 186.675 119.412 178.34 122.168C170.006 124.937 150.218 124.83 145.951 123.278C141.683 121.726 136.251 121.338 125.776 125.138C115.3 128.937 109.092 128.897 102.109 127.425C95.1252 125.954 86.4023 126.957 82.5225 130.649C78.6427 134.329 63.5114 139.185 53.4373 135.492C43.3498 131.813 31.7103 137.232 30.9344 138.008C30.1584 138.783 30.1584 141.299 22.9875 140.295C15.8165 139.292 15.6158 140.723 13.8766 143.198C12.1374 145.673 3.88275 149.299 3.88275 149.299C3.47521 149.701 -0.770747 128.046 0.123348 118.422Z" fill="url(#paint3_linear)"/>
<path d="M214.971 146.115C208.857 146.061 185.11 152.563 174.635 153.299C164.159 154.021 154.072 151.8 140.506 153.299C126.927 154.797 120.719 152.964 100.945 148.309C81.1582 143.653 82.3221 147.145 70.8834 152.175C59.4446 157.205 58.468 165.754 38.4937 167.306C18.5193 168.858 12.5391 172.617 12.5391 172.617C14.5354 176.664 16.9949 180.926 19.4291 184.657L50.9358 179.881C58.8292 179.788 63.5251 177.687 72.7296 180.31C82.9108 183.199 119.542 175.774 124.492 171.48C129.455 167.199 148.654 165.433 158.246 165.874C167.852 166.316 186.167 163.868 192.281 160.724C198.395 157.593 229.313 152.563 234.076 153.62C235.144 149.996 235.637 147.96 236.444 144.309C233.073 145.192 221.086 146.155 214.971 146.115Z" fill="url(#paint4_linear)"/>
<path d="M95.3933 219.869C91.46 222.05 80.4092 224.819 74.8838 223.521C70.0684 222.39 62.7096 223.419 60.9404 223.653C69.6392 228.54 74.861 230.896 85.0534 233.941C87.5891 233.959 91.7299 231.409 99.1928 231.936C107.327 232.525 113.441 232.525 118.097 231.067C122.753 229.608 130.017 227.722 139.329 227.869C148.64 228.016 158.233 227.133 163.183 225.247C168.12 223.361 176.923 221.956 180.522 222.29C189.218 216.851 193.889 213.448 201.004 206.919C197.746 206.068 196.536 206.472 190.363 208.53L189.94 208.671C183.398 210.852 174.515 213.902 163.611 213.18C152.707 212.457 142.526 214.785 136.559 217.354C130.593 219.923 123.034 218.999 116.92 217.354C110.805 215.708 99.3266 217.688 95.3933 219.869Z" fill="url(#paint5_linear)"/>
<path d="M28.5391 196.898C28.5391 196.898 34.3989 195.226 38.0914 195.815C41.7706 196.39 50.3061 196.39 56.9018 193.875C63.4975 191.36 67.5646 194.062 70.2805 193.875C72.9963 193.688 91.8067 189.674 97.0512 189.059C102.282 188.443 108.102 185.233 116.062 187.413C124.009 189.607 132.933 188.176 136.813 186.664C140.692 185.152 151.944 181.768 160.279 182.102C168.614 182.437 171.329 180.296 180.066 178.945C188.789 177.594 220.643 169.741 227.6 170.557C223.985 177.948 221.642 182.011 216.71 189.059C216.71 189.059 215.934 190.116 211.332 189.661C206.716 189.206 195.478 191.199 192.133 194.985C188.789 198.771 176.721 199.052 169.737 197.888C162.754 196.725 157.523 196.002 151.556 199.159C145.589 202.33 124.504 203.119 110.243 202.825C95.9942 202.531 78.8294 207.775 66.7485 210.036C54.6676 212.297 41.61 210.036 41.61 210.036C36.1108 205.195 33.2028 202.33 28.5391 196.898Z" fill="url(#paint6_linear)"/>
<path d="M106.992 162.356C106.992 167.68 98.1619 173.7 87.8336 173.7C77.5052 173.7 68.0465 172.149 69.5985 162.356C70.4279 157.098 77.9735 152.71 88.2884 152.71C98.6034 152.71 106.992 157.031 106.992 162.356Z" fill="url(#paint7_linear)"/>
<path d="M76.2227 155.145C78.3097 154.021 80.8517 154.048 83.1394 154.409C85.4673 154.784 87.7149 155.586 89.7886 156.723C91.8355 157.901 93.8423 159.346 95.1267 161.66C95.4076 162.262 95.6886 162.904 95.702 163.653C95.7287 164.376 95.5414 165.165 95.0999 165.714C94.2437 166.837 93.0262 167.212 91.9024 167.413C92.7988 166.704 93.7086 165.954 93.9494 165.072C94.2571 164.255 93.8959 163.493 93.3473 162.757C92.1566 161.285 90.3104 160.108 88.4909 159.065C86.6312 158.048 84.6646 157.138 82.631 156.429C80.5975 155.733 78.5372 155.131 76.2227 155.145Z" fill="#F18754"/>
<path d="M100.395 157.994C101.961 159.025 103.178 160.938 103.031 163.065C102.911 165.179 101.693 166.998 100.382 168.456C99.0041 169.888 97.4789 171.145 95.6996 172.135C94.8166 172.617 93.8533 173.018 92.8633 173.299C92.3683 173.446 91.8465 173.553 91.3114 173.634C90.7495 173.7 90.2946 173.754 89.5588 173.687L89.6524 173.7C86.281 173.42 82.8828 173.139 79.498 172.082C78.6552 171.814 77.7989 171.506 76.9561 171.065C76.1266 170.623 75.257 170.088 74.5747 169.165C74.2402 168.71 73.9593 168.135 73.8389 167.533C73.7853 167.239 73.7586 166.918 73.772 166.637C73.7853 166.383 73.7987 166.115 73.8522 165.861C73.9994 164.831 74.4409 163.881 75.0028 163.078C75.5781 162.275 76.3005 161.607 77.0899 161.085C77.8926 160.576 78.6953 160.135 79.7255 159.907C81.6119 159.56 83.3912 159.76 85.1438 160.389C86.0001 160.724 86.883 161.232 87.4583 162.102C88.0604 162.971 88.0737 164.122 87.7527 164.978C87.4717 165.901 86.6957 166.637 85.8395 166.931C84.9967 167.239 84.1003 167.225 83.2842 167.092C84.1137 167.065 84.9431 166.851 85.6255 166.463C86.3078 166.075 86.7359 165.433 86.8563 164.724C87.0168 164.001 86.883 163.292 86.4549 162.824C86.0268 162.342 85.3713 161.994 84.6622 161.794C83.2307 161.392 81.5583 161.419 80.1803 161.78C78.9227 162.168 77.625 163.212 76.9159 164.349C76.5547 164.924 76.3139 165.553 76.2604 166.195C76.1801 166.931 76.2738 167.199 76.6082 167.64C77.3173 168.483 78.8157 169.152 80.2874 169.567C83.3243 170.409 86.6155 170.864 89.8799 171.159H89.9334H89.9735C90.1742 171.199 90.6692 171.199 91.0438 171.159C91.4452 171.118 91.8599 171.052 92.2613 170.958C93.0774 170.757 93.8935 170.476 94.6828 170.102C96.2615 169.366 97.7733 168.336 99.1111 167.159C100.449 166.008 101.586 164.59 101.974 162.931C102.322 161.259 101.68 159.372 100.395 157.994Z" fill="#F18754"/>
<defs>
<linearGradient id="paint0_linear" x1="123.168" y1="374.9" x2="117.237" y2="-45.042" gradientUnits="userSpaceOnUse">
<stop stop-color="white"/>
<stop offset="0.0219" stop-color="#FDF0EA"/>
<stop offset="0.0702" stop-color="#FAD5C3"/>
<stop offset="0.1217" stop-color="#F7BDA0"/>
<stop offset="0.1762" stop-color="#F5A984"/>
<stop offset="0.2348" stop-color="#F39A6F"/>
<stop offset="0.2994" stop-color="#F28F60"/>
<stop offset="0.3746" stop-color="#F18957"/>
<stop offset="0.4857" stop-color="#F18754"/>
<stop offset="0.6294" stop-color="#ED8453"/>
<stop offset="0.7326" stop-color="#E1794F"/>
<stop offset="0.8231" stop-color="#CD6849"/>
<stop offset="0.9063" stop-color="#B25241"/>
<stop offset="0.9839" stop-color="#923836"/>
<stop offset="1" stop-color="#8B3334"/>
</linearGradient>
<linearGradient id="paint1_linear" x1="119.409" y1="214.195" x2="106.072" y2="-122.567" gradientUnits="userSpaceOnUse">
<stop offset="0.0126" stop-color="white"/>
<stop offset="0.1775" stop-color="#FDFEFE"/>
<stop offset="0.247" stop-color="#F6FAFC"/>
<stop offset="0.2985" stop-color="#E9F4F8"/>
<stop offset="0.3411" stop-color="#D8EAF2"/>
<stop offset="0.3782" stop-color="#C1DEEA"/>
<stop offset="0.4116" stop-color="#A4CFE1"/>
<stop offset="0.442" stop-color="#83BED6"/>
<stop offset="0.4694" stop-color="#5DAAC9"/>
<stop offset="0.4876" stop-color="#3F9ABF"/>
<stop offset="0.6847" stop-color="#2F5A6B"/>
</linearGradient>
<linearGradient id="paint2_linear" x1="124.09" y1="261.109" x2="109.801" y2="24.375" gradientUnits="userSpaceOnUse">
<stop stop-color="white"/>
<stop offset="0.5447" stop-color="#FFD464"/>
<stop offset="1" stop-color="#F18754"/>
</linearGradient>
<linearGradient id="paint3_linear" x1="130.406" y1="239.914" x2="106.194" y2="-31.7494" gradientUnits="userSpaceOnUse">
<stop offset="0.1376" stop-color="white"/>
<stop offset="0.471" stop-color="#3F9ABF"/>
<stop offset="0.7246" stop-color="#2F5A6B"/>
</linearGradient>
<linearGradient id="paint4_linear" x1="143.522" y1="256.467" x2="120.659" y2="138.815" gradientUnits="userSpaceOnUse">
<stop stop-color="white"/>
<stop offset="0.4832" stop-color="#F18754"/>
<stop offset="1" stop-color="#8B3334"/>
</linearGradient>
<linearGradient id="paint5_linear" x1="131.308" y1="278.626" x2="130.832" y2="210.988" gradientUnits="userSpaceOnUse">
<stop stop-color="white"/>
<stop offset="0.4832" stop-color="#F18754"/>
<stop offset="1" stop-color="#8B3334"/>
</linearGradient>
<linearGradient id="paint6_linear" x1="143.319" y1="284.55" x2="126.172" y2="171.184" gradientUnits="userSpaceOnUse">
<stop stop-color="white"/>
<stop offset="0.6166" stop-color="#FFD464"/>
<stop offset="1" stop-color="#F18754"/>
</linearGradient>
<linearGradient id="paint7_linear" x1="69.4485" y1="253.517" x2="103.267" y2="90.3751" gradientUnits="userSpaceOnUse">
<stop offset="0.1754" stop-color="white"/>
<stop offset="0.221" stop-color="#FFF5DA"/>
<stop offset="0.2811" stop-color="#FFE9B0"/>
<stop offset="0.3398" stop-color="#FFE08F"/>
<stop offset="0.3956" stop-color="#FFD977"/>
<stop offset="0.4475" stop-color="#FFD569"/>
<stop offset="0.4917" stop-color="#FFD464"/>
<stop offset="0.6708" stop-color="#F18754"/>
</linearGradient>
</defs>
</svg>
