<?xml version="1.0" encoding="utf-8"?>
<!-- Generator: Adobe Illustrator 24.3.0, SVG Export Plug-In . SVG Version: 6.00 Build 0)  -->
<svg version="1.1" id="Calque_1" xmlns="http://www.w3.org/2000/svg" xmlns:xlink="http://www.w3.org/1999/xlink" x="0px" y="0px"
	 viewBox="0 0 283.46 283.46" style="enable-background:new 0 0 283.46 283.46;" xml:space="preserve">
<style type="text/css">
	.st0{fill:#8B3334;}
	.st1{fill:url(#SVGID_1_);}
	.st2{fill:url(#SVGID_2_);}
	.st3{fill:url(#SVGID_3_);}
	.st4{fill:url(#SVGID_4_);}
	.st5{fill:url(#SVGID_5_);}
	.st6{fill:url(#SVGID_6_);}
</style>
<g>
	<ellipse class="st0" cx="141.51" cy="141.68" rx="141.51" ry="141.64"/>
	<linearGradient id="SVGID_1_" gradientUnits="userSpaceOnUse" x1="64.2709" y1="301.2" x2="252.5798" y2="-131.9794">
		<stop  offset="0" style="stop-color:#FFFFFF"/>
		<stop  offset="0.0139" style="stop-color:#FEF5F2"/>
		<stop  offset="0.059" style="stop-color:#FBD6CD"/>
		<stop  offset="0.1096" style="stop-color:#F7B8AA"/>
		<stop  offset="0.1647" style="stop-color:#F39C8D"/>
		<stop  offset="0.2256" style="stop-color:#F08475"/>
		<stop  offset="0.2943" style="stop-color:#ED6E63"/>
		<stop  offset="0.3746" style="stop-color:#EB5E56"/>
		<stop  offset="0.474" style="stop-color:#EA514D"/>
		<stop  offset="0.6133" style="stop-color:#E94948"/>
		<stop  offset="1" style="stop-color:#E94747"/>
	</linearGradient>
	<path class="st1" d="M177.51,4.67c0,0-3.57,4.32-5.41,5.47s-3.1,7.36-0.46,13.57c2.64,6.21-4.25,15.98-7.24,18.97
		s-8.39,10.12-0.8,11.04c7.58,0.92,6.2-4.25,11.83-2.18c5.63,2.07,5.51,9.89,10.68,8.62c5.17-1.26,3.56-6.09,0.69-11.27
		s-0.23-12.3,1.72-14.6s2.53-6.9,2.76-11.15c0.23-4.25,5-9.81,8.01-10.77C199.3,12.35,186.53,6.72,177.51,4.67z"/>
	<linearGradient id="SVGID_2_" gradientUnits="userSpaceOnUse" x1="151.4865" y1="249.9622" x2="240.4842" y2="-2.5427">
		<stop  offset="0" style="stop-color:#FFFFFF"/>
		<stop  offset="0.0139" style="stop-color:#FEF5F2"/>
		<stop  offset="0.059" style="stop-color:#FBD6CD"/>
		<stop  offset="0.1096" style="stop-color:#F7B8AA"/>
		<stop  offset="0.1647" style="stop-color:#F39C8D"/>
		<stop  offset="0.2256" style="stop-color:#F08475"/>
		<stop  offset="0.2943" style="stop-color:#ED6E63"/>
		<stop  offset="0.3746" style="stop-color:#EB5E56"/>
		<stop  offset="0.474" style="stop-color:#EA514D"/>
		<stop  offset="0.6133" style="stop-color:#E94948"/>
		<stop  offset="1" style="stop-color:#E94747"/>
	</linearGradient>
	<path class="st2" d="M192.44,97.64c0,0,8.04-5,6.86-12.76s-1.52-15.87,4.34-15.01s6.55,16.9,6.55,16.9s0.52,9.49,4.31,12.42
		c3.79,2.93,7.58,10.35,2.76,14.83c-4.83,4.48-11.37,4.24-12.92,8.68s1.9,8.4,3.79,11.16c1.9,2.76,2.41,11.04-3.62,11.73
		c-6.03,0.69-14.3,3.1-21.89,0c-7.58-3.1-13.79-3.85-10.34-8.82c3.45-4.98,15.34-10.32,17.58-18.08
		C192.09,110.92,185.03,102.99,192.44,97.64z"/>
	<linearGradient id="SVGID_3_" gradientUnits="userSpaceOnUse" x1="-71.8225" y1="292.6658" x2="192.56" y2="-98.4868">
		<stop  offset="0" style="stop-color:#FFFFFF"/>
		<stop  offset="0.0139" style="stop-color:#FEF5F2"/>
		<stop  offset="0.059" style="stop-color:#FBD6CD"/>
		<stop  offset="0.1096" style="stop-color:#F7B8AA"/>
		<stop  offset="0.1647" style="stop-color:#F39C8D"/>
		<stop  offset="0.2256" style="stop-color:#F08475"/>
		<stop  offset="0.2943" style="stop-color:#ED6E63"/>
		<stop  offset="0.3746" style="stop-color:#EB5E56"/>
		<stop  offset="0.474" style="stop-color:#EA514D"/>
		<stop  offset="0.6133" style="stop-color:#E94948"/>
		<stop  offset="1" style="stop-color:#E94747"/>
	</linearGradient>
	<path class="st3" d="M87.06,10.91c-3.65,1.63-2.96,6.3-8.01,8.77c-3.01,1.47-9.42,7.13-10.45,12.8S61.9,45.46,61.9,45.46
		c-2.27,3.77-12.06,11.73-18.53,19.32C41.48,67,28.53,87.07,29.5,98.42c1.29,15.01-2.84,23.72-6.03,29.75
		c-3.19,6.04-3.71,19.38-3.71,19.38c4.22,17.08,11.03,17.02,11.03,17.02s6.38,1.03,2.93-6.9s-1.55-27.5,2.93-34.96
		c4.48-7.47,3.08-14.86,4.31-20.06c1.21-5.12,27.23-35.53,30.5-37.6c3.27-2.07,6.72-7.93,6.38-17.59
		c-0.34-9.66,15.85-20.01,23.61-22.42s18.27-7.93,21.89-12.07c3.62-4.14,23.36-11.83,40.37-11.17
		C163.71,1.77,124.88-5.97,87.06,10.91z"/>
	<linearGradient id="SVGID_4_" gradientUnits="userSpaceOnUse" x1="110.1397" y1="335.6268" x2="159.8123" y2="150.7346">
		<stop  offset="0" style="stop-color:#FFFFFF"/>
		<stop  offset="0.0139" style="stop-color:#FEF5F2"/>
		<stop  offset="0.059" style="stop-color:#FBD6CD"/>
		<stop  offset="0.1096" style="stop-color:#F7B8AA"/>
		<stop  offset="0.1647" style="stop-color:#F39C8D"/>
		<stop  offset="0.2256" style="stop-color:#F08475"/>
		<stop  offset="0.2943" style="stop-color:#ED6E63"/>
		<stop  offset="0.3746" style="stop-color:#EB5E56"/>
		<stop  offset="0.474" style="stop-color:#EA514D"/>
		<stop  offset="0.6133" style="stop-color:#E94948"/>
		<stop  offset="1" style="stop-color:#E94747"/>
	</linearGradient>
	<path class="st4" d="M275.47,95.93c-1.62-4.71-9.73-10.24-11.92-11.39c-2.18-1.15-8.85-7.01-10.68-11.38
		c-1.84-4.37-13.79-21.5-17.81-24.72c-4.02-3.22-11.37-10.92-16.43-17.82s-13.44-2.64-13.44-2.64s-4.94,2.99-3.22,8.39
		s-0.41,10.25,8.73,13.91c2.3,0.92,15.05,23.92,15.28,31.16c0.23,7.24,0.34,12.42,2.87,21.96c2.53,9.54,4.02,21.85-0.34,28.29
		c-4.37,6.44-11.83,16.33-7.35,21.39c4.48,5.06,18.7-1.38,23.14,10.58c4.44,11.96-12.57,34.61-15.44,39.1
		c-2.87,4.48-16.01,30.7-27.25,34.61s-18.71,11.15-30.42,6.9s15.62-23.92,19.07-24.61c3.45-0.69,22.52-9.2,26.31-17.59
		s2.87-14.03,8.27-18.05c5.4-4.02-4.02-21.96-16.43-19.66c0,0-15.11-0.11-40.12,25.59c-3.05,3.13-34.32,22.25-48.11,24.21
		c0,0-12.54,1.56-18.04,0.34c-17.23-3.79-12.54-15.67-10.4-17.71c11.19-10.69,6.15-15.87,4.43-20.58s6.09-12.19,9.88-9.43
		c3.79,2.76,7.7,0.8,7.7,0.8s2.93-1.41,6.49-2.07c11.63-2.14,25.19,8.13,29.54,11.76c1.13,0.94,2.61,1.38,4.06,1.11
		c3.06-0.56,7.76-2.34,9.87-6.09c2.98-5.29,6.67-4.02,11.61-6.78c4.94-2.76,7.12-7.01,0-10.35c-7.12-3.33-10.57,4.02-19.88,8.74
		c-9.31,4.71-17.81,1.26-20.45-3.79s0.69-3.79,0.57-8.97c-0.11-5.17-6.09-12.88-9.65-13.91c-3.56-1.03-4.71,3.45-7.35,5.29
		c-2.64,1.84-5.63-3.22-7.24-3.56c-1.61-0.34-4.14,3.56-7.58,3.56s-3.56-6.55-4.02-11.27s-5.97-8.16-7.99-11.5
		c-2.02-3.33-4.19-27.25-0.74-29.9s8.39-4.83,10.45-12.07c2.07-7.24,13.79-15.64,18.78-21.5s1.55-8.28-0.52-9.89
		s-0.8-3.45,0.52-6.09c1.32-2.64,2.81-5.29,0-7.24c-2.81-1.95-5.57,1.03-5.57,1.03s-4.77,4.43-8.21,5.12s-10.34,8.97-8.96,17.94
		c1.38,8.97-7.75,16.73-13.27,18.28s-7.07,10.52-8.1,13.28c-1.03,2.76-6.72,11.9-15.16,15.35s-31.02,12.42-15.16,45.54
		c4.14,3.45,6.24,4.31,8.89,4.31s6.79,0.52,7.3,13.8c0.52,13.28,5,20.01,7.07,22.08c2.07,2.07-1.9,24.15,24.99,30.7
		c26.88,6.55,38.43-2.76,40.84,0c2.41,2.76,2.93,3.79-3.79,5.52c-6.72,1.72-13.52,4.92-11.37,16.73c0.52,2.85,3.79,4.31,7.24,8.8
		c3.45,4.48,3.96,6.21,1.55,10.52c-2.41,4.31-19.77,9.65-21.78,16.99c0,0,45.51,15.25,98.26-10.71
		C258.54,241.94,301.96,173.12,275.47,95.93z"/>
	<path class="st0" d="M241.38,130.36c0,0,6.95-5.35,9.31-2.13c2.36,3.22,3.33,14.95-3.85,17.65
		C239.66,148.58,230.06,138.87,241.38,130.36z"/>
	<linearGradient id="SVGID_5_" gradientUnits="userSpaceOnUse" x1="18.7264" y1="290.7816" x2="98.4621" y2="158.234">
		<stop  offset="0" style="stop-color:#FFFFFF"/>
		<stop  offset="0.0139" style="stop-color:#FEF5F2"/>
		<stop  offset="0.059" style="stop-color:#FBD6CD"/>
		<stop  offset="0.1096" style="stop-color:#F7B8AA"/>
		<stop  offset="0.1647" style="stop-color:#F39C8D"/>
		<stop  offset="0.2256" style="stop-color:#F08475"/>
		<stop  offset="0.2943" style="stop-color:#ED6E63"/>
		<stop  offset="0.3746" style="stop-color:#EB5E56"/>
		<stop  offset="0.474" style="stop-color:#EA514D"/>
		<stop  offset="0.6133" style="stop-color:#E94948"/>
		<stop  offset="1" style="stop-color:#E94747"/>
	</linearGradient>
	<path class="st5" d="M72.33,234.94c-12.41-27.6-19.99-22.6-33.95-26.74s-8.62-17.59-18.27-24.18s-13.68,0-13.68,0
		c7.74,23.59,21.94,47.29,37.31,60.06c15.38,12.77,25.25,22.7,59.19,33.91C99.7,245.61,84.73,262.54,72.33,234.94z"/>
	<path class="st0" d="M193.75,273.36c0,0-4.13-2.2,10.12-13.01c14.25-10.81,34.47-32.89,35.38-51.06s19.99-41.4,24.59-45.08
		s4.83-20.47,5.51-23.23c0.69-2.76,4.01-14.04,12.69-17.95C282.04,123.04,301.84,230.12,193.75,273.36z"/>
	<linearGradient id="SVGID_6_" gradientUnits="userSpaceOnUse" x1="172.4531" y1="479.346" x2="309.6139" y2="25.6605">
		<stop  offset="0" style="stop-color:#FFFFFF"/>
		<stop  offset="0.1114" style="stop-color:#E4E7F3"/>
		<stop  offset="0.2898" style="stop-color:#C0C5E2"/>
		<stop  offset="0.4692" style="stop-color:#A4ABD5"/>
		<stop  offset="0.6478" style="stop-color:#8F99CB"/>
		<stop  offset="0.8251" style="stop-color:#838EC6"/>
		<stop  offset="1" style="stop-color:#7F8AC4"/>
	</linearGradient>
	<path class="st6" d="M240.88,252.92c-0.01-0.01-0.03-0.01-0.04-0.01c0.02,0.12,0.03,0.24,0.05,0.36L240.88,252.92z"/>
</g>
</svg>
