<?xml version="1.0" encoding="utf-8"?>
<!-- Generator: Adobe Illustrator 24.3.0, SVG Export Plug-In . SVG Version: 6.00 Build 0)  -->
<svg version="1.1" id="Calque_1" xmlns="http://www.w3.org/2000/svg" xmlns:xlink="http://www.w3.org/1999/xlink" x="0px" y="0px"
	 viewBox="0 0 283.46 283.46" style="enable-background:new 0 0 283.46 283.46;" xml:space="preserve">
<style type="text/css">
	.st0{fill:url(#SVGID_1_);}
	.st1{fill:url(#SVGID_2_);}
	.st2{fill:url(#SVGID_3_);}
	.st3{fill:url(#SVGID_4_);}
	.st4{fill:#78BD71;}
	.st5{fill:url(#SVGID_5_);}
</style>
<g>
	<linearGradient id="SVGID_1_" gradientUnits="userSpaceOnUse" x1="59.7634" y1="318.5138" x2="168.8466" y2="-8.0453">
		<stop  offset="0" style="stop-color:#FFFFFF"/>
		<stop  offset="6.288233e-03" style="stop-color:#F7F9FC"/>
		<stop  offset="0.0375" style="stop-color:#CFDFEC"/>
		<stop  offset="0.0699" style="stop-color:#AAC8DE"/>
		<stop  offset="0.1031" style="stop-color:#8AB7D2"/>
		<stop  offset="0.1374" style="stop-color:#6DAACA"/>
		<stop  offset="0.1731" style="stop-color:#55A1C4"/>
		<stop  offset="0.2113" style="stop-color:#459BC0"/>
		<stop  offset="0.2562" style="stop-color:#3F9ABF"/>
		<stop  offset="0.5947" style="stop-color:#387D99"/>
		<stop  offset="1" style="stop-color:#2F5A6B"/>
	</linearGradient>
	<path class="st0" d="M167.15,59.55c-3.41-0.43-2.71-7.26-4.69-5.99c-2.49,1.6-5.01,1.89-6.78,1.83c-1.34-0.04-2.55-0.79-3.3-1.91
		c-3.5-5.25-5.72,0.31-8.74,1.02c-3.28,0.78-6.9-1.21-12-4.83c-5.09-3.62-6.3-1.12-8.89,0c-11.39,4.94-17.35,14.24-17.35,14.24
		c-4.06,3.51-3.02-1.04-7.39,2.3c-4.37,3.34,3.97,4.43,5.35,2.59s5.81-3.97,10.87-3.28s14.5-4.37,18.41-1.73
		c3.91,2.65-1.27,4.6-0.52,6.16c0.75,1.55,17.66,6.44,21.58,7.65c3.91,1.21,2.88-4.55,6.21-5.7c3.34-1.15,14.1,1.38,17.26,2.07
		c3.16,0.69,11.26-0.21,11.68-2.01C191.03,62.6,167.15,59.55,167.15,59.55z"/>
	<linearGradient id="SVGID_2_" gradientUnits="userSpaceOnUse" x1="85.4546" y1="327.0956" x2="194.5378" y2="0.5365">
		<stop  offset="0" style="stop-color:#FFFFFF"/>
		<stop  offset="6.288233e-03" style="stop-color:#F7F9FC"/>
		<stop  offset="0.0375" style="stop-color:#CFDFEC"/>
		<stop  offset="0.0699" style="stop-color:#AAC8DE"/>
		<stop  offset="0.1031" style="stop-color:#8AB7D2"/>
		<stop  offset="0.1374" style="stop-color:#6DAACA"/>
		<stop  offset="0.1731" style="stop-color:#55A1C4"/>
		<stop  offset="0.2113" style="stop-color:#459BC0"/>
		<stop  offset="0.2562" style="stop-color:#3F9ABF"/>
		<stop  offset="0.5947" style="stop-color:#387D99"/>
		<stop  offset="1" style="stop-color:#2F5A6B"/>
	</linearGradient>
	<path class="st1" d="M168.5,43.59c-1.68,6.6,8.93,7.51,11.61,6.56c2.68-0.95,4.88-0.82,9.15-0.99c4.27-0.17-5.65-10.53-12.86-11.13
		S168.5,43.59,168.5,43.59z"/>
	<linearGradient id="SVGID_3_" gradientUnits="userSpaceOnUse" x1="113.0656" y1="336.3187" x2="222.1488" y2="9.7597">
		<stop  offset="0" style="stop-color:#FFFFFF"/>
		<stop  offset="6.288233e-03" style="stop-color:#F7F9FC"/>
		<stop  offset="0.0375" style="stop-color:#CFDFEC"/>
		<stop  offset="0.0699" style="stop-color:#AAC8DE"/>
		<stop  offset="0.1031" style="stop-color:#8AB7D2"/>
		<stop  offset="0.1374" style="stop-color:#6DAACA"/>
		<stop  offset="0.1731" style="stop-color:#55A1C4"/>
		<stop  offset="0.2113" style="stop-color:#459BC0"/>
		<stop  offset="0.2562" style="stop-color:#3F9ABF"/>
		<stop  offset="0.5947" style="stop-color:#387D99"/>
		<stop  offset="1" style="stop-color:#2F5A6B"/>
	</linearGradient>
	<path class="st2" d="M203.79,44.62c6.47,1.16,3.45,9.15,10.36,12.73c6.9,3.58,4.36-2.46,4.36-2.46c-2.47-5.18-3.45-5.52-5.61-9.23
		c-2-3.43-3.8-11.18-10.18-9.06C197.56,38.31,198.77,43.72,203.79,44.62z"/>
	<linearGradient id="SVGID_4_" gradientUnits="userSpaceOnUse" x1="80.3801" y1="325.4005" x2="189.4632" y2="-1.1586">
		<stop  offset="0" style="stop-color:#FFFFFF"/>
		<stop  offset="6.288233e-03" style="stop-color:#F7F9FC"/>
		<stop  offset="0.0375" style="stop-color:#CFDFEC"/>
		<stop  offset="0.0699" style="stop-color:#AAC8DE"/>
		<stop  offset="0.1031" style="stop-color:#8AB7D2"/>
		<stop  offset="0.1374" style="stop-color:#6DAACA"/>
		<stop  offset="0.1731" style="stop-color:#55A1C4"/>
		<stop  offset="0.2113" style="stop-color:#459BC0"/>
		<stop  offset="0.2562" style="stop-color:#3F9ABF"/>
		<stop  offset="0.5947" style="stop-color:#387D99"/>
		<stop  offset="1" style="stop-color:#2F5A6B"/>
	</linearGradient>
	<path class="st3" d="M274.66,92.46c4.34,12.51-2.42,21.18-3.72,14.89c-1.32-6.39-7.68-13.02-9.58-17.03s-7.29-10.44-9.15-8.89
		c-1.86,1.55-7.25,2.33-9.58,0.13c-2.33-2.2-1.73-2.16-9.02-2.2c-7.29-0.04-10.36-7.38-12.6-6.73c-2.24,0.65,2.98,7.16,8.63,10.87
		c5.65,3.71,6.99-1.6,8.54-1.55s3.41,3.62,4.36,4.06c5.74,2.61,5.61,10.53,2.68,16.22c-2.93,5.7-8.63,9.84-15.19,15.36
		c-6.56,5.52-7.42-6.13-9.92-9.15c-2.5-3.02-5.95-1.98-9.23-8.89c-3.28-6.9-4.66-8.63-8.8-10.7c-4.14-2.07-5.09-8.89-8.54-7.25
		c-3.45,1.64,10.7,19.33,13.12,22.87c2.42,3.54,12.94,13.46,18.55,20.37c4.83,5.95,11.88,0.33,13.75-1.34
		c0.41-0.37,0.96-0.54,1.5-0.46c1.12,0.17,2.65,1.12,1.73,5.19c-1.38,6.13-1.79,15.68-7.74,22.41
		c-5.95,6.73-14.33,16.57-15.88,24.68s9.34,21.07-3.19,32.36c-7.85,7.08-8.72,9.06-8.54,11.39c0.17,2.33-0.86,5.44-10.44,15.71
		c-9.58,10.27-19.92,13.45-31.09,12.38c-2.5-0.6-2.74-4.52-6.28-6.51s-3.88-8.68-6.15-11.53c-0.71-0.89-8-8.58-8.95-17.3
		c-0.95-8.72,7.77-4.49,3.62-20.28s-18.44-11.68-12.28-26.78c0.49-1.21,5.46-8.95-6.88-9.47c-5.02-0.21-5.92-4.79-9.46-6.09
		c-0.92-0.34-8.84-0.81-16.69,6.43c-7.85,7.25-39.7,0.66-39.7-33.4c0-3.34-2.38-21.54,16.54-35.56c3.68-2.73,5.97-5.78,6.44-8.86
		c0.23-1.5,7.94-5.18,8.75-7.71s1.15-4.49-3.68-6.1c-2.17-0.72-0.91-6,7.59-11.16c5.62-3.41,12.39-2.95,7.94-11.85
		c-0.81-1.61,2.07-2.61,4.14-3.03c2.07-0.42,12.08-6.22,13.81-8.44c1.73-2.22,4.83-3.72,1.96-7.97c0,0-2.53-4.32,3.45-6.73
		c5.62-2.27,45.76-8.14,58.53-7.11c-14.5-5-30.06-7.73-46.26-7.73C63.46,0,0,63.46,0,141.73s63.46,141.73,141.73,141.73
		s141.73-63.46,141.73-141.73C283.46,124.41,280.35,107.81,274.66,92.46z"/>
	<path class="st4" d="M129.46,14.84c-5.98,2.42-3.45,6.73-3.45,6.73c2.88,4.26-0.23,5.75-1.96,7.97
		c-1.73,2.22-11.74,8.02-13.81,8.44c-2.07,0.42-4.95,1.42-4.14,3.03c4.45,8.9-2.32,8.44-7.94,11.85
		c-8.51,5.16-9.76,10.44-7.59,11.16c4.83,1.61,4.49,3.57,3.68,6.1s-8.51,6.21-8.75,7.71c-0.47,3.08-2.76,6.13-6.44,8.86
		c-18.92,14.02-16.54,32.22-16.54,35.56c0,34.06,31.84,40.65,39.7,33.4c7.85-7.25,15.77-6.77,16.69-6.43
		c3.54,1.29,4.44,5.88,9.46,6.09c12.34,0.52,7.37,8.26,6.88,9.47c-6.16,15.09,8.14,10.98,12.28,26.78s-4.57,11.56-3.62,20.28
		c0.95,8.72,8.24,16.41,8.95,17.3c2.27,2.85,2.61,9.54,6.15,11.53s3.77,5.9,6.28,6.51c11.18,1.08,21.51-2.11,31.09-12.38
		c9.58-10.27,10.61-13.38,10.44-15.71c-0.17-2.33,0.69-4.32,8.54-11.39c12.53-11.29,1.64-24.25,3.19-32.36s9.92-17.95,15.88-24.68
		c5.95-6.73,6.36-16.28,7.74-22.41c0.92-4.07-0.6-5.02-1.73-5.19c-0.54-0.08-1.09,0.09-1.5,0.46c-1.87,1.67-8.92,7.28-13.75,1.34
		c-5.61-6.9-16.14-16.83-18.55-20.37c-2.42-3.54-16.57-21.23-13.12-22.87c3.45-1.64,4.4,5.18,8.54,7.25c4.14,2.07,5.52,3.8,8.8,10.7
		c3.28,6.9,6.73,5.87,9.23,8.89c2.5,3.02,3.37,14.67,9.92,9.15c6.56-5.52,12.25-9.67,15.19-15.36c2.93-5.7,3.06-13.62-2.68-16.22
		c-0.95-0.43-2.8-4.01-4.36-4.06s-2.89,5.26-8.54,1.55c-5.65-3.71-10.87-10.23-8.63-10.87c2.24-0.65,5.31,6.69,12.6,6.73
		c7.29,0.04,6.69,0,9.02,2.2c2.33,2.2,7.72,1.42,9.58-0.13c1.86-1.55,7.25,4.88,9.15,8.89s8.26,10.64,9.58,17.03
		c1.31,6.3,8.07-2.38,3.72-14.89c-14.7-39.64-46.62-70.91-86.67-84.73C175.22,6.7,135.08,12.57,129.46,14.84z M202.72,36.6
		c6.39-2.11,8.19,5.63,10.18,9.06c2.16,3.71,3.14,4.06,5.61,9.23c0,0,2.55,6.04-4.36,2.46c-6.9-3.58-3.88-11.56-10.36-12.73
		C198.77,43.72,197.56,38.31,202.72,36.6z M188.86,71.97c-0.42,1.81-8.51,2.7-11.68,2.01c-3.16-0.69-13.92-3.22-17.26-2.07
		c-3.34,1.15-2.3,6.9-6.21,5.7c-3.91-1.21-20.83-6.1-21.58-7.65c-0.75-1.55,4.43-3.51,0.52-6.16c-3.91-2.65-13.35,2.42-18.41,1.73
		s-9.49,1.44-10.87,3.28s-9.72,0.75-5.35-2.59c4.37-3.34,3.34,1.21,7.39-2.3c0,0,5.95-9.3,17.35-14.24c2.59-1.12,3.8-3.62,8.89,0
		c5.09,3.62,8.72,5.61,12,4.83c3.02-0.72,5.24-6.27,8.74-1.02c0.75,1.12,1.95,1.86,3.3,1.91c1.76,0.06,4.29-0.24,6.78-1.83
		c1.99-1.27,1.29,5.56,4.69,5.99C167.15,59.55,191.03,62.6,188.86,71.97z M189.25,49.15c-4.27,0.17-6.47,0.04-9.15,0.99
		c-2.68,0.95-13.29,0.04-11.61-6.56c0,0,0.69-6.17,7.9-5.57S193.53,48.98,189.25,49.15z"/>
</g>
<path class="st4" d="M0.22,134.89c0,0,6.81,7.04,8.19,18.66c1.38,11.62,2.19,13.92,9.32,19.22s8.86,7.59,9.67,12.54
	c0.81,4.95-1.15,11.74,2.88,15.76s5.94,23.71,1.84,30.44C32.12,231.51-3.12,193.49,0.22,134.89z"/>
<path class="st4" d="M222.42,217.13c0,0-2.42,8.75,3.22,6.16c5.64-2.59,13.87-11.51,13.69-14.33c-0.17-2.82-1.09-6.04-0.81-8.86
	c0.29-2.82-5.06-5.18-7.91-0.29S222.42,217.13,222.42,217.13z"/>
<linearGradient id="SVGID_5_" gradientUnits="userSpaceOnUse" x1="173.9698" y1="-41.3765" x2="53.8402" y2="81.8598">
	<stop  offset="0" style="stop-color:#FFFFFF"/>
	<stop  offset="0.6059" style="stop-color:#78BD71"/>
	<stop  offset="1" style="stop-color:#3A5B50"/>
</linearGradient>
<path class="st5" d="M102.19,26.16c0,0,2.29-0.26,3.54-4.75s8.39,3.57,8.85,5.07c0.52,1.71-1.21,6.63-7.12,6.32
	c-5.91-0.3-2.46-2.55-8.41-3.54C93.09,28.28,100.03,26.81,102.19,26.16z"/>
</svg>
