<?xml version="1.0" encoding="utf-8"?>
<!-- Generator: Adobe Illustrator 24.3.0, SVG Export Plug-In . SVG Version: 6.00 Build 0)  -->
<svg version="1.1" id="Calque_1" xmlns="http://www.w3.org/2000/svg" xmlns:xlink="http://www.w3.org/1999/xlink" x="0px" y="0px"
	 viewBox="0 0 283.46 283.46" style="enable-background:new 0 0 283.46 283.46;" xml:space="preserve">
<style type="text/css">
	.st0{fill:url(#SVGID_1_);}
	.st1{fill:url(#SVGID_2_);}
	.st2{fill:url(#SVGID_3_);}
	.st3{fill:url(#SVGID_4_);}
	.st4{fill:url(#SVGID_5_);}
	.st5{fill:url(#SVGID_6_);}
	.st6{fill:url(#SVGID_7_);}
	.st7{fill:url(#SVGID_8_);}
	.st8{fill:url(#SVGID_9_);}
	.st9{fill:url(#SVGID_10_);}
	.st10{fill:url(#SVGID_11_);}
	.st11{fill:url(#SVGID_12_);}
	.st12{fill:url(#SVGID_13_);}
	.st13{fill:url(#SVGID_14_);}
	.st14{fill:url(#SVGID_15_);}
	.st15{fill:url(#SVGID_16_);}
	.st16{fill:url(#SVGID_17_);}
	.st17{fill:url(#SVGID_18_);}
	.st18{fill:url(#SVGID_19_);}
	.st19{fill:url(#SVGID_20_);}
	.st20{fill:url(#SVGID_21_);}
	.st21{fill:none;}
	.st22{fill:url(#SVGID_22_);}
	.st23{fill:url(#SVGID_23_);}
	.st24{fill:url(#SVGID_24_);}
	.st25{fill:url(#SVGID_25_);}
	.st26{fill:url(#SVGID_26_);}
	.st27{fill:url(#SVGID_27_);}
	.st28{fill:url(#SVGID_28_);}
	.st29{fill:url(#SVGID_29_);}
	.st30{fill:url(#SVGID_30_);}
	.st31{fill:url(#SVGID_31_);}
	.st32{fill:url(#SVGID_32_);}
	.st33{fill:url(#SVGID_33_);}
	.st34{fill:url(#SVGID_34_);}
	.st35{fill:url(#SVGID_35_);}
	.st36{fill:url(#SVGID_36_);}
	.st37{fill:url(#SVGID_37_);}
	.st38{fill:url(#SVGID_38_);}
	.st39{fill:url(#SVGID_39_);}
	.st40{fill:url(#SVGID_40_);}
	.st41{fill:url(#SVGID_41_);}
	.st42{fill:url(#SVGID_42_);}
	.st43{fill:url(#SVGID_43_);}
	.st44{fill:url(#SVGID_44_);}
	.st45{fill:url(#SVGID_45_);}
	.st46{fill:url(#SVGID_46_);}
	.st47{fill:url(#SVGID_47_);}
	.st48{fill:url(#SVGID_48_);}
	.st49{fill:url(#SVGID_49_);}
	.st50{fill:url(#SVGID_50_);}
	.st51{fill:url(#SVGID_51_);}
	.st52{fill:url(#SVGID_52_);}
</style>
<linearGradient id="SVGID_1_" gradientUnits="userSpaceOnUse" x1="273.621" y1="291.8395" x2="291.1925" y2="9.0984">
	<stop  offset="0" style="stop-color:#FFFFFF"/>
	<stop  offset="0.1176" style="stop-color:#F6F2ED"/>
	<stop  offset="0.3395" style="stop-color:#E9DDD1"/>
	<stop  offset="0.5616" style="stop-color:#E0CEBC"/>
	<stop  offset="0.7823" style="stop-color:#DAC5B0"/>
	<stop  offset="1" style="stop-color:#D8C2AC"/>
</linearGradient>
<path class="st0" d="M283.46,141.73c0-1.4-0.02-2.8-0.06-4.19c-0.07-2.34-0.19-4.66-0.37-6.97l0.41,13.16
	C283.45,143.06,283.46,142.4,283.46,141.73z"/>
<linearGradient id="SVGID_2_" gradientUnits="userSpaceOnUse" x1="163.3166" y1="284.9932" x2="180.8889" y2="2.2387">
	<stop  offset="0" style="stop-color:#FFFFFF"/>
	<stop  offset="0.1176" style="stop-color:#F6F2ED"/>
	<stop  offset="0.3395" style="stop-color:#E9DDD1"/>
	<stop  offset="0.5616" style="stop-color:#E0CEBC"/>
	<stop  offset="0.7823" style="stop-color:#DAC5B0"/>
	<stop  offset="1" style="stop-color:#D8C2AC"/>
</linearGradient>
<path class="st1" d="M283.03,130.55c-0.54-6.91-1.58-13.68-3.08-20.28c-0.11,0.02-134.54,25.25-217.02,149.21l-7.79-5.61
	c9.16,7.08,19.21,13.06,29.96,17.75C151.41,132.81,282.99,130.55,283.03,130.55z"/>
<linearGradient id="SVGID_3_" gradientUnits="userSpaceOnUse" x1="132.7098" y1="230.5204" x2="143.7635" y2="52.6562">
	<stop  offset="0" style="stop-color:#FFFFFF"/>
	<stop  offset="0.1176" style="stop-color:#F6F2ED"/>
	<stop  offset="0.3395" style="stop-color:#E9DDD1"/>
	<stop  offset="0.5616" style="stop-color:#E0CEBC"/>
	<stop  offset="0.7823" style="stop-color:#DAC5B0"/>
	<stop  offset="1" style="stop-color:#D8C2AC"/>
</linearGradient>
<path class="st2" d="M138.11,230.83c-3.87-0.27-8.13-0.76-10.78-1.09C130.86,230.31,134.46,230.68,138.11,230.83z"/>
<linearGradient id="SVGID_4_" gradientUnits="userSpaceOnUse" x1="90.4211" y1="280.5154" x2="107.9903" y2="-2.1898">
	<stop  offset="0" style="stop-color:#FFFFFF"/>
	<stop  offset="0.1176" style="stop-color:#F6F2ED"/>
	<stop  offset="0.3395" style="stop-color:#E9DDD1"/>
	<stop  offset="0.5616" style="stop-color:#E0CEBC"/>
	<stop  offset="0.7823" style="stop-color:#DAC5B0"/>
	<stop  offset="1" style="stop-color:#D8C2AC"/>
</linearGradient>
<path class="st3" d="M96.77,276.2l-11.89-4.55C88.76,273.34,92.73,274.86,96.77,276.2z"/>
<linearGradient id="SVGID_5_" gradientUnits="userSpaceOnUse" x1="209.9841" y1="287.8905" x2="227.5564" y2="5.1361">
	<stop  offset="0" style="stop-color:#FFFFFF"/>
	<stop  offset="0.1176" style="stop-color:#F6F2ED"/>
	<stop  offset="0.3395" style="stop-color:#E9DDD1"/>
	<stop  offset="0.5616" style="stop-color:#E0CEBC"/>
	<stop  offset="0.7823" style="stop-color:#DAC5B0"/>
	<stop  offset="1" style="stop-color:#D8C2AC"/>
</linearGradient>
<path class="st4" d="M147.31,283.25c65.25-2.53,119.17-49.12,132.81-110.85c-1.86,7.02-5.13,17.29-5.13,17.29
	C155.43,206.75,147.6,280.07,147.31,283.25z"/>
<linearGradient id="SVGID_6_" gradientUnits="userSpaceOnUse" x1="185.5733" y1="286.3748" x2="203.1456" y2="3.62">
	<stop  offset="0" style="stop-color:#FFFFFF"/>
	<stop  offset="0.1176" style="stop-color:#F6F2ED"/>
	<stop  offset="0.3395" style="stop-color:#E9DDD1"/>
	<stop  offset="0.5616" style="stop-color:#E0CEBC"/>
	<stop  offset="0.7823" style="stop-color:#DAC5B0"/>
	<stop  offset="1" style="stop-color:#D8C2AC"/>
</linearGradient>
<path class="st5" d="M97.03,276.18c1.36,0.45,2.72,0.89,4.09,1.3c4.48,1.34,9.06,2.44,13.71,3.34
	c48.71-117.62,165.63-115.89,166.48-114.77c0.02,0.03,0.03,0.07,0.04,0.12c1.22-7.04,1.93-14.26,2.07-21.62
	C162.63,143.95,97.08,276.08,97.03,276.18z"/>
<linearGradient id="SVGID_7_" gradientUnits="userSpaceOnUse" x1="118.4255" y1="327.896" x2="104.9298" y2="-17.3697">
	<stop  offset="0" style="stop-color:#FFFFFF"/>
	<stop  offset="1" style="stop-color:#D8C2AC"/>
</linearGradient>
<path class="st6" d="M114.55,281.02c0,0,1.6,0.22,4.1,0.53c-1.35-0.22-2.69-0.45-4.03-0.71
	C114.6,280.91,114.58,280.96,114.55,281.02z"/>
<linearGradient id="SVGID_8_" gradientUnits="userSpaceOnUse" x1="142.7538" y1="258.3112" x2="134.255" y2="40.882">
	<stop  offset="0" style="stop-color:#FFFFFF"/>
	<stop  offset="1" style="stop-color:#D8C2AC"/>
</linearGradient>
<path class="st7" d="M138.11,230.83c2.87,0.2,5.52,0.28,7.12,0.08c0,0,0-0.03,0.01-0.08c-1.17,0.05-2.34,0.08-3.51,0.08
	C140.52,230.91,139.31,230.88,138.11,230.83z"/>
<linearGradient id="SVGID_9_" gradientUnits="userSpaceOnUse" x1="286.6885" y1="321.2842" x2="273.1944" y2="-23.9382">
	<stop  offset="0" style="stop-color:#FFFFFF"/>
	<stop  offset="1" style="stop-color:#D8C2AC"/>
</linearGradient>
<path class="st8" d="M281.36,166.16c-0.37,2.1-0.78,4.18-1.24,6.25C280.96,169.27,281.51,166.79,281.36,166.16z"/>
<linearGradient id="SVGID_10_" gradientUnits="userSpaceOnUse" x1="194.1594" y1="286.8642" x2="211.7318" y2="4.1095">
	<stop  offset="0" style="stop-color:#FFFFFF"/>
	<stop  offset="0.1176" style="stop-color:#F6F2ED"/>
	<stop  offset="0.3395" style="stop-color:#E9DDD1"/>
	<stop  offset="0.5616" style="stop-color:#E0CEBC"/>
	<stop  offset="0.7823" style="stop-color:#DAC5B0"/>
	<stop  offset="1" style="stop-color:#D8C2AC"/>
</linearGradient>
<path class="st9" d="M114.84,280.81c1.33,0.26,2.68,0.49,4.03,0.71c4.2,0.52,10.98,1.31,17.12,1.73c1.91,0.08,3.82,0.12,5.75,0.12
	c1.87,0,3.73-0.05,5.58-0.12c0.28-3.18,8.11-76.51,127.68-93.56c0,0,3.27-10.27,5.13-17.29c0.46-2.07,0.87-4.15,1.24-6.25
	c-0.01-0.05-0.02-0.1-0.04-0.12C280.47,164.91,163.55,163.19,114.84,280.81z"/>
<linearGradient id="SVGID_11_" gradientUnits="userSpaceOnUse" x1="202.0503" y1="324.5886" x2="188.5566" y2="-20.6255">
	<stop  offset="0" style="stop-color:#FFFFFF"/>
	<stop  offset="1" style="stop-color:#D8C2AC"/>
</linearGradient>
<path class="st10" d="M114.84,280.81c1.33,0.26,2.68,0.49,4.03,0.71c4.2,0.52,10.98,1.31,17.12,1.73c1.91,0.08,3.82,0.12,5.75,0.12
	c1.87,0,3.73-0.05,5.58-0.12c0.28-3.18,8.11-76.51,127.68-93.56c0,0,3.27-10.27,5.13-17.29c0.46-2.07,0.87-4.15,1.24-6.25
	c-0.01-0.05-0.02-0.1-0.04-0.12C280.47,164.91,163.55,163.19,114.84,280.81z"/>
<linearGradient id="SVGID_12_" gradientUnits="userSpaceOnUse" x1="286.317" y1="208.016" x2="270.2926" y2="-37.8319">
	<stop  offset="0" style="stop-color:#FFFFFF"/>
	<stop  offset="0.1176" style="stop-color:#F6F2ED"/>
	<stop  offset="0.3395" style="stop-color:#E9DDD1"/>
	<stop  offset="0.5616" style="stop-color:#E0CEBC"/>
	<stop  offset="0.7823" style="stop-color:#DAC5B0"/>
	<stop  offset="1" style="stop-color:#D8C2AC"/>
</linearGradient>
<path class="st11" d="M279.95,110.26l-0.01-0.05C279.94,110.23,279.94,110.25,279.95,110.26
	C279.95,110.26,279.95,110.26,279.95,110.26z"/>
<linearGradient id="SVGID_13_" gradientUnits="userSpaceOnUse" x1="53.1019" y1="223.2048" x2="37.0768" y2="-22.6535">
	<stop  offset="0" style="stop-color:#FFFFFF"/>
	<stop  offset="0.1176" style="stop-color:#F6F2ED"/>
	<stop  offset="0.3395" style="stop-color:#E9DDD1"/>
	<stop  offset="0.5616" style="stop-color:#E0CEBC"/>
	<stop  offset="0.7823" style="stop-color:#DAC5B0"/>
	<stop  offset="1" style="stop-color:#D8C2AC"/>
</linearGradient>
<path class="st12" d="M55.06,253.8l0.08,0.06C55.11,253.84,55.09,253.82,55.06,253.8C55.06,253.8,55.06,253.8,55.06,253.8z"/>
<linearGradient id="SVGID_14_" gradientUnits="userSpaceOnUse" x1="100.0891" y1="297.7159" x2="68.545" y2="91.5256">
	<stop  offset="0" style="stop-color:#FFFFFF"/>
	<stop  offset="0.4231" style="stop-color:#EBE0D5"/>
	<stop  offset="0.7918" style="stop-color:#DDCAB7"/>
	<stop  offset="1" style="stop-color:#D8C2AC"/>
</linearGradient>
<path class="st13" d="M96.82,276.22L96.82,276.22c-0.02-0.01-0.03-0.01-0.05-0.02L96.82,276.22z"/>
<linearGradient id="SVGID_15_" gradientUnits="userSpaceOnUse" x1="302.2" y1="266.8026" x2="250.3319" y2="-72.2379">
	<stop  offset="0" style="stop-color:#FFFFFF"/>
	<stop  offset="0.4231" style="stop-color:#EBE0D5"/>
	<stop  offset="0.7918" style="stop-color:#DDCAB7"/>
	<stop  offset="1" style="stop-color:#D8C2AC"/>
</linearGradient>
<path class="st14" d="M283.46,144.54l-0.03-0.81c0,0.27-0.01,0.54-0.01,0.81C283.44,144.54,283.45,144.54,283.46,144.54z"/>
<linearGradient id="SVGID_16_" gradientUnits="userSpaceOnUse" x1="303.834" y1="266.553" x2="271.6904" y2="56.4434">
	<stop  offset="0" style="stop-color:#FFFFFF"/>
	<stop  offset="0.4231" style="stop-color:#EBE0D5"/>
	<stop  offset="0.7918" style="stop-color:#DDCAB7"/>
	<stop  offset="1" style="stop-color:#D8C2AC"/>
</linearGradient>
<path class="st15" d="M283.03,130.55L283.03,130.55c0,0.01,0,0.02,0,0.03L283.03,130.55z"/>
<linearGradient id="SVGID_17_" gradientUnits="userSpaceOnUse" x1="86.2603" y1="280.6382" x2="83.5109" y2="262.666">
	<stop  offset="0" style="stop-color:#FFFFFF"/>
	<stop  offset="0.4231" style="stop-color:#EBE0D5"/>
	<stop  offset="0.7918" style="stop-color:#DDCAB7"/>
	<stop  offset="1" style="stop-color:#D8C2AC"/>
</linearGradient>
<polygon class="st16" points="84.88,271.65 84.89,271.65 84.88,271.65 "/>
<linearGradient id="SVGID_18_" gradientUnits="userSpaceOnUse" x1="179.4195" y1="285.9933" x2="196.9919" y2="3.2381">
	<stop  offset="0" style="stop-color:#FFFFFF"/>
	<stop  offset="0.1176" style="stop-color:#F6F2ED"/>
	<stop  offset="0.3395" style="stop-color:#E9DDD1"/>
	<stop  offset="0.5616" style="stop-color:#E0CEBC"/>
	<stop  offset="0.7823" style="stop-color:#DAC5B0"/>
	<stop  offset="1" style="stop-color:#D8C2AC"/>
</linearGradient>
<path class="st17" d="M283.43,144.54c0.01-0.27,0.01-0.54,0.01-0.81l-0.41-13.16c0-0.01,0-0.02,0-0.03
	c-0.04,0-131.61,2.27-197.93,141.06c0,0,0,0,0,0l11.89,4.55c0.02,0.01,0.03,0.01,0.05,0.02
	C97.08,276.08,162.63,143.95,283.43,144.54z"/>
<linearGradient id="SVGID_19_" gradientUnits="userSpaceOnUse" x1="196.5845" y1="282.9377" x2="144.7241" y2="-56.0525">
	<stop  offset="0" style="stop-color:#FFFFFF"/>
	<stop  offset="0.4231" style="stop-color:#EBE0D5"/>
	<stop  offset="0.7918" style="stop-color:#DDCAB7"/>
	<stop  offset="1" style="stop-color:#D8C2AC"/>
</linearGradient>
<path class="st18" d="M283.43,144.54c0.01-0.27,0.01-0.54,0.01-0.81l-0.41-13.16c0-0.01,0-0.02,0-0.03
	c-0.04,0-131.61,2.27-197.93,141.06c0,0,0,0,0,0l11.89,4.55c0.02,0.01,0.03,0.01,0.05,0.02
	C97.08,276.08,162.63,143.95,283.43,144.54z"/>
<linearGradient id="SVGID_20_" gradientUnits="userSpaceOnUse" x1="228.5322" y1="289.0352" x2="246.1032" y2="6.3016">
	<stop  offset="0" style="stop-color:#FFFFFF"/>
	<stop  offset="0.1176" style="stop-color:#F6F2ED"/>
	<stop  offset="0.3395" style="stop-color:#E9DDD1"/>
	<stop  offset="0.5616" style="stop-color:#E0CEBC"/>
	<stop  offset="0.7823" style="stop-color:#DAC5B0"/>
	<stop  offset="1" style="stop-color:#D8C2AC"/>
</linearGradient>
<path class="st19" d="M253.16,54.22c-5.64-7.16-11.95-13.76-18.84-19.71C241.21,40.47,247.52,47.07,253.16,54.22z"/>
<linearGradient id="SVGID_21_" gradientUnits="userSpaceOnUse" x1="203.846" y1="287.5011" x2="221.4171" y2="4.7674">
	<stop  offset="0" style="stop-color:#FFFFFF"/>
	<stop  offset="0.1176" style="stop-color:#F6F2ED"/>
	<stop  offset="0.3395" style="stop-color:#E9DDD1"/>
	<stop  offset="0.5616" style="stop-color:#E0CEBC"/>
	<stop  offset="0.7823" style="stop-color:#DAC5B0"/>
	<stop  offset="1" style="stop-color:#D8C2AC"/>
</linearGradient>
<path class="st20" d="M215.58,20.84c3.18,1.95,6.28,4.03,9.29,6.22C221.86,24.87,218.77,22.79,215.58,20.84z"/>
<path class="st21" d="M188.98,84.08c0.72,0.52,1.49,0.97,2.28,1.37c-0.39-0.2-0.77-0.41-1.15-0.63
	C189.73,84.58,189.35,84.34,188.98,84.08z"/>
<linearGradient id="SVGID_22_" gradientUnits="userSpaceOnUse" x1="135.8001" y1="283.2843" x2="153.3718" y2="0.5391">
	<stop  offset="0" style="stop-color:#FFFFFF"/>
	<stop  offset="0.1176" style="stop-color:#F6F2ED"/>
	<stop  offset="0.3395" style="stop-color:#E9DDD1"/>
	<stop  offset="0.5616" style="stop-color:#E0CEBC"/>
	<stop  offset="0.7823" style="stop-color:#DAC5B0"/>
	<stop  offset="1" style="stop-color:#D8C2AC"/>
</linearGradient>
<path class="st22" d="M274.27,100.23c-3.52-0.13-7-1.29-9.83-3.4c-2.22-1.65-4.01-3.8-6.19-5.51c-7.07-5.54-17.02-5.55-25.8-3.68
	c-8.78,1.87-17.27,5.35-26.22,5.95c-5.03,0.34-11.12-4.41-14.66-8c-0.08,0.23-0.09,0.46-0.08,0.22c0.01-0.15-0.09-0.27-0.21-0.37
	c0,0,0,0,0,0c0,0,0,0-0.01,0c-0.79-0.4-1.55-0.85-2.28-1.37c-3.19-2.3-5.53-6.12-5.13-10.03c0.42-4.04,3.48-7.2,5.92-10.45
	c2.44-3.25,4.41-7.69,2.44-11.24c-1.96-3.54-6.71-4.23-10.76-4.26c-5.02-0.03-10.09,0.32-15.04-0.53c-4.1-0.71-8.36-2.51-10.42-6.13
	c-2.15-3.79-1.35-8.59,0.35-12.6s4.23-7.66,5.56-11.81c0.38-1.18,0.64-2.55,0-3.62c-0.57-0.96-1.71-1.41-2.79-1.71
	c-4.85-1.35-10.25-1.06-14.56-3.65c-2.86-1.72-4.86-4.69-5.6-7.93c-18.67,0.36-36.46,4.32-52.7,11.22c4.17-1,8.9-0.78,13.14-0.82
	c2.53-0.02,5.26,0.58,7.27,2.11c2.46,1.87,2.99,5.53,1.98,8.44c-1.02,2.92-3.26,5.23-5.61,7.25c-3.26,2.8-6.85,5.25-9.67,8.49
	c-2.82,3.24-4.84,7.52-4.14,11.75c0.34,2.04,1.29,4.08,0.8,6.09c-0.48,1.97-2.22,3.35-3.9,4.48c-9.3,6.26-20.28,10.05-28.59,17.57
	c-0.76,0.69-1.53,1.44-1.89,2.41c-0.95,2.52,1.36,5.31,3.98,5.91c2.63,0.6,5.33-0.31,7.88-1.19c13.9-4.82,28-9.04,42.25-12.66
	c2.24-0.57,4.87-1.04,6.65,0.43c0.93,0.77,1.44,1.95,1.68,3.13c1.45,7.03-4.97,13-10.81,17.18c-5.84,4.18-12.48,9.66-11.72,16.79
	c0.33,3.05,2.05,5.87,2.08,8.94c0.04,3.78-2.49,7.14-5.4,9.56c-7.09,5.89-16.53,7.9-24.86,11.83c-9.93,4.69-18.26,12.1-26.44,19.42
	c-4.55,4.07-9.1,8.14-13.66,12.21c-1.86,1.66-3.84,3.56-4.11,6.03c-0.17,1.55,0.38,3.09,0.39,4.64c0.04,4.45-4.01,7.64-7,10.93
	c-2.98,3.27-3.24,8.75-1.97,12.17c9.59,19.37,23.48,36.24,40.43,49.35C55.13,253.67,110.71,144.81,274.27,100.23z"/>
<linearGradient id="SVGID_23_" gradientUnits="userSpaceOnUse" x1="267" y1="291.4263" x2="284.5713" y2="8.6881">
	<stop  offset="0" style="stop-color:#FFFFFF"/>
	<stop  offset="0.1176" style="stop-color:#F6F2ED"/>
	<stop  offset="0.3395" style="stop-color:#E9DDD1"/>
	<stop  offset="0.5616" style="stop-color:#E0CEBC"/>
	<stop  offset="0.7823" style="stop-color:#DAC5B0"/>
	<stop  offset="1" style="stop-color:#D8C2AC"/>
</linearGradient>
<path class="st23" d="M279.94,110.21c-0.78-3.42-1.69-6.79-2.71-10.11c0,0-0.01,0-0.01,0L279.94,110.21z"/>
<linearGradient id="SVGID_24_" gradientUnits="userSpaceOnUse" x1="161.1135" y1="284.8578" x2="178.6859" y2="2.102">
	<stop  offset="0" style="stop-color:#FFFFFF"/>
	<stop  offset="0.1176" style="stop-color:#F6F2ED"/>
	<stop  offset="0.3395" style="stop-color:#E9DDD1"/>
	<stop  offset="0.5616" style="stop-color:#E0CEBC"/>
	<stop  offset="0.7823" style="stop-color:#DAC5B0"/>
	<stop  offset="1" style="stop-color:#D8C2AC"/>
</linearGradient>
<path class="st24" d="M274.27,100.23C110.71,144.81,55.13,253.67,55.06,253.8c0.03,0.02,0.05,0.04,0.08,0.06l7.79,5.61
	c82.48-123.96,216.91-149.19,217.02-149.21c0-0.02-0.01-0.03-0.01-0.05l-2.72-10.11C276.24,100.23,275.25,100.26,274.27,100.23z"/>
<linearGradient id="SVGID_25_" gradientUnits="userSpaceOnUse" x1="169.6924" y1="215.6097" x2="153.6692" y2="-30.2205">
	<stop  offset="0" style="stop-color:#FFFFFF"/>
	<stop  offset="0.1176" style="stop-color:#F6F2ED"/>
	<stop  offset="0.3395" style="stop-color:#E9DDD1"/>
	<stop  offset="0.5616" style="stop-color:#E0CEBC"/>
	<stop  offset="0.7823" style="stop-color:#DAC5B0"/>
	<stop  offset="1" style="stop-color:#D8C2AC"/>
</linearGradient>
<path class="st25" d="M274.27,100.23C110.71,144.81,55.13,253.67,55.06,253.8c0.03,0.02,0.05,0.04,0.08,0.06l7.79,5.61
	c82.48-123.96,216.91-149.19,217.02-149.21c0-0.02-0.01-0.03-0.01-0.05l-2.72-10.11C276.24,100.23,275.25,100.26,274.27,100.23z"/>
<linearGradient id="SVGID_26_" gradientUnits="userSpaceOnUse" x1="48.5494" y1="277.8645" x2="66.1212" y2="-4.8819">
	<stop  offset="0" style="stop-color:#FFFFFF"/>
	<stop  offset="0.1176" style="stop-color:#F6F2ED"/>
	<stop  offset="0.3395" style="stop-color:#E9DDD1"/>
	<stop  offset="0.5616" style="stop-color:#E0CEBC"/>
	<stop  offset="0.7823" style="stop-color:#DAC5B0"/>
	<stop  offset="1" style="stop-color:#D8C2AC"/>
</linearGradient>
<path class="st26" d="M16.6,192.29c2.99-3.29,7.04-6.49,7-10.93c-0.01-1.56-0.56-3.1-0.39-4.64c0.27-2.48,2.25-4.37,4.11-6.03
	c4.55-4.07,9.1-8.14,13.66-12.21c8.18-7.32,16.51-14.73,26.44-19.42c8.33-3.93,17.77-5.94,24.86-11.83c2.91-2.42,5.44-5.77,5.4-9.56
	c-0.04-3.07-1.76-5.89-2.08-8.94c-0.76-7.14,5.88-12.62,11.72-16.79c5.84-4.18,12.26-10.15,10.81-17.18
	c-0.24-1.18-0.75-2.37-1.68-3.13c-1.78-1.47-4.41-0.99-6.65-0.43c-14.26,3.62-28.36,7.84-42.25,12.66
	c-2.54,0.88-5.25,1.79-7.88,1.19c-2.63-0.6-4.94-3.39-3.98-5.91c0.36-0.96,1.12-1.72,1.89-2.41c8.31-7.52,19.29-11.31,28.59-17.57
	c1.68-1.13,3.42-2.51,3.9-4.48c0.49-2.01-0.47-4.05-0.8-6.09c-0.7-4.23,1.32-8.52,4.14-11.75c2.82-3.24,6.41-5.69,9.67-8.49
	c2.34-2.02,4.59-4.33,5.61-7.25c1.02-2.92,0.48-6.57-1.98-8.44c-2.01-1.53-4.74-2.13-7.27-2.11c-4.23,0.04-8.96-0.19-13.14,0.82
	C35.56,32.92,0,83.18,0,141.73c0,22.52,5.27,43.81,14.63,62.72C13.36,201.04,13.62,195.56,16.6,192.29z"/>
<linearGradient id="SVGID_27_" gradientUnits="userSpaceOnUse" x1="23.8791" y1="218.9285" x2="140.4287" y2="-175.0598">
	<stop  offset="0" style="stop-color:#FFFFFF"/>
	<stop  offset="0.1176" style="stop-color:#F6F2ED"/>
	<stop  offset="0.3395" style="stop-color:#E9DDD1"/>
	<stop  offset="0.5616" style="stop-color:#E0CEBC"/>
	<stop  offset="0.7823" style="stop-color:#DAC5B0"/>
	<stop  offset="1" style="stop-color:#D8C2AC"/>
</linearGradient>
<path class="st27" d="M16.6,192.29c2.99-3.29,7.04-6.49,7-10.93c-0.01-1.56-0.56-3.1-0.39-4.64c0.27-2.48,2.25-4.37,4.11-6.03
	c4.55-4.07,9.1-8.14,13.66-12.21c8.18-7.32,16.51-14.73,26.44-19.42c8.33-3.93,17.77-5.94,24.86-11.83c2.91-2.42,5.44-5.77,5.4-9.56
	c-0.04-3.07-1.76-5.89-2.08-8.94c-0.76-7.14,5.88-12.62,11.72-16.79c5.84-4.18,12.26-10.15,10.81-17.18
	c-0.24-1.18-0.75-2.37-1.68-3.13c-1.78-1.47-4.41-0.99-6.65-0.43c-14.26,3.62-28.36,7.84-42.25,12.66
	c-2.54,0.88-5.25,1.79-7.88,1.19c-2.63-0.6-4.94-3.39-3.98-5.91c0.36-0.96,1.12-1.72,1.89-2.41c8.31-7.52,19.29-11.31,28.59-17.57
	c1.68-1.13,3.42-2.51,3.9-4.48c0.49-2.01-0.47-4.05-0.8-6.09c-0.7-4.23,1.32-8.52,4.14-11.75c2.82-3.24,6.41-5.69,9.67-8.49
	c2.34-2.02,4.59-4.33,5.61-7.25c1.02-2.92,0.48-6.57-1.98-8.44c-2.01-1.53-4.74-2.13-7.27-2.11c-4.23,0.04-8.96-0.19-13.14,0.82
	C35.56,32.92,0,83.18,0,141.73c0,22.52,5.27,43.81,14.63,62.72C13.36,201.04,13.62,195.56,16.6,192.29z"/>
<linearGradient id="SVGID_28_" gradientUnits="userSpaceOnUse" x1="216.1338" y1="175.024" x2="170.0783" y2="-59.0282">
	<stop  offset="0" style="stop-color:#FFFFFF"/>
	<stop  offset="0.1176" style="stop-color:#F6F2ED"/>
	<stop  offset="0.3395" style="stop-color:#E9DDD1"/>
	<stop  offset="0.5616" style="stop-color:#E0CEBC"/>
	<stop  offset="0.7823" style="stop-color:#DAC5B0"/>
	<stop  offset="1" style="stop-color:#D8C2AC"/>
</linearGradient>
<path class="st28" d="M197.97,87.66c0.67,0.14,1.35,0.27,2.02,0.38C199.32,87.93,198.64,87.8,197.97,87.66z"/>
<linearGradient id="SVGID_29_" gradientUnits="userSpaceOnUse" x1="210.054" y1="176.2203" x2="163.9986" y2="-57.8319">
	<stop  offset="0" style="stop-color:#FFFFFF"/>
	<stop  offset="0.1176" style="stop-color:#F6F2ED"/>
	<stop  offset="0.3395" style="stop-color:#E9DDD1"/>
	<stop  offset="0.5616" style="stop-color:#E0CEBC"/>
	<stop  offset="0.7823" style="stop-color:#DAC5B0"/>
	<stop  offset="1" style="stop-color:#D8C2AC"/>
</linearGradient>
<path class="st29" d="M191.26,85.45c0.66,0.33,1.34,0.63,2.03,0.89C192.6,86.07,191.92,85.78,191.26,85.45z"/>
<linearGradient id="SVGID_30_" gradientUnits="userSpaceOnUse" x1="212.9577" y1="175.649" x2="166.9022" y2="-58.4033">
	<stop  offset="0" style="stop-color:#FFFFFF"/>
	<stop  offset="0.1176" style="stop-color:#F6F2ED"/>
	<stop  offset="0.3395" style="stop-color:#E9DDD1"/>
	<stop  offset="0.5616" style="stop-color:#E0CEBC"/>
	<stop  offset="0.7823" style="stop-color:#DAC5B0"/>
	<stop  offset="1" style="stop-color:#D8C2AC"/>
</linearGradient>
<path class="st30" d="M193.43,86.39c1.35,0.5,2.75,0.89,4.16,1.2C196.18,87.27,194.78,86.89,193.43,86.39z"/>
<linearGradient id="SVGID_31_" gradientUnits="userSpaceOnUse" x1="221.9607" y1="288.6389" x2="239.5324" y2="5.8937">
	<stop  offset="0" style="stop-color:#FFFFFF"/>
	<stop  offset="0.1176" style="stop-color:#F6F2ED"/>
	<stop  offset="0.3395" style="stop-color:#E9DDD1"/>
	<stop  offset="0.5616" style="stop-color:#E0CEBC"/>
	<stop  offset="0.7823" style="stop-color:#DAC5B0"/>
	<stop  offset="1" style="stop-color:#D8C2AC"/>
</linearGradient>
<path class="st31" d="M199.99,88.05c-0.67-0.11-1.35-0.24-2.02-0.38c-0.13-0.03-0.25-0.05-0.38-0.08c-1.42-0.31-2.81-0.69-4.16-1.2
	c-0.04-0.02-0.09-0.03-0.13-0.05c-0.69-0.26-1.37-0.56-2.03-0.89c0,0,0,0,0,0c0,0,0,0,0,0c0.12,0.1,0.22,0.22,0.21,0.37
	c-0.01,0.25,0,0.02,0.08-0.22c3.54,3.59,9.63,8.34,14.66,8c8.96-0.6,17.44-4.08,26.22-5.95c8.78-1.87,18.74-1.86,25.8,3.68
	c2.18,1.7,3.97,3.86,6.19,5.51c2.83,2.1,6.31,3.26,9.83,3.4c0.93-0.25,1.84-0.51,2.77-0.76c-3.07-9.83-7.19-19.2-12.22-27.98
	c-12.19,6.91-24.8,13.49-38.54,16.2C217.64,89.39,208.68,89.51,199.99,88.05z"/>
<linearGradient id="SVGID_32_" gradientUnits="userSpaceOnUse" x1="265.2404" y1="291.317" x2="282.8117" y2="8.5787">
	<stop  offset="0" style="stop-color:#FFFFFF"/>
	<stop  offset="0.1176" style="stop-color:#F6F2ED"/>
	<stop  offset="0.3395" style="stop-color:#E9DDD1"/>
	<stop  offset="0.5616" style="stop-color:#E0CEBC"/>
	<stop  offset="0.7823" style="stop-color:#DAC5B0"/>
	<stop  offset="1" style="stop-color:#D8C2AC"/>
</linearGradient>
<path class="st32" d="M277.22,100.1c0,0,0.01,0,0.01,0c-0.06-0.19-0.11-0.39-0.17-0.59L277.22,100.1z"/>
<linearGradient id="SVGID_33_" gradientUnits="userSpaceOnUse" x1="289.1178" y1="160.6626" x2="243.0624" y2="-73.3896">
	<stop  offset="0" style="stop-color:#FFFFFF"/>
	<stop  offset="0.1176" style="stop-color:#F6F2ED"/>
	<stop  offset="0.3395" style="stop-color:#E9DDD1"/>
	<stop  offset="0.5616" style="stop-color:#E0CEBC"/>
	<stop  offset="0.7823" style="stop-color:#DAC5B0"/>
	<stop  offset="1" style="stop-color:#D8C2AC"/>
</linearGradient>
<path class="st33" d="M277.22,100.1c0,0,0.01,0,0.01,0c-0.06-0.19-0.11-0.39-0.17-0.59L277.22,100.1z"/>
<linearGradient id="SVGID_34_" gradientUnits="userSpaceOnUse" x1="284.1328" y1="208.1586" x2="268.1083" y2="-37.6899">
	<stop  offset="0" style="stop-color:#FFFFFF"/>
	<stop  offset="0.1176" style="stop-color:#F6F2ED"/>
	<stop  offset="0.3395" style="stop-color:#E9DDD1"/>
	<stop  offset="0.5616" style="stop-color:#E0CEBC"/>
	<stop  offset="0.7823" style="stop-color:#DAC5B0"/>
	<stop  offset="1" style="stop-color:#D8C2AC"/>
</linearGradient>
<path class="st34" d="M277.04,99.46C277.04,99.46,277.04,99.46,277.04,99.46c0,0.02,0.01,0.03,0.01,0.05L277.04,99.46z"/>
<linearGradient id="SVGID_35_" gradientUnits="userSpaceOnUse" x1="289.0885" y1="160.6684" x2="243.0331" y2="-73.3838">
	<stop  offset="0" style="stop-color:#FFFFFF"/>
	<stop  offset="0.1176" style="stop-color:#F6F2ED"/>
	<stop  offset="0.3395" style="stop-color:#E9DDD1"/>
	<stop  offset="0.5616" style="stop-color:#E0CEBC"/>
	<stop  offset="0.7823" style="stop-color:#DAC5B0"/>
	<stop  offset="1" style="stop-color:#D8C2AC"/>
</linearGradient>
<path class="st35" d="M277.04,99.46C277.04,99.46,277.04,99.46,277.04,99.46c0,0.02,0.01,0.03,0.01,0.05L277.04,99.46z"/>
<linearGradient id="SVGID_36_" gradientUnits="userSpaceOnUse" x1="263.8666" y1="291.2435" x2="281.439" y2="8.4878">
	<stop  offset="0" style="stop-color:#FFFFFF"/>
	<stop  offset="0.1176" style="stop-color:#F6F2ED"/>
	<stop  offset="0.3395" style="stop-color:#E9DDD1"/>
	<stop  offset="0.5616" style="stop-color:#E0CEBC"/>
	<stop  offset="0.7823" style="stop-color:#DAC5B0"/>
	<stop  offset="1" style="stop-color:#D8C2AC"/>
</linearGradient>
<path class="st36" d="M277.22,100.1l-0.16-0.59c0-0.02-0.01-0.03-0.02-0.05c-0.93,0.25-1.85,0.51-2.77,0.76
	C275.25,100.26,276.24,100.23,277.22,100.1z"/>
<linearGradient id="SVGID_37_" gradientUnits="userSpaceOnUse" x1="282.7861" y1="208.2383" x2="266.7629" y2="-37.5919">
	<stop  offset="0" style="stop-color:#FFFFFF"/>
	<stop  offset="0.1176" style="stop-color:#F6F2ED"/>
	<stop  offset="0.3395" style="stop-color:#E9DDD1"/>
	<stop  offset="0.5616" style="stop-color:#E0CEBC"/>
	<stop  offset="0.7823" style="stop-color:#DAC5B0"/>
	<stop  offset="1" style="stop-color:#D8C2AC"/>
</linearGradient>
<path class="st37" d="M277.22,100.1l-0.16-0.59c0-0.02-0.01-0.03-0.02-0.05c-0.93,0.25-1.85,0.51-2.77,0.76
	C275.25,100.26,276.24,100.23,277.22,100.1z"/>
<linearGradient id="SVGID_38_" gradientUnits="userSpaceOnUse" x1="287.7014" y1="160.9413" x2="241.646" y2="-73.1109">
	<stop  offset="0" style="stop-color:#FFFFFF"/>
	<stop  offset="0.1176" style="stop-color:#F6F2ED"/>
	<stop  offset="0.3395" style="stop-color:#E9DDD1"/>
	<stop  offset="0.5616" style="stop-color:#E0CEBC"/>
	<stop  offset="0.7823" style="stop-color:#DAC5B0"/>
	<stop  offset="1" style="stop-color:#D8C2AC"/>
</linearGradient>
<path class="st38" d="M277.22,100.1l-0.16-0.59c0-0.02-0.01-0.03-0.02-0.05c-0.93,0.25-1.85,0.51-2.77,0.76
	C275.25,100.26,276.24,100.23,277.22,100.1z"/>
<linearGradient id="SVGID_39_" gradientUnits="userSpaceOnUse" x1="186.3226" y1="286.412" x2="203.8936" y2="3.6784">
	<stop  offset="0" style="stop-color:#FFFFFF"/>
	<stop  offset="0.1176" style="stop-color:#F6F2ED"/>
	<stop  offset="0.3395" style="stop-color:#E9DDD1"/>
	<stop  offset="0.5616" style="stop-color:#E0CEBC"/>
	<stop  offset="0.7823" style="stop-color:#DAC5B0"/>
	<stop  offset="1" style="stop-color:#D8C2AC"/>
</linearGradient>
<path class="st39" d="M144.57,8.06c4.31,2.59,9.71,2.3,14.56,3.65c1.08,0.3,2.21,0.75,2.79,1.71c0.64,1.07,0.38,2.43,0,3.62
	c-1.33,4.15-3.86,7.8-5.56,11.81s-2.51,8.81-0.35,12.6c2.06,3.62,6.31,5.42,10.42,6.13c4.95,0.86,10.02,0.5,15.04,0.53
	c4.05,0.03,8.79,0.72,10.76,4.26c1.97,3.55,0,7.99-2.44,11.24c-2.44,3.25-5.5,6.41-5.92,10.45c-0.4,3.91,1.93,7.73,5.13,10.03
	c0.37,0.26,0.75,0.51,1.13,0.74c0.38,0.22,0.76,0.43,1.15,0.63c0,0,0,0,0.01,0c0.66,0.33,1.34,0.63,2.03,0.89
	c0.04,0.02,0.09,0.03,0.13,0.05c1.35,0.5,2.75,0.89,4.16,1.2c0.13,0.03,0.25,0.05,0.38,0.08c0.67,0.14,1.35,0.27,2.02,0.38
	c8.69,1.46,17.65,1.34,26.3-0.37c13.73-2.71,26.35-9.28,38.54-16.2c-3.47-6.05-7.38-11.81-11.67-17.26
	c-5.64-7.16-11.95-13.76-18.84-19.71c-0.09-0.08-0.18-0.16-0.27-0.23c-0.91-0.79-1.84-1.56-2.77-2.32c-0.1-0.08-0.2-0.17-0.31-0.25
	c-1.99-1.61-4.03-3.15-6.1-4.66c-3.01-2.18-6.1-4.27-9.29-6.22c-0.24-0.14-0.47-0.29-0.71-0.43c-0.87-0.52-1.75-1.04-2.63-1.54
	c-0.35-0.2-0.7-0.4-1.06-0.6c-0.84-0.47-1.68-0.94-2.53-1.39c-0.4-0.21-0.8-0.42-1.19-0.63c-0.84-0.44-1.68-0.88-2.53-1.3
	c-0.4-0.2-0.8-0.39-1.21-0.59c-0.87-0.42-1.73-0.84-2.61-1.25c-0.21-0.1-0.43-0.19-0.65-0.29c-1.78-0.81-3.59-1.58-5.41-2.32
	c-0.49-0.2-0.98-0.41-1.47-0.6c-0.74-0.29-1.49-0.57-2.23-0.85c-0.62-0.23-1.24-0.47-1.86-0.69c-0.71-0.25-1.43-0.5-2.15-0.74
	c-0.67-0.23-1.34-0.45-2.02-0.67c-0.7-0.22-1.39-0.44-2.1-0.66c-0.72-0.22-1.44-0.43-2.17-0.64c-0.67-0.19-1.34-0.39-2.01-0.57
	c-0.81-0.22-1.62-0.43-2.43-0.63c-0.61-0.15-1.21-0.31-1.82-0.46c-1.2-0.29-2.41-0.55-3.62-0.81c-0.48-0.1-0.96-0.2-1.44-0.3
	c-1.17-0.23-2.34-0.46-3.51-0.66c-0.55-0.1-1.1-0.18-1.65-0.27c-0.93-0.15-1.86-0.3-2.8-0.43c-0.6-0.08-1.2-0.16-1.8-0.24
	c-0.9-0.12-1.81-0.23-2.72-0.33c-0.61-0.07-1.21-0.13-1.82-0.19c-0.93-0.09-1.86-0.17-2.8-0.24c-0.59-0.04-1.17-0.09-1.76-0.13
	c-1.02-0.07-2.05-0.11-3.07-0.16c-0.5-0.02-1-0.05-1.5-0.07c-1.53-0.05-3.06-0.08-4.6-0.08c-0.92,0-1.84,0.02-2.76,0.03
	C139.71,3.37,141.71,6.34,144.57,8.06z"/>
<linearGradient id="SVGID_40_" gradientUnits="userSpaceOnUse" x1="180.9505" y1="286.0902" x2="198.5222" y2="3.345">
	<stop  offset="0" style="stop-color:#FFFFFF"/>
	<stop  offset="0.1176" style="stop-color:#F6F2ED"/>
	<stop  offset="0.3395" style="stop-color:#E9DDD1"/>
	<stop  offset="0.5616" style="stop-color:#E0CEBC"/>
	<stop  offset="0.7823" style="stop-color:#DAC5B0"/>
	<stop  offset="1" style="stop-color:#D8C2AC"/>
</linearGradient>
<path class="st40" d="M193.3,86.34c0.04,0.02,0.09,0.03,0.13,0.05C193.39,86.37,193.34,86.35,193.3,86.34z"/>
<linearGradient id="SVGID_41_" gradientUnits="userSpaceOnUse" x1="180.9512" y1="286.0782" x2="198.5223" y2="3.3446">
	<stop  offset="0" style="stop-color:#FFFFFF"/>
	<stop  offset="0.1176" style="stop-color:#F6F2ED"/>
	<stop  offset="0.3395" style="stop-color:#E9DDD1"/>
	<stop  offset="0.5616" style="stop-color:#E0CEBC"/>
	<stop  offset="0.7823" style="stop-color:#DAC5B0"/>
	<stop  offset="1" style="stop-color:#D8C2AC"/>
</linearGradient>
<path class="st41" d="M193.3,86.34c0.04,0.02,0.09,0.03,0.13,0.05C193.39,86.37,193.34,86.35,193.3,86.34z"/>
<linearGradient id="SVGID_42_" gradientUnits="userSpaceOnUse" x1="211.0077" y1="176.0327" x2="164.9523" y2="-58.0196">
	<stop  offset="0" style="stop-color:#FFFFFF"/>
	<stop  offset="0.1176" style="stop-color:#F6F2ED"/>
	<stop  offset="0.3395" style="stop-color:#E9DDD1"/>
	<stop  offset="0.5616" style="stop-color:#E0CEBC"/>
	<stop  offset="0.7823" style="stop-color:#DAC5B0"/>
	<stop  offset="1" style="stop-color:#D8C2AC"/>
</linearGradient>
<path class="st42" d="M193.3,86.34c0.04,0.02,0.09,0.03,0.13,0.05C193.39,86.37,193.34,86.35,193.3,86.34z"/>
<linearGradient id="SVGID_43_" gradientUnits="userSpaceOnUse" x1="190.6043" y1="96.0238" x2="191.9188" y2="74.8726">
	<stop  offset="0" style="stop-color:#FFFFFF"/>
	<stop  offset="0.1176" style="stop-color:#F6F2ED"/>
	<stop  offset="0.3395" style="stop-color:#E9DDD1"/>
	<stop  offset="0.5616" style="stop-color:#E0CEBC"/>
	<stop  offset="0.7823" style="stop-color:#DAC5B0"/>
	<stop  offset="1" style="stop-color:#D8C2AC"/>
</linearGradient>
<polygon class="st43" points="191.26,85.45 191.26,85.45 191.26,85.45 "/>
<linearGradient id="SVGID_44_" gradientUnits="userSpaceOnUse" x1="190.6043" y1="96.0238" x2="191.9188" y2="74.8726">
	<stop  offset="0" style="stop-color:#FFFFFF"/>
	<stop  offset="0.1176" style="stop-color:#F6F2ED"/>
	<stop  offset="0.3395" style="stop-color:#E9DDD1"/>
	<stop  offset="0.5616" style="stop-color:#E0CEBC"/>
	<stop  offset="0.7823" style="stop-color:#DAC5B0"/>
	<stop  offset="1" style="stop-color:#D8C2AC"/>
</linearGradient>
<polygon class="st44" points="191.26,85.45 191.26,85.45 191.26,85.45 "/>
<linearGradient id="SVGID_45_" gradientUnits="userSpaceOnUse" x1="194.3756" y1="101.2722" x2="188.1484" y2="69.6255">
	<stop  offset="0" style="stop-color:#FFFFFF"/>
	<stop  offset="0.1176" style="stop-color:#F6F2ED"/>
	<stop  offset="0.3395" style="stop-color:#E9DDD1"/>
	<stop  offset="0.5616" style="stop-color:#E0CEBC"/>
	<stop  offset="0.7823" style="stop-color:#DAC5B0"/>
	<stop  offset="1" style="stop-color:#D8C2AC"/>
</linearGradient>
<polygon class="st45" points="191.26,85.45 191.26,85.45 191.26,85.45 "/>
<linearGradient id="SVGID_46_" gradientUnits="userSpaceOnUse" x1="185.4296" y1="286.3686" x2="203.0013" y2="3.6234">
	<stop  offset="0" style="stop-color:#FFFFFF"/>
	<stop  offset="0.1176" style="stop-color:#F6F2ED"/>
	<stop  offset="0.3395" style="stop-color:#E9DDD1"/>
	<stop  offset="0.5616" style="stop-color:#E0CEBC"/>
	<stop  offset="0.7823" style="stop-color:#DAC5B0"/>
	<stop  offset="1" style="stop-color:#D8C2AC"/>
</linearGradient>
<path class="st46" d="M197.59,87.58c0.13,0.03,0.25,0.05,0.38,0.08C197.84,87.64,197.72,87.61,197.59,87.58z"/>
<linearGradient id="SVGID_47_" gradientUnits="userSpaceOnUse" x1="185.4303" y1="286.3566" x2="203.0013" y2="3.6229">
	<stop  offset="0" style="stop-color:#FFFFFF"/>
	<stop  offset="0.1176" style="stop-color:#F6F2ED"/>
	<stop  offset="0.3395" style="stop-color:#E9DDD1"/>
	<stop  offset="0.5616" style="stop-color:#E0CEBC"/>
	<stop  offset="0.7823" style="stop-color:#DAC5B0"/>
	<stop  offset="1" style="stop-color:#D8C2AC"/>
</linearGradient>
<path class="st47" d="M197.59,87.58c0.13,0.03,0.25,0.05,0.38,0.08C197.84,87.64,197.72,87.61,197.59,87.58z"/>
<linearGradient id="SVGID_48_" gradientUnits="userSpaceOnUse" x1="215.0222" y1="175.2427" x2="168.9668" y2="-58.8095">
	<stop  offset="0" style="stop-color:#FFFFFF"/>
	<stop  offset="0.1176" style="stop-color:#F6F2ED"/>
	<stop  offset="0.3395" style="stop-color:#E9DDD1"/>
	<stop  offset="0.5616" style="stop-color:#E0CEBC"/>
	<stop  offset="0.7823" style="stop-color:#DAC5B0"/>
	<stop  offset="1" style="stop-color:#D8C2AC"/>
</linearGradient>
<path class="st48" d="M197.59,87.58c0.13,0.03,0.25,0.05,0.38,0.08C197.84,87.64,197.72,87.61,197.59,87.58z"/>
<linearGradient id="SVGID_49_" gradientUnits="userSpaceOnUse" x1="211.8464" y1="287.9983" x2="229.4174" y2="5.2646">
	<stop  offset="0" style="stop-color:#FFFFFF"/>
	<stop  offset="0.1176" style="stop-color:#F6F2ED"/>
	<stop  offset="0.3395" style="stop-color:#E9DDD1"/>
	<stop  offset="0.5616" style="stop-color:#E0CEBC"/>
	<stop  offset="0.7823" style="stop-color:#DAC5B0"/>
	<stop  offset="1" style="stop-color:#D8C2AC"/>
</linearGradient>
<path class="st49" d="M224.87,27.06c2.07,1.5,4.11,3.05,6.1,4.66C228.98,30.1,226.94,28.56,224.87,27.06z"/>
<linearGradient id="SVGID_50_" gradientUnits="userSpaceOnUse" x1="211.8464" y1="287.9983" x2="229.4174" y2="5.2646">
	<stop  offset="0" style="stop-color:#FFFFFF"/>
	<stop  offset="0.1176" style="stop-color:#F6F2ED"/>
	<stop  offset="0.3395" style="stop-color:#E9DDD1"/>
	<stop  offset="0.5616" style="stop-color:#E0CEBC"/>
	<stop  offset="0.7823" style="stop-color:#DAC5B0"/>
	<stop  offset="1" style="stop-color:#D8C2AC"/>
</linearGradient>
<path class="st50" d="M224.87,27.06c2.07,1.5,4.11,3.05,6.1,4.66C228.98,30.1,226.94,28.56,224.87,27.06z"/>
<linearGradient id="SVGID_51_" gradientUnits="userSpaceOnUse" x1="255.069" y1="167.3625" x2="209.0136" y2="-66.6897">
	<stop  offset="0" style="stop-color:#FFFFFF"/>
	<stop  offset="0.1176" style="stop-color:#F6F2ED"/>
	<stop  offset="0.3395" style="stop-color:#E9DDD1"/>
	<stop  offset="0.5616" style="stop-color:#E0CEBC"/>
	<stop  offset="0.7823" style="stop-color:#DAC5B0"/>
	<stop  offset="1" style="stop-color:#D8C2AC"/>
</linearGradient>
<path class="st51" d="M224.87,27.06c2.07,1.5,4.11,3.05,6.1,4.66C228.98,30.1,226.94,28.56,224.87,27.06z"/>
<linearGradient id="SVGID_52_" gradientUnits="userSpaceOnUse" x1="182.5007" y1="237.0057" x2="243.4112" y2="-210.09">
	<stop  offset="0" style="stop-color:#FFFFFF"/>
	<stop  offset="0.1176" style="stop-color:#F6F2ED"/>
	<stop  offset="0.3395" style="stop-color:#E9DDD1"/>
	<stop  offset="0.5616" style="stop-color:#E0CEBC"/>
	<stop  offset="0.7823" style="stop-color:#DAC5B0"/>
	<stop  offset="1" style="stop-color:#D8C2AC"/>
</linearGradient>
<path class="st52" d="M264.83,71.48c-3.47-6.05-7.38-11.81-11.67-17.26c-5.64-7.16-11.95-13.76-18.84-19.71
	c-0.09-0.08-0.18-0.16-0.27-0.23c-0.91-0.79-1.84-1.56-2.77-2.32c-0.1-0.08-0.2-0.17-0.31-0.25c-1.99-1.61-4.03-3.15-6.1-4.66
	c-3.01-2.18-6.1-4.27-9.29-6.22c-0.24-0.14-0.47-0.29-0.71-0.43c-0.87-0.52-1.75-1.04-2.63-1.54c-0.35-0.2-0.7-0.4-1.06-0.6
	c-0.84-0.47-1.68-0.94-2.53-1.39c-0.4-0.21-0.8-0.42-1.19-0.63c-0.84-0.44-1.68-0.88-2.53-1.3c-0.4-0.2-0.8-0.39-1.21-0.59
	c-0.87-0.42-1.73-0.84-2.61-1.25c-0.21-0.1-0.43-0.19-0.65-0.29c-1.78-0.81-3.59-1.58-5.41-2.32c-0.49-0.2-0.98-0.41-1.47-0.6
	c-0.74-0.29-1.49-0.57-2.23-0.85c-0.62-0.23-1.24-0.47-1.86-0.69c-0.71-0.25-1.43-0.5-2.15-0.74c-0.67-0.23-1.34-0.45-2.02-0.67
	c-0.7-0.22-1.39-0.44-2.1-0.66c-0.72-0.22-1.44-0.43-2.17-0.64c-0.67-0.19-1.34-0.39-2.01-0.57c-0.81-0.22-1.62-0.43-2.43-0.63
	c-0.61-0.15-1.21-0.31-1.82-0.46c-1.2-0.29-2.41-0.55-3.62-0.81c-0.48-0.1-0.96-0.2-1.44-0.3c-1.17-0.23-2.34-0.46-3.51-0.66
	c-0.55-0.1-1.1-0.18-1.65-0.27c-0.93-0.15-1.86-0.3-2.8-0.43c-0.6-0.08-1.2-0.16-1.8-0.24c-0.9-0.12-1.81-0.23-2.72-0.33
	c-0.61-0.07-1.21-0.13-1.82-0.19c-0.93-0.09-1.86-0.17-2.8-0.24c-0.59-0.04-1.17-0.09-1.76-0.13c-1.02-0.07-2.05-0.11-3.07-0.16
	c-0.5-0.02-1-0.05-1.5-0.07c-1.53-0.05-3.06-0.08-4.6-0.08c-0.92,0-1.84,0.02-2.76,0.03c0.74,3.24,2.74,6.21,5.6,7.93
	c4.31,2.59,9.71,2.3,14.56,3.65c1.08,0.3,2.21,0.75,2.79,1.71c0.64,1.07,0.38,2.43,0,3.62c-1.33,4.15-3.86,7.8-5.56,11.81
	s-2.51,8.81-0.35,12.6c2.06,3.62,6.31,5.42,10.42,6.13c4.95,0.86,10.02,0.5,15.04,0.53c4.05,0.03,8.79,0.72,10.76,4.26
	c1.97,3.55,0,7.99-2.44,11.24c-2.44,3.25-5.5,6.41-5.92,10.45c-0.05,0.48-0.05,0.96-0.03,1.43c-0.93,6.03,4.1,12.98,12.24,16.33
	c3.22,1.32,6.49,1.89,9.49,1.8c0.22,0,0.44,0.01,0.66,0c8.96-0.6,17.44-4.08,26.22-5.95c8.78-1.87,18.74-1.86,25.8,3.68
	c2.18,1.7,3.97,3.86,6.19,5.51c2.83,2.1,6.31,3.26,9.83,3.4c0.93-0.25,1.84-0.51,2.77-0.76C273.97,89.63,269.85,80.26,264.83,71.48z
	"/>
</svg>
