<?xml version="1.0" encoding="utf-8"?>
<!-- Generator: Adobe Illustrator 24.3.0, SVG Export Plug-In . SVG Version: 6.00 Build 0)  -->
<svg version="1.1" id="Calque_1" xmlns="http://www.w3.org/2000/svg" xmlns:xlink="http://www.w3.org/1999/xlink" x="0px" y="0px"
	 viewBox="0 0 283.3 283.46" style="enable-background:new 0 0 283.3 283.46;" xml:space="preserve">
<style type="text/css">
	.st0{fill:url(#SVGID_1_);}
	.st1{fill:url(#SVGID_2_);}
	.st2{fill:url(#SVGID_3_);}
	.st3{fill:#F18754;}
	.st4{fill:url(#SVGID_4_);}
	.st5{fill:url(#SVGID_5_);}
	.st6{fill:url(#SVGID_6_);}
	.st7{fill:url(#SVGID_7_);}
	.st8{fill:url(#SVGID_8_);}
	.st9{fill:url(#SVGID_9_);}
	.st10{fill:url(#SVGID_10_);}
</style>
<g>
	<linearGradient id="SVGID_1_" gradientUnits="userSpaceOnUse" x1="146.0306" y1="444.7008" x2="138.9932" y2="-53.5509">
		<stop  offset="0" style="stop-color:#FFFFFF"/>
		<stop  offset="0.0219" style="stop-color:#FDF0EA"/>
		<stop  offset="0.0702" style="stop-color:#FAD5C3"/>
		<stop  offset="0.1217" style="stop-color:#F7BDA0"/>
		<stop  offset="0.1762" style="stop-color:#F5A984"/>
		<stop  offset="0.2348" style="stop-color:#F39A6F"/>
		<stop  offset="0.2994" style="stop-color:#F28F60"/>
		<stop  offset="0.3746" style="stop-color:#F18957"/>
		<stop  offset="0.4857" style="stop-color:#F18754"/>
		<stop  offset="0.6294" style="stop-color:#ED8453"/>
		<stop  offset="0.7326" style="stop-color:#E1794F"/>
		<stop  offset="0.8231" style="stop-color:#CD6849"/>
		<stop  offset="0.9063" style="stop-color:#B25241"/>
		<stop  offset="0.9839" style="stop-color:#923836"/>
		<stop  offset="1" style="stop-color:#8B3334"/>
	</linearGradient>
	<path class="st0" d="M283.46,141.73c0,78.28-63.45,141.73-141.71,141.73S0.04,220.01,0.04,141.73c0-26.17,7.09-50.68,19.45-71.72
		C44.11,28.12,89.65,0,141.75,0C220.02,0,283.46,63.46,283.46,141.73z"/>
	<linearGradient id="SVGID_2_" gradientUnits="userSpaceOnUse" x1="170.1797" y1="304.1829" x2="143.0526" y2="164.591">
		<stop  offset="0" style="stop-color:#FFFFFF"/>
		<stop  offset="0.4832" style="stop-color:#F18754"/>
		<stop  offset="1" style="stop-color:#8B3334"/>
	</linearGradient>
	<path class="st1" d="M254.94,173.25c-7.26-0.06-35.44,7.65-47.86,8.52c-12.43,0.86-24.39-1.78-40.5,0s-23.47-0.4-46.94-5.93
		c-23.47-5.52-22.09-1.38-35.67,4.59c-13.58,5.98-14.73,16.12-38.43,17.96c-23.7,1.84-30.79,6.3-30.79,6.3l2.08,3.63
		c-0.11,0.03-0.18,0.05-0.18,0.05l5.54,9.48c0,0,0.05-0.02,0.07-0.03l0.66,1.16l37.39-5.66c9.37-0.11,14.94-2.6,25.85,0.5
		c12.08,3.43,55.54-5.39,61.42-10.47c5.88-5.08,28.66-7.17,40.05-6.65c11.39,0.53,33.13-2.39,40.38-6.11
		c7.25-3.72,43.94-9.68,49.58-8.43l2.81-11.05C276.43,172.16,262.2,173.31,254.94,173.25z"/>
	<linearGradient id="SVGID_3_" gradientUnits="userSpaceOnUse" x1="82.2962" y1="300.6826" x2="122.4218" y2="107.119">
		<stop  offset="0.1754" style="stop-color:#FFFFFF"/>
		<stop  offset="0.221" style="stop-color:#FFF5DA"/>
		<stop  offset="0.2811" style="stop-color:#FFE9B0"/>
		<stop  offset="0.3398" style="stop-color:#FFE08F"/>
		<stop  offset="0.3956" style="stop-color:#FFD977"/>
		<stop  offset="0.4475" style="stop-color:#FFD569"/>
		<stop  offset="0.4917" style="stop-color:#FFD464"/>
		<stop  offset="0.6708" style="stop-color:#F18754"/>
	</linearGradient>
	<path class="st2" d="M126.84,192.52c0,6.32-10.48,13.46-22.72,13.46s-23.47-1.84-21.63-13.46c0.99-6.25,9.93-11.45,22.18-11.45
		S126.84,186.2,126.84,192.52z"/>
	<g>
		<path class="st3" d="M90.34,183.96c2.52-1.08,5.44-0.94,8.1-0.43c2.71,0.51,5.29,1.51,7.72,2.81c2.37,1.38,4.73,3.01,6.23,5.58
			c0.33,0.67,0.66,1.37,0.69,2.18c0.05,0.78-0.13,1.63-0.59,2.25c-0.19,0.34-0.5,0.56-0.74,0.83c-0.29,0.21-0.57,0.43-0.88,0.6
			c-0.32,0.14-0.62,0.31-0.94,0.43l-0.97,0.3c1.11-0.73,2.26-1.54,2.68-2.63c0.5-1.05,0.09-2.17-0.57-3.13
			c-0.71-0.96-1.63-1.83-2.65-2.57c-1.01-0.77-2.09-1.46-3.22-2.07c-2.25-1.25-4.65-2.27-7.12-3.05
			C95.58,184.29,93.02,183.7,90.34,183.96z"/>
	</g>
	<g>
		<path class="st3" d="M119.01,187.34c1.82,1.29,3.08,3.57,2.88,5.98c-0.09,1.19-0.5,2.34-1.08,3.36c-0.58,1.03-1.31,1.95-2.11,2.79
			c-1.62,1.64-3.43,3.08-5.5,4.2c-1.03,0.55-2.13,1-3.28,1.32c-0.57,0.16-1.16,0.28-1.77,0.36c-0.62,0.08-1.17,0.13-1.93,0.05
			l0.07,0.01c-1.99-0.15-3.99-0.35-5.98-0.64c-1.99-0.28-3.98-0.67-5.95-1.28c-0.98-0.31-1.96-0.66-2.92-1.16
			c-0.95-0.49-1.91-1.11-2.65-2.09c-0.37-0.49-0.65-1.08-0.78-1.71c-0.06-0.31-0.09-0.64-0.08-0.94c0.02-0.29,0.02-0.57,0.08-0.85
			c0.16-1.13,0.63-2.19,1.25-3.1c0.64-0.9,1.44-1.67,2.32-2.27c0.9-0.59,1.83-1.11,2.95-1.35c1.07-0.23,2.11-0.25,3.15-0.18
			c1.04,0.08,2.07,0.28,3.07,0.65c0.98,0.37,1.98,0.93,2.63,1.89c0.67,0.95,0.7,2.21,0.37,3.2c-0.31,1.04-1.14,1.9-2.11,2.27
			c-0.97,0.39-2.01,0.42-2.99,0.29c0.99,0.01,1.98-0.2,2.83-0.63c0.85-0.43,1.45-1.21,1.62-2.1c0.2-0.9,0.08-1.83-0.47-2.48
			c-0.54-0.66-1.36-1.1-2.24-1.37c-1.77-0.52-3.77-0.54-5.52-0.13c-0.81,0.2-1.64,0.7-2.36,1.23c-0.73,0.54-1.34,1.22-1.83,1.94
			c-0.47,0.74-0.8,1.55-0.89,2.39c-0.12,0.91,0.01,1.5,0.5,2.12c1,1.21,2.85,1.97,4.64,2.51c3.68,1.05,7.6,1.54,11.51,1.89l0.02,0
			l0.05,0.01c0.36,0.05,0.93,0.05,1.42-0.01c0.51-0.05,1.02-0.14,1.52-0.27c1.01-0.25,2.01-0.62,2.96-1.09
			c1.91-0.93,3.71-2.21,5.31-3.65c1.58-1.44,2.95-3.2,3.36-5.27C121.52,191.14,120.59,188.9,119.01,187.34z"/>
	</g>
</g>
<linearGradient id="SVGID_4_" gradientUnits="userSpaceOnUse" x1="274.5563" y1="288.7847" x2="260.347" y2="194.8456">
	<stop  offset="0" style="stop-color:#FFFFFF"/>
	<stop  offset="0.6166" style="stop-color:#FFD464"/>
	<stop  offset="1" style="stop-color:#F18754"/>
</linearGradient>
<path class="st4" d="M256.45,224.99c2.77-3.01,11.48-17.91,13.48-22.74"/>
<linearGradient id="SVGID_5_" gradientUnits="userSpaceOnUse" x1="155.6878" y1="330.474" x2="155.1226" y2="250.2227">
	<stop  offset="0" style="stop-color:#FFFFFF"/>
	<stop  offset="0.4832" style="stop-color:#F18754"/>
	<stop  offset="1" style="stop-color:#8B3334"/>
</linearGradient>
<path class="st5" d="M225.26,247.47c-7.77,2.59-18.29,6.21-31.24,5.35c-12.94-0.86-25.02,1.9-32.1,4.95
	c-7.08,3.06-16.05,1.95-23.3,0s-20.88,0.4-25.54,2.99c-4.66,2.59-17.78,5.87-24.33,4.34s-16.83,0-16.83,0
	c12.8,7.68,28.14,12.14,28.14,12.14s7.84-2.84,17.51-2.15c9.66,0.69,16.91,0.69,22.43-1.04c5.52-1.73,14.15-3.97,25.2-3.8
	c11.04,0.17,22.43-0.86,28.3-3.11c5.87-2.24,16.3-3.9,20.57-3.51c0.93-0.1,18.5-11.9,24.31-18.24
	C234.43,244.36,233.03,244.88,225.26,247.47z"/>
<linearGradient id="SVGID_6_" gradientUnits="userSpaceOnUse" x1="27.2822" y1="255.2811" x2="17.3208" y2="204.021">
	<stop  offset="0" style="stop-color:#FFFFFF"/>
	<stop  offset="0.4832" style="stop-color:#F18754"/>
	<stop  offset="1" style="stop-color:#8B3334"/>
</linearGradient>
<path class="st6" d="M22.92,218.99c0,0-5.81-9.06-8.17-14.3"/>
<linearGradient id="SVGID_7_" gradientUnits="userSpaceOnUse" x1="165.2401" y1="322.8036" x2="150.9983" y2="211.2431">
	<stop  offset="0" style="stop-color:#FFFFFF"/>
	<stop  offset="0.6166" style="stop-color:#FFD464"/>
	<stop  offset="1" style="stop-color:#F18754"/>
</linearGradient>
<path class="st7" d="M213.52,212.2c-10.35,1.61-13.58,4.14-23.47,3.75c-9.89-0.4-23.24,3.62-27.84,5.42
	c-4.6,1.8-15.19,3.49-24.62,0.89s-16.34,1.22-22.55,1.94s-28.53,5.49-31.75,5.72c-3.22,0.23-8.05-2.99-15.88,0
	c-7.82,2.99-17.95,2.99-22.32,2.3c-4.37-0.69-11.33,1.29-11.33,1.29c6.39,7.81,15.5,15.61,15.5,15.61s15.5,2.69,29.82,0
	s34.69-8.91,51.6-8.56c16.91,0.35,41.94-0.6,49.01-4.35s13.29-2.89,21.57-1.51s22.61,1.04,26.58-3.45
	c3.97-4.49,17.31-6.86,22.78-6.32c5.47,0.54,5.82,0.07,5.82,0.07l13.48-22.74C261.67,201.28,223.88,210.59,213.52,212.2z"/>
<linearGradient id="SVGID_8_" gradientUnits="userSpaceOnUse" x1="142.8121" y1="219.8963" x2="139.6473" y2="0.7315">
	<stop  offset="0.0126" style="stop-color:#FFFFFF"/>
	<stop  offset="0.047" style="stop-color:#E8F3F7"/>
	<stop  offset="0.1423" style="stop-color:#ACD3E3"/>
	<stop  offset="0.2299" style="stop-color:#7DBBD4"/>
	<stop  offset="0.307" style="stop-color:#5BA9C8"/>
	<stop  offset="0.3705" style="stop-color:#469EC1"/>
	<stop  offset="0.4127" style="stop-color:#3F9ABF"/>
	<stop  offset="1" style="stop-color:#2F5A6B"/>
</linearGradient>
<path class="st8" d="M277.19,99.91c-10.43-5.05-48.71-4.16-55.38-1.33s-20.48,8.45-28.53,5.46c-8.05-2.99-27.84,0.23-36.13,4.18
	c-8.28,3.95-23.01,6.41-31.52,4.69c-8.51-1.72-13.12,1.49-22.55,4.94c-9.43,3.45-21.4,2.3-33.36,7.36s-21.4,0.46-28.99,2.94
	c-7.59,2.48-15.88,8.1-23.01,7.87c-7.13-0.23-17.67,4.37-17.67,4.37c-0.03,0.69-0.04,1.44-0.04,2.24
	c-0.11,18.04,4.47,34.4,4.47,34.4s9.79-4.32,11.86-7.25c2.07-2.93,2.3-4.65,10.81-3.44c8.51,1.21,8.51-1.79,9.43-2.71
	s14.73-7.36,26.69-2.99c11.97,4.37,29.91-1.38,34.52-5.75c4.6-4.37,14.96-5.57,23.24-3.82c8.28,1.75,15.65,1.8,28.07-2.71
	c12.43-4.51,18.87-4.05,23.93-2.21s28.53,1.96,38.43-1.32c9.89-3.28,16.11-5.1,26.92-5.22c10.81-0.13,44.99-1.72,44.92-4.73
	C282.96,118.22,277.19,99.91,277.19,99.91z"/>
<linearGradient id="SVGID_9_" gradientUnits="userSpaceOnUse" x1="134.586" y1="97.3608" x2="133.1732" y2="-0.4693">
	<stop  offset="0.0126" style="stop-color:#FFFFFF"/>
	<stop  offset="0.047" style="stop-color:#E8F3F7"/>
	<stop  offset="0.1423" style="stop-color:#ACD3E3"/>
	<stop  offset="0.2299" style="stop-color:#7DBBD4"/>
	<stop  offset="0.307" style="stop-color:#5BA9C8"/>
	<stop  offset="0.3705" style="stop-color:#469EC1"/>
	<stop  offset="0.4127" style="stop-color:#3F9ABF"/>
	<stop  offset="1" style="stop-color:#2F5A6B"/>
</linearGradient>
<path class="st9" d="M246.29,46.04c-11.54-2.45-8.02-0.31-27.58-2.84c-19.56-2.53-35.44-1.15-51.08,2.84
	c-15.65,3.99-25.08,3.37-38.66,3.37c-13.58,0-41.65,4.6-50.62,8.28c-8.97,3.68-13.75,2.78-26.69,6.44c0,0-16.76,5.29-28.51,0
	c-3.26,4.4-8.13,14.12-8.13,14.12s-1.78,2.68,16.86-1.93c18.64-4.6,45.33-11.97,62.36-11.74c17.03,0.23,35.9-1.15,55.91-5.98
	c20.02-4.83,40.73-8.96,58.22-5.17c17.49,3.79,26.18,2.81,44.96,0.88C253.31,54.33,248.76,48.53,246.29,46.04z"/>
<linearGradient id="SVGID_10_" gradientUnits="userSpaceOnUse" x1="164.4205" y1="293.8438" x2="124.0689" y2="23.646">
	<stop  offset="0" style="stop-color:#FFFFFF"/>
	<stop  offset="0.5447" style="stop-color:#FFD464"/>
	<stop  offset="1" style="stop-color:#F18754"/>
</linearGradient>
<path class="st10" d="M257.87,60.48c-4.91,0.25-9.71,1.13-25.82,2.97c-16.11,1.84-21.4-1.38-38.66-1.61
	c-17.26-0.23-28.07,3.45-36.13,6.21c-8.05,2.76-54.99,4.83-66.27,3.68c-11.28-1.15-29.91-0.46-48.78,7.63
	C23.35,87.46,8.42,93.6,8.42,93.6l-4.39,14.61c0,0,20.25-16.77,46.94-19.26s32.44-5.02,39.12-6.86s27.15-4.5,39.58-3.05
	c12.43,1.44,47.19-1.72,53.61-4.08c4.17-1.53,39.81-5.52,51.31-3.91c11.51,1.61,28.96-1.8,28.96-1.8
	C262.39,67.06,257.87,60.48,257.87,60.48z"/>
</svg>
