<?xml version="1.0" encoding="utf-8"?>
<!-- Generator: Adobe Illustrator 24.3.0, SVG Export Plug-In . SVG Version: 6.00 Build 0)  -->
<svg version="1.1" id="Calque_1" xmlns="http://www.w3.org/2000/svg" xmlns:xlink="http://www.w3.org/1999/xlink" x="0px" y="0px"
	 viewBox="0 0 283.46 238.43" style="enable-background:new 0 0 283.46 238.43;" xml:space="preserve">
<style type="text/css">
	.st0{fill:url(#SVGID_1_);}
	.st1{fill:url(#SVGID_2_);}
	.st2{fill:url(#SVGID_3_);}
	.st3{fill:url(#SVGID_4_);}
	.st4{fill:url(#SVGID_5_);}
	.st5{fill:url(#SVGID_6_);}
	.st6{fill:none;}
	.st7{fill:url(#SVGID_7_);}
	.st8{fill:url(#SVGID_8_);}
	.st9{fill:url(#SVGID_9_);}
	.st10{fill:url(#SVGID_10_);}
	.st11{fill:url(#SVGID_11_);}
	.st12{fill:url(#SVGID_12_);}
	.st13{fill:url(#SVGID_13_);}
	.st14{fill:url(#SVGID_14_);}
	.st15{fill:url(#SVGID_15_);}
	.st16{fill:url(#SVGID_16_);}
	.st17{fill:url(#SVGID_17_);}
	.st18{fill:url(#SVGID_18_);}
	.st19{fill:url(#SVGID_19_);}
	.st20{fill:url(#SVGID_20_);}
	.st21{fill:url(#SVGID_21_);}
	.st22{fill:url(#SVGID_22_);}
	.st23{fill:url(#SVGID_23_);}
	.st24{fill:url(#SVGID_24_);}
	.st25{fill:url(#SVGID_25_);}
</style>
<linearGradient id="SVGID_1_" gradientUnits="userSpaceOnUse" x1="811.9476" y1="197.0375" x2="326.8604" y2="-520.048" gradientTransform="matrix(0.7991 -0.6011 0.6011 0.7991 79.0272 792.0454)">
	<stop  offset="0" style="stop-color:#FFFFFF"/>
	<stop  offset="1" style="stop-color:#D8C2AC"/>
</linearGradient>
<path class="st0" d="M26.17,179.68c0.73,1.2,1.48,2.38,2.25,3.55c1.05-1.58,2.17-3.19,3.36-4.83
	C29.92,178.85,28.05,179.28,26.17,179.68z"/>
<linearGradient id="SVGID_2_" gradientUnits="userSpaceOnUse" x1="187.5753" y1="362.2482" x2="-22.7253" y2="119.9568">
	<stop  offset="0" style="stop-color:#FFFFFF"/>
	<stop  offset="1" style="stop-color:#D8C2AC"/>
</linearGradient>
<path class="st1" d="M26.17,179.68c0.73,1.2,1.48,2.38,2.25,3.55c1.05-1.58,2.17-3.19,3.36-4.83
	C29.92,178.85,28.05,179.28,26.17,179.68z"/>
<linearGradient id="SVGID_3_" gradientUnits="userSpaceOnUse" x1="138.5018" y1="134.0559" x2="76.4074" y2="42.5241">
	<stop  offset="0" style="stop-color:#FFFFFF"/>
	<stop  offset="1" style="stop-color:#D8C2AC"/>
</linearGradient>
<path class="st2" d="M9.07,118.37C33.99,114.06,160.38,34.6,172.2,8.76l13.06,6.3c0,0-71.03,76.97-175.29,117.44L9.07,118.37z"/>
<linearGradient id="SVGID_4_" gradientUnits="userSpaceOnUse" x1="226.6964" y1="53.8468" x2="226.6964" y2="53.8468">
	<stop  offset="0" style="stop-color:#FFFFFF"/>
	<stop  offset="1" style="stop-color:#D8C2AC"/>
</linearGradient>
<path class="st3" d="M226.7,53.85"/>
<linearGradient id="SVGID_5_" gradientUnits="userSpaceOnUse" x1="268.7196" y1="281.347" x2="58.419" y2="39.0555">
	<stop  offset="0" style="stop-color:#FFFFFF"/>
	<stop  offset="0.4287" style="stop-color:#EBE0D5"/>
	<stop  offset="0.793" style="stop-color:#DDCAB7"/>
	<stop  offset="1" style="stop-color:#D8C2AC"/>
</linearGradient>
<path class="st4" d="M31.78,178.4c-1.19,1.64-2.31,3.25-3.36,4.83c8.41,12.81,19.24,23.9,31.84,32.6
	c26.76-9.66,63.04-30.26,100.08-58.12c34.48-25.94,62.73-52.98,79.95-75.18c-4.09-12.89-10.33-24.83-18.3-35.39
	C221.93,47.22,151.01,149.81,31.78,178.4z"/>
<linearGradient id="SVGID_6_" gradientUnits="userSpaceOnUse" x1="894.0635" y1="141.4885" x2="408.9762" y2="-575.597" gradientTransform="matrix(0.7991 -0.6011 0.6011 0.7991 79.0272 792.0454)">
	<stop  offset="0" style="stop-color:#FFFFFF"/>
	<stop  offset="1" style="stop-color:#D8C2AC"/>
</linearGradient>
<path class="st5" d="M115.53,98.14c37.24-28.01,73.7-48.67,100.5-58.27c-2.32-2.62-4.75-5.13-7.29-7.53
	c-28.03,12.77-61.27,32.78-94.91,58.08c-38.44,28.91-70.09,59.25-90.18,84.9c0.81,1.47,1.64,2.93,2.51,4.36
	c1.88-0.41,3.75-0.84,5.61-1.28C48.45,155.33,78.38,126.09,115.53,98.14z"/>
<path class="st6" d="M256.46,38.77c-5.32-7.08-20.05-6.17-40.29,1.06c2.03,2.3,3.99,4.73,5.82,7.31l0,0
	c7.97,10.56,14.21,22.5,18.3,35.39C255.75,62.58,262.31,46.55,256.46,38.77z"/>
<path class="st6" d="M28.42,183.23c-10.19,15.3-13.86,27.4-9.01,33.85c5.37,7.14,20.31,6.16,40.85-1.25
	C47.66,207.13,36.83,196.04,28.42,183.23z"/>
<linearGradient id="SVGID_7_" gradientUnits="userSpaceOnUse" x1="197.8579" y1="353.3233" x2="-12.4427" y2="111.0318">
	<stop  offset="0" style="stop-color:#FFFFFF"/>
	<stop  offset="1" style="stop-color:#D8C2AC"/>
</linearGradient>
<path class="st7" d="M12.94,148.47c-1.49-5.97-2.74-12.76-3.47-20.38C10.04,135.07,11.21,141.88,12.94,148.47z"/>
<linearGradient id="SVGID_8_" gradientUnits="userSpaceOnUse" x1="362.1498" y1="210.7236" x2="151.8492" y2="-31.5679">
	<stop  offset="0" style="stop-color:#FFFFFF"/>
	<stop  offset="1" style="stop-color:#D8C2AC"/>
</linearGradient>
<path class="st8" d="M202.45,26.79c0.13,0.11,0.27,0.22,0.4,0.33C202.72,27.01,202.58,26.9,202.45,26.79z"/>
<linearGradient id="SVGID_9_" gradientUnits="userSpaceOnUse" x1="360.1288" y1="212.4778" x2="149.8282" y2="-29.8137">
	<stop  offset="0" style="stop-color:#FFFFFF"/>
	<stop  offset="1" style="stop-color:#D8C2AC"/>
</linearGradient>
<path class="st9" d="M185.55,15.23c3.85,2.2,9.93,5.99,16.52,11.27C196.91,22.29,191.38,18.52,185.55,15.23z"/>
<linearGradient id="SVGID_10_" gradientUnits="userSpaceOnUse" x1="360.3251" y1="260.3052" x2="191.4552" y2="10.6716">
	<stop  offset="0" style="stop-color:#FFFFFF"/>
	<stop  offset="1" style="stop-color:#D8C2AC"/>
</linearGradient>
<path class="st10" d="M202.07,26.49c0.12,0.1,0.25,0.2,0.37,0.3C202.32,26.69,202.2,26.59,202.07,26.49z"/>
<linearGradient id="SVGID_11_" gradientUnits="userSpaceOnUse" x1="363.9919" y1="257.8248" x2="195.122" y2="8.1911">
	<stop  offset="0" style="stop-color:#FFFFFF"/>
	<stop  offset="1" style="stop-color:#D8C2AC"/>
</linearGradient>
<path class="st11" d="M221.99,47.14c-1.83-2.58-3.79-5.01-5.82-7.31c-0.04,0.02-0.09,0.03-0.13,0.05
	C218.11,42.21,220.1,44.64,221.99,47.14L221.99,47.14z"/>
<linearGradient id="SVGID_12_" gradientUnits="userSpaceOnUse" x1="181.0107" y1="381.6061" x2="12.1409" y2="131.9725">
	<stop  offset="0" style="stop-color:#FFFFFF"/>
	<stop  offset="1" style="stop-color:#D8C2AC"/>
</linearGradient>
<path class="st12" d="M9.46,127.95c0,0.05,0.01,0.09,0.01,0.14C9.47,128.04,9.46,128,9.46,127.95L9.46,127.95z"/>
<linearGradient id="SVGID_13_" gradientUnits="userSpaceOnUse" x1="171.2519" y1="388.2077" x2="2.3821" y2="138.574">
	<stop  offset="0" style="stop-color:#FFFFFF"/>
	<stop  offset="1" style="stop-color:#D8C2AC"/>
</linearGradient>
<path class="st13" d="M12.94,148.47c3.28,13.1,7.75,22.19,10.57,27.05c0.05-0.06,0.1-0.13,0.15-0.19
	C19.05,166.94,15.42,157.94,12.94,148.47z"/>
<linearGradient id="SVGID_14_" gradientUnits="userSpaceOnUse" x1="361.3539" y1="259.6093" x2="192.484" y2="9.9757">
	<stop  offset="0" style="stop-color:#FFFFFF"/>
	<stop  offset="1" style="stop-color:#D8C2AC"/>
</linearGradient>
<path class="st14" d="M208.82,32.31c-2-1.86-4.01-3.58-5.98-5.18c2.02,1.67,3.99,3.42,5.9,5.22
	C208.77,32.33,208.8,32.32,208.82,32.31z"/>
<linearGradient id="SVGID_15_" gradientUnits="userSpaceOnUse" x1="402.199" y1="433.3375" x2="18.1555" y2="-9.1266">
	<stop  offset="0" style="stop-color:#FFFFFF"/>
	<stop  offset="1" style="stop-color:#D8C2AC"/>
</linearGradient>
<path class="st15" d="M202.85,27.12c-0.13-0.11-0.27-0.22-0.4-0.33c-0.12-0.1-0.25-0.2-0.37-0.3c-6.59-5.27-12.68-9.06-16.52-11.27
	c-1.37-0.77-2.75-1.52-4.15-2.24C165.22,4.68,146.88,0,127.44,0C62.07,0,9.07,53,9.07,118.37c0,3.23,0.13,6.42,0.39,9.58
	c0,0.05,0.01,0.09,0.01,0.14c0.73,7.61,1.97,14.41,3.47,20.38c2.48,9.47,6.11,18.47,10.72,26.86c20.09-25.65,51.74-55.99,90.18-84.9
	c33.63-25.3,66.88-45.31,94.91-58.08C206.84,30.54,204.87,28.8,202.85,27.12z"/>
<linearGradient id="SVGID_16_" gradientUnits="userSpaceOnUse" x1="276.5622" y1="285.0107" x2="66.2616" y2="42.7192">
	<stop  offset="0" style="stop-color:#FFFFFF"/>
	<stop  offset="1" style="stop-color:#D8C2AC"/>
</linearGradient>
<path class="st16" d="M31.78,178.4C151.02,149.82,221.93,47.22,221.99,47.14c-1.89-2.5-3.87-4.92-5.95-7.26
	c-26.81,9.6-63.26,30.26-100.5,58.27C78.38,126.09,48.45,155.33,31.78,178.4z"/>
<linearGradient id="SVGID_17_" gradientUnits="userSpaceOnUse" x1="271.7755" y1="289.1653" x2="61.4749" y2="46.8738">
	<stop  offset="0" style="stop-color:#FFFFFF"/>
	<stop  offset="1" style="stop-color:#D8C2AC"/>
</linearGradient>
<path class="st17" d="M244.09,98.14c-0.92-5.33-2.19-10.55-3.8-15.61c-17.22,22.2-45.47,49.24-79.95,75.18
	c-37.04,27.86-73.31,48.46-100.08,58.12c4.05,2.8,8.29,5.35,12.68,7.64c28.4-12.73,62.33-33.04,96.68-58.88
	C199.18,142.35,224.72,119.28,244.09,98.14z"/>
<linearGradient id="SVGID_18_" gradientUnits="userSpaceOnUse" x1="234.2556" y1="252.9372" x2="166.428" y2="160.9853">
	<stop  offset="0" style="stop-color:#FFFFFF"/>
	<stop  offset="1" style="stop-color:#D8C2AC"/>
</linearGradient>
<path class="st18" d="M280.67,23c-8.65-11.49-35.97-7.03-71.84,9.31c2.49,2.31,4.96,4.82,7.34,7.52
	c20.24-7.23,34.97-8.13,40.29-1.06c5.86,7.78-0.7,23.81-16.17,43.76c-17.22,22.2-45.47,49.24-79.95,75.18
	c-37.04,27.86-73.31,48.46-100.08,58.12c-20.54,7.41-35.48,8.39-40.85,1.25c-4.85-6.45-1.18-18.55,9.01-33.85
	c-0.77-1.17-1.52-2.35-2.25-3.55c0,0,0,0,0,0c0,0-1.06-1.4-2.66-4.16C3.6,200.99-4.87,221.82,2.8,232.01
	c8.51,11.31,35.11,7.16,70.14-8.55c28.4-12.73,62.33-33.04,96.68-58.88c29.56-22.23,55.1-45.31,74.46-66.45
	C274.99,64.4,290.14,35.59,280.67,23z"/>
<linearGradient id="SVGID_19_" gradientUnits="userSpaceOnUse" x1="362.9386" y1="258.5373" x2="194.0688" y2="8.9036">
	<stop  offset="0" style="stop-color:#FFFFFF"/>
	<stop  offset="1" style="stop-color:#D8C2AC"/>
</linearGradient>
<path class="st19" d="M216.03,39.87c0.04-0.02,0.09-0.03,0.13-0.05c-2.38-2.7-4.85-5.21-7.34-7.52c-0.03,0.01-0.05,0.02-0.08,0.04
	C211.29,34.74,213.72,37.26,216.03,39.87z"/>
<linearGradient id="SVGID_20_" gradientUnits="userSpaceOnUse" x1="974.4069" y1="87.1385" x2="489.3197" y2="-629.947" gradientTransform="matrix(0.7991 -0.6011 0.6011 0.7991 79.0272 792.0454)">
	<stop  offset="0" style="stop-color:#FFFFFF"/>
	<stop  offset="1" style="stop-color:#D8C2AC"/>
</linearGradient>
<path class="st20" d="M216.03,39.87c0.04-0.02,0.09-0.03,0.13-0.05c-2.38-2.7-4.85-5.21-7.34-7.52c-0.03,0.01-0.05,0.02-0.08,0.04
	C211.29,34.74,213.72,37.26,216.03,39.87z"/>
<linearGradient id="SVGID_21_" gradientUnits="userSpaceOnUse" x1="168.6346" y1="389.9782" x2="-0.2352" y2="140.3446">
	<stop  offset="0" style="stop-color:#FFFFFF"/>
	<stop  offset="1" style="stop-color:#D8C2AC"/>
</linearGradient>
<path class="st21" d="M26.17,179.68c-0.87-1.43-1.7-2.89-2.51-4.36c-0.05,0.06-0.1,0.13-0.15,0.19
	C25.11,178.28,26.17,179.68,26.17,179.68C26.17,179.68,26.17,179.68,26.17,179.68z"/>
<linearGradient id="SVGID_22_" gradientUnits="userSpaceOnUse" x1="274.6437" y1="286.6758" x2="64.3431" y2="44.3843">
	<stop  offset="0" style="stop-color:#FFFFFF"/>
	<stop  offset="1" style="stop-color:#D8C2AC"/>
</linearGradient>
<path class="st22" d="M115.53,98.14c37.24-28.01,73.7-48.67,100.5-58.27c-2.32-2.62-4.75-5.13-7.29-7.53
	c-28.03,12.77-61.27,32.78-94.91,58.08c-38.44,28.91-70.09,59.25-90.18,84.9c0.81,1.47,1.64,2.93,2.51,4.36
	c1.88-0.41,3.75-0.84,5.61-1.28C48.45,155.33,78.38,126.09,115.53,98.14z"/>
<linearGradient id="SVGID_23_" gradientUnits="userSpaceOnUse" x1="186.7766" y1="218.8309" x2="98.1462" y2="69.8898">
	<stop  offset="0" style="stop-color:#FFFFFF"/>
	<stop  offset="0.1138" style="stop-color:#F9F6F2"/>
	<stop  offset="0.4988" style="stop-color:#E7DACC"/>
	<stop  offset="0.8077" style="stop-color:#DCC8B5"/>
	<stop  offset="1" style="stop-color:#D8C2AC"/>
</linearGradient>
<path class="st23" d="M216.03,39.87c-2.32-2.62-4.75-5.13-7.29-7.53c-1.91-1.8-3.87-3.55-5.9-5.22c-0.13-0.11-0.27-0.22-0.4-0.33
	c-0.12-0.1-0.25-0.2-0.37-0.3c-6.59-5.27-12.68-9.06-16.52-11.27c-1.37-0.77-2.75-1.52-4.15-2.24c-0.02-0.01-0.04-0.02-0.04-0.02
	C132.52,88.84,9.35,118.52,9.07,119.39c0,0.05,0.4,8.66,0.4,8.7c0.73,7.61,1.97,14.41,3.47,20.38c2.48,9.47,6.11,18.47,10.72,26.86
	c0.6,1.45,1.64,2.93,2.51,4.36c1.88-0.41,3.75-0.84,5.61-1.28C151.02,149.82,221.93,47.22,221.99,47.14
	C220.1,44.64,218.11,42.21,216.03,39.87z"/>
<linearGradient id="SVGID_24_" gradientUnits="userSpaceOnUse" x1="196.5957" y1="220.4974" x2="128.8379" y2="120.3335">
	<stop  offset="0" style="stop-color:#FFFFFF"/>
	<stop  offset="1" style="stop-color:#D8C2AC"/>
</linearGradient>
<path class="st24" d="M32.22,188.68c56.04-10.28,162.24-78.44,193.53-136.25c0,0,2.93,4.4,3.65,5.79
	C199.33,120.88,74.37,190.3,37.51,195.33L32.22,188.68z"/>
<linearGradient id="SVGID_25_" gradientUnits="userSpaceOnUse" x1="248.6696" y1="276.925" x2="140.6348" y2="137.7735">
	<stop  offset="0" style="stop-color:#FFFFFF"/>
	<stop  offset="0.1881" style="stop-color:#FCFAF8"/>
	<stop  offset="0.4526" style="stop-color:#F3EDE6"/>
	<stop  offset="0.7609" style="stop-color:#E5D7C8"/>
	<stop  offset="1" style="stop-color:#D8C2AC"/>
</linearGradient>
<path class="st25" d="M244.09,98.14c-19.36,21.14-44.9,44.21-74.46,66.45c-34.35,25.84-68.29,46.15-96.68,58.88
	c16.31,8.48,34.85,13.27,54.5,13.27c3.81,0,7.58-0.19,11.29-0.54c5.93-0.56,11.74-1.56,17.38-2.97
	c38.19-9.5,69.04-37.54,82.45-74.02c1.6-4.35,2.94-8.82,4.03-13.39c2.09-8.81,3.21-18.01,3.21-27.46
	C245.82,111.47,245.22,104.71,244.09,98.14z"/>
</svg>
