<?xml version="1.0" encoding="utf-8"?>
<!-- Generator: Adobe Illustrator 24.3.0, SVG Export Plug-In . SVG Version: 6.00 Build 0)  -->
<svg version="1.1" id="Calque_1" xmlns="http://www.w3.org/2000/svg" xmlns:xlink="http://www.w3.org/1999/xlink" x="0px" y="0px"
	 viewBox="0 0 283.46 283.46" style="enable-background:new 0 0 283.46 283.46;" xml:space="preserve">
<style type="text/css">
	.st0{fill:url(#SVGID_1_);}
	.st1{fill:url(#SVGID_2_);}
	.st2{fill:url(#SVGID_3_);}
	.st3{fill:url(#SVGID_4_);}
	.st4{fill:url(#SVGID_5_);}
	.st5{fill:url(#SVGID_6_);}
	.st6{fill:url(#SVGID_7_);}
	.st7{fill:url(#SVGID_8_);}
	.st8{fill:url(#SVGID_9_);}
	.st9{fill:url(#SVGID_10_);}
	.st10{fill:url(#SVGID_11_);}
	.st11{fill:url(#SVGID_12_);}
	.st12{fill:url(#SVGID_13_);}
	.st13{fill:url(#SVGID_14_);}
	.st14{fill:url(#SVGID_15_);}
	.st15{fill:url(#SVGID_16_);}
	.st16{fill:url(#SVGID_17_);}
	.st17{fill:url(#SVGID_18_);}
	.st18{fill:url(#SVGID_19_);}
	.st19{fill:url(#SVGID_20_);}
	.st20{fill:url(#SVGID_21_);}
	.st21{fill:url(#SVGID_22_);}
	.st22{fill:url(#SVGID_23_);}
	.st23{fill:url(#SVGID_24_);}
	.st24{fill:url(#SVGID_25_);}
	.st25{fill:url(#SVGID_26_);}
	.st26{fill:url(#SVGID_27_);}
	.st27{fill:url(#SVGID_28_);}
	.st28{fill:url(#SVGID_29_);}
	.st29{fill:url(#SVGID_30_);}
</style>
<linearGradient id="SVGID_1_" gradientUnits="userSpaceOnUse" x1="123.1255" y1="443.4266" x2="169.8961" y2="-221.6508">
	<stop  offset="0.2868" style="stop-color:#7F8AC4"/>
	<stop  offset="1" style="stop-color:#3F9ABF"/>
</linearGradient>
<path class="st0" d="M145.66,130.47C59.34,136.73,2.94,162.21,2.54,162.39c2.35,16.07,7.4,31.26,14.67,45.11
	c25.1-14.97,105.3-53.83,210.46-15.54c13.79,4.7,26.38,10.63,39.63,17.46c8.55-15.69,14.19-33.19,16.27-51.76
	C283.01,157.29,231.8,124.22,145.66,130.47z"/>
<linearGradient id="SVGID_2_" gradientUnits="userSpaceOnUse" x1="126.8258" y1="443.6869" x2="173.5964" y2="-221.3906">
	<stop  offset="0.2868" style="stop-color:#7F8AC4"/>
	<stop  offset="1" style="stop-color:#3F9ABF"/>
</linearGradient>
<path class="st1" d="M34.66,233.36c8.24,9.71,17.76,18.31,28.31,25.52c15.29-8.03,46.32-20.93,85.42-18.95
	c34.76,1.77,58.94,12.28,72.39,20.11c10.19-6.74,19.47-14.75,27.59-23.82c-16.65-9.48-47.64-21.56-100.01-24.21
	C92.12,209.15,54.61,222.88,34.66,233.36z"/>
<linearGradient id="SVGID_3_" gradientUnits="userSpaceOnUse" x1="120.068" y1="443.2116" x2="166.8385" y2="-221.8658">
	<stop  offset="0.2868" style="stop-color:#7F8AC4"/>
	<stop  offset="1" style="stop-color:#3F9ABF"/>
</linearGradient>
<path class="st2" d="M283.15,122.52c-1.5-11.07-4.28-21.74-8.18-31.84c-19.82,0-142.55-44.99-267.73,9.47
	c-2.68,8.74-4.55,17.84-5.49,27.21c0-0.01,0-0.03,0.01-0.04C1.75,127.31,140.91,70.78,283.15,122.52z"/>
<linearGradient id="SVGID_4_" gradientUnits="userSpaceOnUse" x1="121.4782" y1="443.3108" x2="168.2487" y2="-221.7666">
	<stop  offset="0.2868" style="stop-color:#7F8AC4"/>
	<stop  offset="1" style="stop-color:#3F9ABF"/>
</linearGradient>
<path class="st3" d="M283.57,157.66c0.01-0.06,0.02-0.13,0.02-0.19l-0.4-34.59c-0.02-0.12-0.03-0.24-0.05-0.36
	c-142.25-51.74-281.4,4.79-281.4,4.79c0,0.01,0,0.03-0.01,0.04c-0.48,4.73-0.72,9.52-0.72,14.38c0,7.02,0.53,13.91,1.52,20.66
	c0.4-0.18,56.8-25.66,143.12-31.92C231.8,124.22,283.01,157.29,283.57,157.66z"/>
<linearGradient id="SVGID_5_" gradientUnits="userSpaceOnUse" x1="128.9111" y1="443.8335" x2="175.6817" y2="-221.244">
	<stop  offset="0.2868" style="stop-color:#7F8AC4"/>
	<stop  offset="1" style="stop-color:#3F9ABF"/>
</linearGradient>
<path class="st4" d="M62.97,258.88c22.73,15.51,50.19,24.59,79.78,24.59c28.84,0,55.64-8.63,78.03-23.42
	c-13.44-7.82-37.63-18.34-72.39-20.11C109.3,237.94,78.27,250.85,62.97,258.88z"/>
<linearGradient id="SVGID_6_" gradientUnits="userSpaceOnUse" x1="112.4736" y1="482.262" x2="162.3384" y2="104.4134">
	<stop  offset="0" style="stop-color:#FFFFFF"/>
	<stop  offset="0.1114" style="stop-color:#E4E7F3"/>
	<stop  offset="0.2898" style="stop-color:#C0C5E2"/>
	<stop  offset="0.4692" style="stop-color:#A4ABD5"/>
	<stop  offset="0.6478" style="stop-color:#8F99CB"/>
	<stop  offset="0.8251" style="stop-color:#838EC6"/>
	<stop  offset="1" style="stop-color:#7F8AC4"/>
</linearGradient>
<path class="st5" d="M62.97,258.88c22.73,15.51,50.19,24.59,79.78,24.59c28.84,0,55.64-8.63,78.03-23.42
	c-13.44-7.82-37.63-18.34-72.39-20.11C109.3,237.94,78.27,250.85,62.97,258.88z"/>
<linearGradient id="SVGID_7_" gradientUnits="userSpaceOnUse" x1="125.7765" y1="443.6131" x2="172.5471" y2="-221.4644">
	<stop  offset="0.2868" style="stop-color:#7F8AC4"/>
	<stop  offset="1" style="stop-color:#3F9ABF"/>
</linearGradient>
<path class="st6" d="M17.58,208.22c4.79,9.01,10.54,17.43,17.08,25.14c19.95-10.48,57.45-24.21,113.7-21.35
	c52.36,2.66,83.35,14.73,100.01,24.21c7.14-7.97,13.38-16.75,18.59-26.19C237.45,197.1,123.4,154.09,17.58,208.22z"/>
<linearGradient id="SVGID_8_" gradientUnits="userSpaceOnUse" x1="138.666" y1="290.1365" x2="146.2062" y2="120.4809">
	<stop  offset="0" style="stop-color:#FFFFFF"/>
	<stop  offset="0.1114" style="stop-color:#E4E7F3"/>
	<stop  offset="0.2898" style="stop-color:#C0C5E2"/>
	<stop  offset="0.4692" style="stop-color:#A4ABD5"/>
	<stop  offset="0.6478" style="stop-color:#8F99CB"/>
	<stop  offset="0.8251" style="stop-color:#838EC6"/>
	<stop  offset="1" style="stop-color:#7F8AC4"/>
</linearGradient>
<path class="st7" d="M17.58,208.22c4.79,9.01,10.54,17.43,17.08,25.14c19.95-10.48,57.45-24.21,113.7-21.35
	c52.36,2.66,83.35,14.73,100.01,24.21c7.14-7.97,13.38-16.75,18.59-26.19C237.45,197.1,123.4,154.09,17.58,208.22z"/>
<linearGradient id="SVGID_9_" gradientUnits="userSpaceOnUse" x1="229.8927" y1="450.9349" x2="276.6633" y2="-214.1426">
	<stop  offset="0.2868" style="stop-color:#7F8AC4"/>
	<stop  offset="1" style="stop-color:#3F9ABF"/>
</linearGradient>
<path class="st8" d="M267.21,209.58c0.03-0.05,0.06-0.11,0.09-0.16c-13.25-6.83-25.84-12.76-39.63-17.46
	C240.5,196.63,253.7,202.43,267.21,209.58z"/>
<linearGradient id="SVGID_10_" gradientUnits="userSpaceOnUse" x1="105.3928" y1="442.1796" x2="152.1634" y2="-222.8978">
	<stop  offset="0.2868" style="stop-color:#7F8AC4"/>
	<stop  offset="1" style="stop-color:#3F9ABF"/>
</linearGradient>
<path class="st9" d="M129.56,180.67c44.18-1.68,73.14,2.78,98.11,11.29c-105.16-38.29-185.36,0.57-210.46,15.54
	c0.02,0.04,0.04,0.08,0.06,0.12C35.73,197.53,71.19,182.89,129.56,180.67z"/>
<linearGradient id="SVGID_11_" gradientUnits="userSpaceOnUse" x1="125.7156" y1="443.6088" x2="172.4862" y2="-221.4686">
	<stop  offset="0.2868" style="stop-color:#7F8AC4"/>
	<stop  offset="1" style="stop-color:#3F9ABF"/>
</linearGradient>
<path class="st10" d="M129.56,180.67c-58.37,2.22-93.83,16.86-112.29,26.94c0.11,0.2,0.2,0.4,0.31,0.6
	c105.82-54.13,219.87-11.11,249.37,1.82c0.08-0.15,0.18-0.3,0.26-0.45c-13.52-7.15-26.71-12.95-39.54-17.62
	C202.7,183.45,173.75,178.99,129.56,180.67z"/>
<linearGradient id="SVGID_12_" gradientUnits="userSpaceOnUse" x1="138.6185" y1="290.1344" x2="146.1588" y2="120.4788">
	<stop  offset="0" style="stop-color:#FFFFFF"/>
	<stop  offset="0.1114" style="stop-color:#E4E7F3"/>
	<stop  offset="0.2898" style="stop-color:#C0C5E2"/>
	<stop  offset="0.4692" style="stop-color:#A4ABD5"/>
	<stop  offset="0.6478" style="stop-color:#8F99CB"/>
	<stop  offset="0.8251" style="stop-color:#838EC6"/>
	<stop  offset="1" style="stop-color:#7F8AC4"/>
</linearGradient>
<path class="st11" d="M129.56,180.67c-58.37,2.22-93.83,16.86-112.29,26.94c0.11,0.2,0.2,0.4,0.31,0.6
	c105.82-54.13,219.87-11.11,249.37,1.82c0.08-0.15,0.18-0.3,0.26-0.45c-13.52-7.15-26.71-12.95-39.54-17.62
	C202.7,183.45,173.75,178.99,129.56,180.67z"/>
<linearGradient id="SVGID_13_" gradientUnits="userSpaceOnUse" x1="138.5703" y1="260.3317" x2="147.0585" y2="139.6282">
	<stop  offset="0.2868" style="stop-color:#7F8AC4"/>
	<stop  offset="1" style="stop-color:#3F9ABF"/>
</linearGradient>
<path class="st12" d="M227.67,191.96c-105.16-38.29-185.36,0.57-210.46,15.54c0.02,0.04,0.04,0.08,0.06,0.12
	c0.11,0.2,0.2,0.4,0.31,0.6c105.82-54.13,219.87-11.11,249.37,1.82c0.08-0.15,0.18-0.3,0.26-0.45
	C253.7,202.43,240.5,196.63,227.67,191.96z"/>
<linearGradient id="SVGID_14_" gradientUnits="userSpaceOnUse" x1="117.0302" y1="442.9979" x2="163.8008" y2="-222.0794">
	<stop  offset="0.2868" style="stop-color:#7F8AC4"/>
	<stop  offset="1" style="stop-color:#3F9ABF"/>
</linearGradient>
<path class="st13" d="M81.92,13.82c-0.08,0.04-0.14,0.07-0.14,0.07s70.44-11.13,130.48,5.25c0,0-0.79-0.52-2.25-1.38
	C153.11,3.12,87.45,12.95,81.92,13.82z"/>
<linearGradient id="SVGID_15_" gradientUnits="userSpaceOnUse" x1="117.1586" y1="443.007" x2="163.9292" y2="-222.0704">
	<stop  offset="0.2868" style="stop-color:#7F8AC4"/>
	<stop  offset="1" style="stop-color:#3F9ABF"/>
</linearGradient>
<path class="st14" d="M147.02,0.51C178.76,1,202.8,13.54,210.01,17.76c0.91,0.24,1.83,0.48,2.74,0.72C192.1,6.72,168.22,0,142.75,0
	c-21.91,0-42.64,4.99-61.15,13.87c0.06-0.01,0.17-0.03,0.32-0.05C83.96,12.8,110.35-0.06,147.02,0.51z"/>
<linearGradient id="SVGID_16_" gradientUnits="userSpaceOnUse" x1="144.5602" y1="59.7538" x2="150.748" y2="-43.3774">
	<stop  offset="0" style="stop-color:#FFFFFF"/>
	<stop  offset="0.1114" style="stop-color:#E4E7F3"/>
	<stop  offset="0.2898" style="stop-color:#C0C5E2"/>
	<stop  offset="0.4692" style="stop-color:#A4ABD5"/>
	<stop  offset="0.6478" style="stop-color:#8F99CB"/>
	<stop  offset="0.8251" style="stop-color:#838EC6"/>
	<stop  offset="1" style="stop-color:#7F8AC4"/>
</linearGradient>
<path class="st15" d="M147.02,0.51C178.76,1,202.8,13.54,210.01,17.76c0.91,0.24,1.83,0.48,2.74,0.72C192.1,6.72,168.22,0,142.75,0
	c-21.91,0-42.64,4.99-61.15,13.87c0.06-0.01,0.17-0.03,0.32-0.05C83.96,12.8,110.35-0.06,147.02,0.51z"/>
<linearGradient id="SVGID_17_" gradientUnits="userSpaceOnUse" x1="115.9294" y1="442.9205" x2="162.6999" y2="-222.1569">
	<stop  offset="0.2868" style="stop-color:#7F8AC4"/>
	<stop  offset="1" style="stop-color:#3F9ABF"/>
</linearGradient>
<path class="st16" d="M81.92,13.82c5.53-0.87,71.19-10.7,128.09,3.94C202.8,13.54,178.76,1,147.02,0.51
	C110.35-0.06,83.96,12.8,81.92,13.82z"/>
<linearGradient id="SVGID_18_" gradientUnits="userSpaceOnUse" x1="116.6609" y1="442.972" x2="163.4314" y2="-222.1054">
	<stop  offset="0.2868" style="stop-color:#7F8AC4"/>
	<stop  offset="1" style="stop-color:#3F9ABF"/>
</linearGradient>
<path class="st17" d="M274.97,90.67c-4.23-10.95-9.78-21.24-16.46-30.68C132.24,27.91,22.71,69.33,20.41,70.21
	c-5.48,9.35-9.94,19.37-13.17,29.94C132.42,45.68,255.15,90.68,274.97,90.67z"/>
<linearGradient id="SVGID_19_" gradientUnits="userSpaceOnUse" x1="124.4478" y1="274.4947" x2="159.6126" y2="58.1682">
	<stop  offset="0.2868" style="stop-color:#7F8AC4"/>
	<stop  offset="1" style="stop-color:#3F9ABF"/>
</linearGradient>
<path class="st18" d="M2.54,162.39c0,0,154.05-63.86,281.03-4.73C283.57,157.66,180.66,89.82,2.54,162.39z"/>
<g>
	<linearGradient id="SVGID_20_" gradientUnits="userSpaceOnUse" x1="112.6734" y1="442.6916" x2="159.444" y2="-222.3858">
		<stop  offset="0.2868" style="stop-color:#7F8AC4"/>
		<stop  offset="1" style="stop-color:#3F9ABF"/>
	</linearGradient>
	<path class="st19" d="M257.85,59.09c-11.91-16.56-27.3-30.46-45.1-40.6c-0.91-0.25-1.82-0.49-2.74-0.72
		c1.46,0.86,2.25,1.38,2.25,1.38C152.22,2.76,81.78,13.89,81.78,13.89s0.06-0.03,0.14-0.07c-0.15,0.02-0.26,0.04-0.32,0.05
		C56.19,26.06,34.98,45.59,20.7,69.73C140.75,26.98,222.69,45.93,257.85,59.09z"/>
	<linearGradient id="SVGID_21_" gradientUnits="userSpaceOnUse" x1="157.2024" y1="445.823" x2="203.973" y2="-219.2544">
		<stop  offset="0.2868" style="stop-color:#7F8AC4"/>
		<stop  offset="1" style="stop-color:#3F9ABF"/>
	</linearGradient>
	<path class="st20" d="M159.57,47.83c16.2,0.02,33.3,0.96,51.02,3.16C193.28,48.65,176.15,47.73,159.57,47.83z"/>
	<linearGradient id="SVGID_22_" gradientUnits="userSpaceOnUse" x1="131.9332" y1="248.2347" x2="152.6015" y2="-96.2375">
		<stop  offset="0" style="stop-color:#FFFFFF"/>
		<stop  offset="0.1114" style="stop-color:#E4E7F3"/>
		<stop  offset="0.2898" style="stop-color:#C0C5E2"/>
		<stop  offset="0.4692" style="stop-color:#A4ABD5"/>
		<stop  offset="0.6478" style="stop-color:#8F99CB"/>
		<stop  offset="0.8251" style="stop-color:#838EC6"/>
		<stop  offset="1" style="stop-color:#7F8AC4"/>
	</linearGradient>
	<path class="st21" d="M210.59,51c-17.72-2.21-34.82-3.14-51.02-3.16C99.88,48.2,47.42,61.87,20.26,70.47
		c-5.41,9.28-9.82,19.21-13.02,29.67c125.19-54.46,247.32-18.07,267.73-9.47c-3.97-10.27-9.11-19.95-15.24-28.9
		C243.41,56.7,226.93,53.21,210.59,51z"/>
	<linearGradient id="SVGID_23_" gradientUnits="userSpaceOnUse" x1="112.9025" y1="442.7077" x2="159.673" y2="-222.3697">
		<stop  offset="0.2868" style="stop-color:#7F8AC4"/>
		<stop  offset="1" style="stop-color:#3F9ABF"/>
	</linearGradient>
	<path class="st22" d="M159.57,47.83c16.58-0.1,33.71,0.82,51.02,3.16c15.56,1.94,31.6,4.85,47.92,8.99c-0.22-0.3-0.44-0.6-0.66-0.9
		C222.69,45.93,140.75,26.98,20.7,69.73c-0.1,0.16-0.2,0.32-0.3,0.48C22.08,69.57,79.9,47.71,159.57,47.83z"/>
	<linearGradient id="SVGID_24_" gradientUnits="userSpaceOnUse" x1="131.8629" y1="114.4029" x2="145.3004" y2="27.1655">
		<stop  offset="0.2868" style="stop-color:#7F8AC4"/>
		<stop  offset="1" style="stop-color:#3F9ABF"/>
	</linearGradient>
	<path class="st23" d="M159.57,47.83c16.58-0.1,33.71,0.82,51.02,3.16c15.56,1.94,31.6,4.85,47.92,8.99c-0.22-0.3-0.44-0.6-0.66-0.9
		C222.69,45.93,140.75,26.98,20.7,69.73c-0.1,0.16-0.2,0.32-0.3,0.48C22.08,69.57,79.9,47.71,159.57,47.83z"/>
	<linearGradient id="SVGID_25_" gradientUnits="userSpaceOnUse" x1="78.7606" y1="245.0444" x2="99.4289" y2="-99.4279">
		<stop  offset="0" style="stop-color:#FFFFFF"/>
		<stop  offset="0.1114" style="stop-color:#E4E7F3"/>
		<stop  offset="0.2898" style="stop-color:#C0C5E2"/>
		<stop  offset="0.4692" style="stop-color:#A4ABD5"/>
		<stop  offset="0.6478" style="stop-color:#8F99CB"/>
		<stop  offset="0.8251" style="stop-color:#838EC6"/>
		<stop  offset="1" style="stop-color:#7F8AC4"/>
	</linearGradient>
	<path class="st24" d="M20.41,70.21c-0.05,0.09-0.1,0.18-0.15,0.26c27.16-8.6,79.62-22.27,139.31-22.64
		C79.9,47.71,22.08,69.57,20.41,70.21z"/>
	<linearGradient id="SVGID_26_" gradientUnits="userSpaceOnUse" x1="82.5732" y1="106.8106" x2="96.0107" y2="19.5732">
		<stop  offset="0.2868" style="stop-color:#7F8AC4"/>
		<stop  offset="1" style="stop-color:#3F9ABF"/>
	</linearGradient>
	<path class="st25" d="M20.41,70.21c-0.05,0.09-0.1,0.18-0.15,0.26c27.16-8.6,79.62-22.27,139.31-22.64
		C79.9,47.71,22.08,69.57,20.41,70.21z"/>
	<linearGradient id="SVGID_27_" gradientUnits="userSpaceOnUse" x1="223.3193" y1="253.7179" x2="243.9876" y2="-90.7544">
		<stop  offset="0" style="stop-color:#FFFFFF"/>
		<stop  offset="0.1114" style="stop-color:#E4E7F3"/>
		<stop  offset="0.2898" style="stop-color:#C0C5E2"/>
		<stop  offset="0.4692" style="stop-color:#A4ABD5"/>
		<stop  offset="0.6478" style="stop-color:#8F99CB"/>
		<stop  offset="0.8251" style="stop-color:#838EC6"/>
		<stop  offset="1" style="stop-color:#7F8AC4"/>
	</linearGradient>
	<path class="st26" d="M210.59,51c16.34,2.22,32.82,5.7,49.14,10.78c-0.41-0.6-0.81-1.2-1.22-1.79
		C242.19,55.85,226.15,52.93,210.59,51z"/>
	<linearGradient id="SVGID_28_" gradientUnits="userSpaceOnUse" x1="224.0358" y1="128.6007" x2="237.4734" y2="41.3633">
		<stop  offset="0.2868" style="stop-color:#7F8AC4"/>
		<stop  offset="1" style="stop-color:#3F9ABF"/>
	</linearGradient>
	<path class="st27" d="M210.59,51c16.34,2.22,32.82,5.7,49.14,10.78c-0.41-0.6-0.81-1.2-1.22-1.79
		C242.19,55.85,226.15,52.93,210.59,51z"/>
</g>
<g>
	
		<linearGradient id="SVGID_29_" gradientUnits="userSpaceOnUse" x1="1282.8727" y1="166.1434" x2="1332.7374" y2="-211.7052" gradientTransform="matrix(-1 0 0 -1 1455.787 -32.654)">
		<stop  offset="0" style="stop-color:#FFFFFF"/>
		<stop  offset="0.1114" style="stop-color:#E4E7F3"/>
		<stop  offset="0.2898" style="stop-color:#C0C5E2"/>
		<stop  offset="0.4692" style="stop-color:#A4ABD5"/>
		<stop  offset="0.6478" style="stop-color:#8F99CB"/>
		<stop  offset="0.8251" style="stop-color:#838EC6"/>
		<stop  offset="1" style="stop-color:#7F8AC4"/>
	</linearGradient>
	<path class="st28" d="M222.41,24.59C199.69,9.08,172.22,0,142.63,0C113.8,0,86.99,8.63,64.61,23.42
		C64.61,23.42,137.22-0.93,222.41,24.59z"/>
</g>
<linearGradient id="SVGID_30_" gradientUnits="userSpaceOnUse" x1="91.2403" y1="312.5747" x2="228.9345" y2="-142.8753">
	<stop  offset="0" style="stop-color:#FFFFFF"/>
	<stop  offset="0.1114" style="stop-color:#E4E7F3"/>
	<stop  offset="0.2898" style="stop-color:#C0C5E2"/>
	<stop  offset="0.4692" style="stop-color:#A4ABD5"/>
	<stop  offset="0.6478" style="stop-color:#8F99CB"/>
	<stop  offset="0.8251" style="stop-color:#838EC6"/>
	<stop  offset="1" style="stop-color:#7F8AC4"/>
</linearGradient>
<path class="st29" d="M283.15,122.52c-142.25-51.74-281.4,4.79-281.4,4.79c0,0.01,0,0.03-0.01,0.04c-0.48,4.73-0.72,9.52-0.72,14.38
	c0,7.02,0.53,13.91,1.52,20.66c0.4-0.18,56.8-25.66,143.12-31.92c86.14-6.25,137.35,26.82,137.92,27.19
	c0.01-0.06,0.02-0.13,0.02-0.19l0-0.3C283.89,149.81,283.58,122.42,283.15,122.52z"/>
</svg>
