<?xml version="1.0" encoding="utf-8"?>
<!-- Generator: Adobe Illustrator 24.3.0, SVG Export Plug-In . SVG Version: 6.00 Build 0)  -->
<svg version="1.1" id="Calque_1" xmlns="http://www.w3.org/2000/svg" xmlns:xlink="http://www.w3.org/1999/xlink" x="0px" y="0px"
	 viewBox="0 0 283.46 214.99" style="enable-background:new 0 0 283.46 214.99;" xml:space="preserve">
<style type="text/css">
	.st0{fill:url(#SVGID_1_);}
	.st1{fill:none;}
	.st2{fill:url(#SVGID_2_);}
	.st3{fill:url(#SVGID_3_);}
	.st4{fill:url(#SVGID_4_);}
	.st5{fill:url(#SVGID_5_);}
	.st6{fill:url(#SVGID_6_);}
	.st7{fill:url(#SVGID_7_);}
	.st8{fill:url(#SVGID_8_);}
	.st9{fill:url(#SVGID_9_);}
	.st10{fill:url(#SVGID_10_);}
	.st11{fill:url(#SVGID_11_);}
	.st12{fill:url(#SVGID_12_);}
	.st13{fill:url(#SVGID_13_);}
	.st14{fill:url(#SVGID_14_);}
	.st15{fill:url(#SVGID_15_);}
	.st16{fill:url(#SVGID_16_);}
	.st17{fill:url(#SVGID_17_);}
	.st18{fill:url(#SVGID_18_);}
	.st19{fill:url(#SVGID_19_);}
	.st20{fill:url(#SVGID_20_);}
	.st21{fill:url(#SVGID_21_);}
	.st22{fill:url(#SVGID_22_);}
	.st23{fill:url(#SVGID_23_);}
	.st24{fill:url(#SVGID_24_);}
</style>
<linearGradient id="SVGID_1_" gradientUnits="userSpaceOnUse" x1="159.7298" y1="44.5952" x2="159.7298" y2="44.5952">
	<stop  offset="0" style="stop-color:#FFFFFF"/>
	<stop  offset="0.0417" style="stop-color:#DAECF3"/>
	<stop  offset="0.0917" style="stop-color:#B6D9E7"/>
	<stop  offset="0.1478" style="stop-color:#96C8DC"/>
	<stop  offset="0.2099" style="stop-color:#7AB9D3"/>
	<stop  offset="0.2801" style="stop-color:#64AECB"/>
	<stop  offset="0.3621" style="stop-color:#53A5C6"/>
	<stop  offset="0.4634" style="stop-color:#489FC2"/>
	<stop  offset="0.6055" style="stop-color:#419BC0"/>
	<stop  offset="1" style="stop-color:#3F9ABF"/>
</linearGradient>
<path class="st0" d="M159.73,44.6"/>
<path class="st1" d="M30.63,118.97c0.05,0.51,0.1,1.02,0.17,1.53C30.74,120,30.68,119.49,30.63,118.97z"/>
<path class="st1" d="M30.08,111.13c0.03,0.77,0.07,1.53,0.11,2.29C30.15,112.66,30.1,111.89,30.08,111.13z"/>
<path class="st1" d="M30.28,114.94c0.05,0.66,0.1,1.33,0.16,1.99C30.37,116.26,30.32,115.6,30.28,114.94z"/>
<path class="st1" d="M245,107.5c0,6.24-0.54,12.36-1.56,18.3c9.25-4.19,14.51-9.01,14.51-14.12c0-3.68-2.72-7.2-7.69-10.45
	c-1.74,1.2-3.52,2.35-5.33,3.45C244.96,105.62,245,106.55,245,107.5z"/>
<path class="st1" d="M30.63,118.97c-0.07-0.68-0.14-1.36-0.2-2.05c-0.06-0.66-0.11-1.32-0.16-1.99c-0.03-0.5-0.06-1.01-0.09-1.52
	c-0.04-0.76-0.08-1.53-0.11-2.29c0,0,0,0,0,0c-0.04-1.21-0.07-2.42-0.07-3.63c0-2.6,0.1-5.18,0.28-7.74
	c-6.51,3.65-10.14,7.68-10.14,11.92c0,4.46,4,8.68,11.14,12.47c-0.19-1.21-0.35-2.42-0.5-3.64C30.73,120,30.68,119.49,30.63,118.97z
	"/>
<linearGradient id="SVGID_2_" gradientUnits="userSpaceOnUse" x1="-10.9374" y1="420.4062" x2="255.537" y2="-474.9479">
	<stop  offset="0" style="stop-color:#FFFFFF"/>
	<stop  offset="0.0407" style="stop-color:#DBECF3"/>
	<stop  offset="0.0907" style="stop-color:#B7D9E7"/>
	<stop  offset="0.1469" style="stop-color:#97C8DC"/>
	<stop  offset="0.2091" style="stop-color:#7BB9D3"/>
	<stop  offset="0.2794" style="stop-color:#65AECC"/>
	<stop  offset="0.3614" style="stop-color:#54A5C6"/>
	<stop  offset="0.4628" style="stop-color:#499FC2"/>
	<stop  offset="0.6051" style="stop-color:#429BC0"/>
	<stop  offset="1" style="stop-color:#409ABF"/>
</linearGradient>
<path class="st2" d="M43.02,63.42c2.85-1.84,6.23-2.85,9.56-3.39c4.66-0.76,9.41-0.67,14.11-1.03c11.13-0.86,22.05-4.27,31.68-9.91
	c9.67-5.66,18.12-13.56,28.62-17.46c5-1.86,10.31-2.75,15.41-4.33c5.1-1.58,10.16-4.01,13.47-8.2c1.56-1.97,2.68-4.27,4.29-6.2
	c2.59-3.08,6.33-5.09,8.86-8.19C159.05,1.66,148.47,0,137.5,0C92.74,0,54.38,27.37,38.21,66.29C39.5,66.95,41.95,64.11,43.02,63.42z
	"/>
<linearGradient id="SVGID_3_" gradientUnits="userSpaceOnUse" x1="89.8205" y1="184.0222" x2="116.8086" y2="-106.4958">
	<stop  offset="0" style="stop-color:#FFFFFF"/>
	<stop  offset="0.0407" style="stop-color:#DBECF3"/>
	<stop  offset="0.0907" style="stop-color:#B7D9E7"/>
	<stop  offset="0.1469" style="stop-color:#97C8DC"/>
	<stop  offset="0.2091" style="stop-color:#7BB9D3"/>
	<stop  offset="0.2794" style="stop-color:#65AECC"/>
	<stop  offset="0.3614" style="stop-color:#54A5C6"/>
	<stop  offset="0.4628" style="stop-color:#499FC2"/>
	<stop  offset="0.6051" style="stop-color:#429BC0"/>
	<stop  offset="1" style="stop-color:#409ABF"/>
</linearGradient>
<path class="st3" d="M43.02,63.42c2.85-1.84,6.23-2.85,9.56-3.39c4.66-0.76,9.41-0.67,14.11-1.03c11.13-0.86,22.05-4.27,31.68-9.91
	c9.67-5.66,18.12-13.56,28.62-17.46c5-1.86,10.31-2.75,15.41-4.33c5.1-1.58,10.16-4.01,13.47-8.2c1.56-1.97,2.68-4.27,4.29-6.2
	c2.59-3.08,6.33-5.09,8.86-8.19C159.05,1.66,148.47,0,137.5,0C92.74,0,54.38,27.37,38.21,66.29C39.5,66.95,41.95,64.11,43.02,63.42z
	"/>
<linearGradient id="SVGID_4_" gradientUnits="userSpaceOnUse" x1="0.2524" y1="423.7365" x2="266.7268" y2="-471.6176">
	<stop  offset="0" style="stop-color:#FFFFFF"/>
	<stop  offset="0.0407" style="stop-color:#DBECF3"/>
	<stop  offset="0.0907" style="stop-color:#B7D9E7"/>
	<stop  offset="0.1469" style="stop-color:#97C8DC"/>
	<stop  offset="0.2091" style="stop-color:#7BB9D3"/>
	<stop  offset="0.2794" style="stop-color:#65AECC"/>
	<stop  offset="0.3614" style="stop-color:#54A5C6"/>
	<stop  offset="0.4628" style="stop-color:#499FC2"/>
	<stop  offset="0.6051" style="stop-color:#429BC0"/>
	<stop  offset="1" style="stop-color:#409ABF"/>
</linearGradient>
<path class="st4" d="M48.44,79.54c9.21,1.56,18.89,0.23,27.34-3.76c5.23-2.47,9.96-5.9,15.16-8.42c9.88-4.78,21.21-6.13,30.85-11.38
	c7.65-4.16,13.86-10.59,21.41-14.93c6.58-3.78,13.99-5.89,20.69-9.43c9.51-5.03,17.53-12.9,27.23-17.28
	c-6.92-3.99-14.32-7.25-22.11-9.63c-2.53,3.1-6.27,5.1-8.86,8.19c-1.62,1.92-2.73,4.22-4.29,6.2c-3.31,4.19-8.37,6.61-13.47,8.2
	c-5.1,1.58-10.41,2.47-15.41,4.33c-10.5,3.9-18.96,11.8-28.62,17.46c-9.63,5.64-20.55,9.06-31.68,9.91
	c-4.71,0.36-9.46,0.27-14.11,1.03c-3.33,0.54-6.71,1.55-9.56,3.39c-1.07,0.69-3.52,3.53-4.81,2.87c-1.95,4.69-3.57,9.54-4.85,14.53
	c0.07-0.06,0.12-0.13,0.19-0.19C37.4,77.18,43.34,78.68,48.44,79.54z"/>
<linearGradient id="SVGID_5_" gradientUnits="userSpaceOnUse" x1="24.9575" y1="449.0699" x2="301.9915" y2="-481.7643">
	<stop  offset="0" style="stop-color:#FFFFFF"/>
	<stop  offset="0.0407" style="stop-color:#DBECF3"/>
	<stop  offset="0.0907" style="stop-color:#B7D9E7"/>
	<stop  offset="0.1469" style="stop-color:#97C8DC"/>
	<stop  offset="0.2091" style="stop-color:#7BB9D3"/>
	<stop  offset="0.2794" style="stop-color:#65AECC"/>
	<stop  offset="0.3614" style="stop-color:#54A5C6"/>
	<stop  offset="0.4628" style="stop-color:#499FC2"/>
	<stop  offset="0.6051" style="stop-color:#429BC0"/>
	<stop  offset="1" style="stop-color:#409ABF"/>
</linearGradient>
<path class="st5" d="M216.14,34.24c-0.79,0.41-1.58,0.82-2.36,1.23c-4.5,2.35-9.06,4.73-12.88,8.08c-3.22,2.82-5.87,6.27-9.22,8.94
	c-5.33,4.25-12.07,6.25-18.06,9.52c-9.31,5.09-16.71,13.21-26.1,18.14c-8.38,4.4-17.9,6.05-26.81,9.22
	c-16.74,5.95-32.01,17.47-49.76,18.17c-3.97,0.16-7.96-0.25-11.91,0.09c-9.76,0.83-19.86,5.99-28.96,3.49c0,0,0,0,0,0
	c0.03,0.77,0.07,1.53,0.11,2.29c0.03,0.51,0.05,1.01,0.09,1.52c0.05,0.66,0.1,1.33,0.16,1.99c0.06,0.69,0.13,1.37,0.2,2.05
	c0.05,0.51,0.11,1.02,0.17,1.53c0.15,1.22,0.31,2.44,0.5,3.64c0.41,2.62,0.92,5.21,1.52,7.77c0-0.16,0-0.31,0-0.47
	c6.32-1.47,12.94,0.23,19.42,0.37c2.02,0.04,4.02-0.06,6-0.46c5.81-1.18,10.8-4.78,16.22-7.17c17.47-7.71,38.55-2.72,56-10.48
	c7.12-3.16,13.24-8.31,20.46-11.23c9.76-3.95,20.99-3.62,30.36-8.43c9.5-4.86,16.06-14.49,25.91-18.58
	c6.13-2.55,13.19-2.78,18.83-6.28c3.19-1.98,5.83-4.94,9.33-6.24C230.49,52.34,223.99,42.66,216.14,34.24z"/>
<linearGradient id="SVGID_6_" gradientUnits="userSpaceOnUse" x1="-53.8675" y1="407.6293" x2="212.6069" y2="-487.7247">
	<stop  offset="0" style="stop-color:#FFFFFF"/>
	<stop  offset="0.0407" style="stop-color:#DBECF3"/>
	<stop  offset="0.0907" style="stop-color:#B7D9E7"/>
	<stop  offset="0.1469" style="stop-color:#97C8DC"/>
	<stop  offset="0.2091" style="stop-color:#7BB9D3"/>
	<stop  offset="0.2794" style="stop-color:#65AECC"/>
	<stop  offset="0.3614" style="stop-color:#54A5C6"/>
	<stop  offset="0.4628" style="stop-color:#499FC2"/>
	<stop  offset="0.6051" style="stop-color:#429BC0"/>
	<stop  offset="1" style="stop-color:#409ABF"/>
</linearGradient>
<path class="st6" d="M31.29,124.15c-0.19-1.21-0.35-2.42-0.5-3.64C30.94,121.73,31.1,122.94,31.29,124.15z"/>
<linearGradient id="SVGID_7_" gradientUnits="userSpaceOnUse" x1="29.7553" y1="112.2075" x2="30.3982" y2="110.0475">
	<stop  offset="0" style="stop-color:#FFFFFF"/>
	<stop  offset="0.0407" style="stop-color:#DBECF3"/>
	<stop  offset="0.0907" style="stop-color:#B7D9E7"/>
	<stop  offset="0.1469" style="stop-color:#97C8DC"/>
	<stop  offset="0.2091" style="stop-color:#7BB9D3"/>
	<stop  offset="0.2794" style="stop-color:#65AECC"/>
	<stop  offset="0.3614" style="stop-color:#54A5C6"/>
	<stop  offset="0.4628" style="stop-color:#499FC2"/>
	<stop  offset="0.6051" style="stop-color:#429BC0"/>
	<stop  offset="1" style="stop-color:#409ABF"/>
</linearGradient>
<polygon class="st7" points="30.08,111.13 30.08,111.13 30.08,111.13 "/>
<linearGradient id="SVGID_8_" gradientUnits="userSpaceOnUse" x1="-56.8417" y1="406.7442" x2="209.6327" y2="-488.6099">
	<stop  offset="0" style="stop-color:#FFFFFF"/>
	<stop  offset="0.0407" style="stop-color:#DBECF3"/>
	<stop  offset="0.0907" style="stop-color:#B7D9E7"/>
	<stop  offset="0.1469" style="stop-color:#97C8DC"/>
	<stop  offset="0.2091" style="stop-color:#7BB9D3"/>
	<stop  offset="0.2794" style="stop-color:#65AECC"/>
	<stop  offset="0.3614" style="stop-color:#54A5C6"/>
	<stop  offset="0.4628" style="stop-color:#499FC2"/>
	<stop  offset="0.6051" style="stop-color:#429BC0"/>
	<stop  offset="1" style="stop-color:#409ABF"/>
</linearGradient>
<path class="st8" d="M30.19,113.42c0.03,0.51,0.05,1.01,0.09,1.52C30.24,114.43,30.21,113.93,30.19,113.42z"/>
<linearGradient id="SVGID_9_" gradientUnits="userSpaceOnUse" x1="-55.5362" y1="407.1327" x2="210.9382" y2="-488.2213">
	<stop  offset="0" style="stop-color:#FFFFFF"/>
	<stop  offset="0.0407" style="stop-color:#DBECF3"/>
	<stop  offset="0.0907" style="stop-color:#B7D9E7"/>
	<stop  offset="0.1469" style="stop-color:#97C8DC"/>
	<stop  offset="0.2091" style="stop-color:#7BB9D3"/>
	<stop  offset="0.2794" style="stop-color:#65AECC"/>
	<stop  offset="0.3614" style="stop-color:#54A5C6"/>
	<stop  offset="0.4628" style="stop-color:#499FC2"/>
	<stop  offset="0.6051" style="stop-color:#429BC0"/>
	<stop  offset="1" style="stop-color:#409ABF"/>
</linearGradient>
<path class="st9" d="M30.43,116.92c0.06,0.69,0.13,1.37,0.2,2.05C30.56,118.29,30.49,117.61,30.43,116.92z"/>
<linearGradient id="SVGID_10_" gradientUnits="userSpaceOnUse" x1="14.5005" y1="427.977" x2="280.9749" y2="-467.3771">
	<stop  offset="0" style="stop-color:#FFFFFF"/>
	<stop  offset="0.0407" style="stop-color:#DBECF3"/>
	<stop  offset="0.0907" style="stop-color:#B7D9E7"/>
	<stop  offset="0.1469" style="stop-color:#97C8DC"/>
	<stop  offset="0.2091" style="stop-color:#7BB9D3"/>
	<stop  offset="0.2794" style="stop-color:#65AECC"/>
	<stop  offset="0.3614" style="stop-color:#54A5C6"/>
	<stop  offset="0.4628" style="stop-color:#499FC2"/>
	<stop  offset="0.6051" style="stop-color:#429BC0"/>
	<stop  offset="1" style="stop-color:#409ABF"/>
</linearGradient>
<path class="st10" d="M30.01,107.5c0,1.22,0.03,2.43,0.07,3.63c9.09,2.49,19.19-2.67,28.96-3.49c3.96-0.34,7.94,0.07,11.91-0.09
	c17.76-0.7,33.02-12.21,49.76-18.17c8.92-3.17,18.44-4.81,26.81-9.22c9.39-4.94,16.79-13.06,26.1-18.14
	c5.98-3.27,12.72-5.27,18.06-9.52c3.35-2.67,5.99-6.12,9.22-8.94c3.82-3.34,8.38-5.73,12.88-8.08c0.79-0.41,1.58-0.82,2.36-1.23
	c-7.28-7.81-15.71-14.53-25.02-19.9c-9.7,4.38-17.72,12.25-27.23,17.28c-6.71,3.55-14.12,5.65-20.69,9.43
	c-7.55,4.34-13.76,10.77-21.41,14.93c-9.64,5.25-20.97,6.6-30.85,11.38c-5.21,2.52-9.93,5.95-15.16,8.42
	c-8.45,3.99-18.13,5.32-27.34,3.76c-5.09-0.86-11.03-2.36-14.88,1.08c-0.07,0.06-0.12,0.13-0.19,0.19
	c-0.58,2.26-1.09,4.54-1.53,6.85c-0.74,3.96-1.26,7.99-1.55,12.09C30.1,102.31,30.01,104.89,30.01,107.5z"/>
<linearGradient id="SVGID_11_" gradientUnits="userSpaceOnUse" x1="129.1251" y1="251.069" x2="116.7424" y2="-116.1266">
	<stop  offset="0" style="stop-color:#FFFFFF"/>
	<stop  offset="0.0407" style="stop-color:#DBECF3"/>
	<stop  offset="0.0907" style="stop-color:#B7D9E7"/>
	<stop  offset="0.1469" style="stop-color:#97C8DC"/>
	<stop  offset="0.2091" style="stop-color:#7BB9D3"/>
	<stop  offset="0.2794" style="stop-color:#65AECC"/>
	<stop  offset="0.3614" style="stop-color:#54A5C6"/>
	<stop  offset="0.4628" style="stop-color:#499FC2"/>
	<stop  offset="0.6051" style="stop-color:#429BC0"/>
	<stop  offset="1" style="stop-color:#409ABF"/>
</linearGradient>
<path class="st11" d="M30.01,107.5c0,1.22,0.03,2.43,0.07,3.63c9.09,2.49,19.19-2.67,28.96-3.49c3.96-0.34,7.94,0.07,11.91-0.09
	c17.76-0.7,33.02-12.21,49.76-18.17c8.92-3.17,18.44-4.81,26.81-9.22c9.39-4.94,16.79-13.06,26.1-18.14
	c5.98-3.27,12.72-5.27,18.06-9.52c3.35-2.67,5.99-6.12,9.22-8.94c3.82-3.34,8.38-5.73,12.88-8.08c0.79-0.41,1.58-0.82,2.36-1.23
	c-7.28-7.81-15.71-14.53-25.02-19.9c-9.7,4.38-17.72,12.25-27.23,17.28c-6.71,3.55-14.12,5.65-20.69,9.43
	c-7.55,4.34-13.76,10.77-21.41,14.93c-9.64,5.25-20.97,6.6-30.85,11.38c-5.21,2.52-9.93,5.95-15.16,8.42
	c-8.45,3.99-18.13,5.32-27.34,3.76c-5.09-0.86-11.03-2.36-14.88,1.08c-0.07,0.06-0.12,0.13-0.19,0.19
	c-0.58,2.26-1.09,4.54-1.53,6.85c-0.74,3.96-1.26,7.99-1.55,12.09C30.1,102.31,30.01,104.89,30.01,107.5z"/>
<linearGradient id="SVGID_12_" gradientUnits="userSpaceOnUse" x1="-58.3468" y1="406.2962" x2="208.1276" y2="-489.0578">
	<stop  offset="0" style="stop-color:#FFFFFF"/>
	<stop  offset="0.0407" style="stop-color:#DBECF3"/>
	<stop  offset="0.0907" style="stop-color:#B7D9E7"/>
	<stop  offset="0.1469" style="stop-color:#97C8DC"/>
	<stop  offset="0.2091" style="stop-color:#7BB9D3"/>
	<stop  offset="0.2794" style="stop-color:#65AECC"/>
	<stop  offset="0.3614" style="stop-color:#54A5C6"/>
	<stop  offset="0.4628" style="stop-color:#499FC2"/>
	<stop  offset="0.6051" style="stop-color:#429BC0"/>
	<stop  offset="1" style="stop-color:#409ABF"/>
</linearGradient>
<path class="st12" d="M30.08,111.13c-0.04-1.21-0.07-2.42-0.07-3.63C30.01,108.71,30.04,109.92,30.08,111.13L30.08,111.13z"/>
<linearGradient id="SVGID_13_" gradientUnits="userSpaceOnUse" x1="34.929" y1="254.2455" x2="22.5463" y2="-112.9501">
	<stop  offset="0" style="stop-color:#FFFFFF"/>
	<stop  offset="0.0407" style="stop-color:#DBECF3"/>
	<stop  offset="0.0907" style="stop-color:#B7D9E7"/>
	<stop  offset="0.1469" style="stop-color:#97C8DC"/>
	<stop  offset="0.2091" style="stop-color:#7BB9D3"/>
	<stop  offset="0.2794" style="stop-color:#65AECC"/>
	<stop  offset="0.3614" style="stop-color:#54A5C6"/>
	<stop  offset="0.4628" style="stop-color:#499FC2"/>
	<stop  offset="0.6051" style="stop-color:#429BC0"/>
	<stop  offset="1" style="stop-color:#409ABF"/>
</linearGradient>
<path class="st13" d="M30.08,111.13c-0.04-1.21-0.07-2.42-0.07-3.63C30.01,108.71,30.04,109.92,30.08,111.13L30.08,111.13z"/>
<linearGradient id="SVGID_14_" gradientUnits="userSpaceOnUse" x1="52.0815" y1="252.7075" x2="179.0839" y2="-174.0205">
	<stop  offset="0" style="stop-color:#FFFFFF"/>
	<stop  offset="0.0407" style="stop-color:#DBECF3"/>
	<stop  offset="0.0907" style="stop-color:#B7D9E7"/>
	<stop  offset="0.1469" style="stop-color:#97C8DC"/>
	<stop  offset="0.2091" style="stop-color:#7BB9D3"/>
	<stop  offset="0.2794" style="stop-color:#65AECC"/>
	<stop  offset="0.3614" style="stop-color:#54A5C6"/>
	<stop  offset="0.4628" style="stop-color:#499FC2"/>
	<stop  offset="0.6051" style="stop-color:#429BC0"/>
	<stop  offset="1" style="stop-color:#409ABF"/>
</linearGradient>
<path class="st14" d="M72.03,163.05c16.2-0.46,29.68-14.11,45.86-14.98c6.08-0.32,12.3,1.2,18.22-0.26c0.01,0,0.02-0.01,0.03-0.01
	c-40.37-0.32-76.6-4.7-102.24-11.55c2.93,10.57,7.45,20.47,13.25,29.46c2.1-1.25,4.31-2.28,6.68-2.84
	C59.77,161.5,65.95,163.22,72.03,163.05z"/>
<linearGradient id="SVGID_15_" gradientUnits="userSpaceOnUse" x1="221.7762" y1="221.6897" x2="285.7387" y2="6.7759">
	<stop  offset="0" style="stop-color:#FFFFFF"/>
	<stop  offset="0.0407" style="stop-color:#DBECF3"/>
	<stop  offset="0.0907" style="stop-color:#B7D9E7"/>
	<stop  offset="0.1469" style="stop-color:#97C8DC"/>
	<stop  offset="0.2091" style="stop-color:#7BB9D3"/>
	<stop  offset="0.2794" style="stop-color:#65AECC"/>
	<stop  offset="0.3614" style="stop-color:#54A5C6"/>
	<stop  offset="0.4628" style="stop-color:#499FC2"/>
	<stop  offset="0.6051" style="stop-color:#429BC0"/>
	<stop  offset="1" style="stop-color:#409ABF"/>
</linearGradient>
<path class="st15" d="M258.61,94.41c0.15,0.07,0.3,0.11,0.45,0.13c0.74-0.63,1.48-1.26,2.21-1.91
	C260.4,91.86,258.7,93.25,258.61,94.41z"/>
<linearGradient id="SVGID_16_" gradientUnits="userSpaceOnUse" x1="220.4671" y1="301.6799" x2="309.0513" y2="-165.5301">
	<stop  offset="0" style="stop-color:#FFFFFF"/>
	<stop  offset="0.0407" style="stop-color:#DBECF3"/>
	<stop  offset="0.0907" style="stop-color:#B7D9E7"/>
	<stop  offset="0.1469" style="stop-color:#97C8DC"/>
	<stop  offset="0.2091" style="stop-color:#7BB9D3"/>
	<stop  offset="0.2794" style="stop-color:#65AECC"/>
	<stop  offset="0.3614" style="stop-color:#54A5C6"/>
	<stop  offset="0.4628" style="stop-color:#499FC2"/>
	<stop  offset="0.6051" style="stop-color:#429BC0"/>
	<stop  offset="1" style="stop-color:#409ABF"/>
</linearGradient>
<path class="st16" d="M258.61,94.41c0.15,0.07,0.3,0.11,0.45,0.13c0.74-0.63,1.48-1.26,2.21-1.91
	C260.4,91.86,258.7,93.25,258.61,94.41z"/>
<linearGradient id="SVGID_17_" gradientUnits="userSpaceOnUse" x1="52.9915" y1="439.4326" x2="319.4659" y2="-455.9214">
	<stop  offset="0" style="stop-color:#FFFFFF"/>
	<stop  offset="0.0407" style="stop-color:#DBECF3"/>
	<stop  offset="0.0907" style="stop-color:#B7D9E7"/>
	<stop  offset="0.1469" style="stop-color:#97C8DC"/>
	<stop  offset="0.2091" style="stop-color:#7BB9D3"/>
	<stop  offset="0.2794" style="stop-color:#65AECC"/>
	<stop  offset="0.3614" style="stop-color:#54A5C6"/>
	<stop  offset="0.4628" style="stop-color:#499FC2"/>
	<stop  offset="0.6051" style="stop-color:#429BC0"/>
	<stop  offset="1" style="stop-color:#409ABF"/>
</linearGradient>
<path class="st17" d="M207.18,75.47c-9.85,4.09-16.41,13.72-25.91,18.58c-9.37,4.8-20.6,4.47-30.36,8.43
	c-7.22,2.92-13.35,8.06-20.46,11.23c-17.45,7.75-38.53,2.77-56,10.48c-5.43,2.4-10.41,5.99-16.22,7.17c-1.98,0.4-3.98,0.51-6,0.46
	c21.69,5.75,52.56,9.34,86.82,9.34c3.41,0,6.78-0.04,10.11-0.11c1.61-1,3.25-1.94,4.96-2.71c11.59-5.2,25.8-2.08,37.02-8.04
	c4.04-2.15,7.42-5.35,11.35-7.71c5.66-3.4,12.2-4.91,18.48-6.93c8.38-2.7,16.44-6.4,23.96-10.97c-0.06-2.21-0.16-4.41-0.35-6.59
	c-0.36-4.16-0.95-8.26-1.77-12.28c-1.64-7.99-4.17-15.64-7.48-22.87c-3.5,1.3-6.14,4.26-9.33,6.24
	C220.37,72.69,213.32,72.92,207.18,75.47z"/>
<linearGradient id="SVGID_18_" gradientUnits="userSpaceOnUse" x1="177.7846" y1="264.847" x2="91.1054" y2="-73.7731">
	<stop  offset="0" style="stop-color:#FFFFFF"/>
	<stop  offset="0.0407" style="stop-color:#DBECF3"/>
	<stop  offset="0.0907" style="stop-color:#B7D9E7"/>
	<stop  offset="0.1469" style="stop-color:#97C8DC"/>
	<stop  offset="0.2091" style="stop-color:#7BB9D3"/>
	<stop  offset="0.2794" style="stop-color:#65AECC"/>
	<stop  offset="0.3614" style="stop-color:#54A5C6"/>
	<stop  offset="0.4628" style="stop-color:#499FC2"/>
	<stop  offset="0.6051" style="stop-color:#429BC0"/>
	<stop  offset="1" style="stop-color:#409ABF"/>
</linearGradient>
<path class="st18" d="M244.58,98.09c-0.36-4.16-0.95-8.26-1.77-12.28c-1.64-7.99-4.17-15.64-7.48-22.87
	c-3.5,1.3-6.14,4.26-9.33,6.24c-5.64,3.51-12.69,3.74-18.83,6.28c-9.85,4.09-16.41,13.72-25.91,18.58
	c-9.37,4.8-20.6,4.47-30.36,8.43c-7.22,2.92-13.35,8.06-20.46,11.23c-17.45,7.75-38.53,2.77-56,10.48
	c-5.43,2.4-10.41,5.99-16.22,7.17c-1.98,0.4-3.98,0.51-6,0.46c-6.48-0.14-13.1-1.83-19.42-0.37c0,0.16,0,0.31,0,0.47
	c0.34,1.46,0.7,2.91,1.09,4.34c2.93,10.57,7.45,20.47,13.25,29.46c2.1-1.25,4.31-2.28,6.68-2.84c5.93-1.38,12.11,0.34,18.19,0.17
	c16.2-0.46,29.68-14.11,45.86-14.98c6.08-0.32,12.3,1.2,18.22-0.26c0.01,0,0.02-0.01,0.03-0.01c4.77-1.18,8.81-4.15,13.02-6.76
	c1.61-1,3.25-1.94,4.96-2.71c11.59-5.2,25.8-2.08,37.02-8.04c4.04-2.15,7.42-5.35,11.35-7.71c5.66-3.4,12.2-4.91,18.48-6.93
	c8.38-2.7,16.44-6.4,23.96-10.97C244.88,102.47,244.77,100.27,244.58,98.09z"/>
<linearGradient id="SVGID_19_" gradientUnits="userSpaceOnUse" x1="116.9638" y1="272.0177" x2="243.9662" y2="-154.7103">
	<stop  offset="0" style="stop-color:#FFFFFF"/>
	<stop  offset="0.0407" style="stop-color:#DBECF3"/>
	<stop  offset="0.0907" style="stop-color:#B7D9E7"/>
	<stop  offset="0.1469" style="stop-color:#97C8DC"/>
	<stop  offset="0.2091" style="stop-color:#7BB9D3"/>
	<stop  offset="0.2794" style="stop-color:#65AECC"/>
	<stop  offset="0.3614" style="stop-color:#54A5C6"/>
	<stop  offset="0.4628" style="stop-color:#499FC2"/>
	<stop  offset="0.6051" style="stop-color:#429BC0"/>
	<stop  offset="1" style="stop-color:#409ABF"/>
</linearGradient>
<path class="st19" d="M192.91,145.46c-0.31,0.11-0.62,0.21-0.93,0.31c-6.24,1.91-12.96,1.74-19.22,3.59
	c-7.83,2.31-14.53,7.65-22.42,9.74c-9.35,2.47-19.7,0.18-28.6,3.96c-6.5,2.76-11.42,8.47-17.93,11.21c-8,3.37-17.08,1.83-25.75,1.94
	c-6.39,0.08-13.47,1.7-18.04,5.75c7.78,8.09,16.81,14.97,26.78,20.32c1.77-0.44,3.57-0.76,5.38-0.88c6.9-0.48,13.9,1.4,20.69,0.12
	c5.52-1.04,10.43-4.06,15.53-6.43c12.77-5.93,27.06-7.8,40.12-13.05c5.98-2.4,11.71-5.52,17.94-7.15c4.62-1.21,9.49-1.6,13.85-3.55
	c4.09-1.83,7.48-4.92,11.43-7.02c6.47-3.44,14.08-4.03,20.88-6.74c3.26-6.17,5.93-12.69,7.95-19.5
	C226.9,141.25,210.74,143.77,192.91,145.46z"/>
<g>
	<linearGradient id="SVGID_20_" gradientUnits="userSpaceOnUse" x1="183.5168" y1="268.9684" x2="128.2708" y2="53.6993">
		<stop  offset="0" style="stop-color:#FFFFFF"/>
		<stop  offset="0.019" style="stop-color:#F3F9FB"/>
		<stop  offset="0.0937" style="stop-color:#C9E3ED"/>
		<stop  offset="0.1749" style="stop-color:#A4CFE1"/>
		<stop  offset="0.2617" style="stop-color:#85BFD6"/>
		<stop  offset="0.3557" style="stop-color:#6CB1CE"/>
		<stop  offset="0.46" style="stop-color:#58A7C7"/>
		<stop  offset="0.5799" style="stop-color:#4AA0C2"/>
		<stop  offset="0.7294" style="stop-color:#429BC0"/>
		<stop  offset="1" style="stop-color:#409ABF"/>
	</linearGradient>
	<path class="st20" d="M180.83,182.54c-7.75,2.34-16.02,2.49-23.79,4.73c-12.22,3.52-22.63,12-34.99,15.02
		c-7.55,1.84-15.43,1.54-23.14,2.5c-1.71,0.21-3.44,0.51-5.14,0.9c13.36,5.97,28.15,9.31,43.74,9.31
		c39.19,0,73.47-20.99,92.24-52.33c-4.21,0.98-8.58,1.56-12.74,2.76C204.15,169.12,193.63,178.67,180.83,182.54z"/>
	<linearGradient id="SVGID_21_" gradientUnits="userSpaceOnUse" x1="180.5692" y1="269.7248" x2="125.3232" y2="54.4558">
		<stop  offset="0" style="stop-color:#FFFFFF"/>
		<stop  offset="0.019" style="stop-color:#F3F9FB"/>
		<stop  offset="0.0937" style="stop-color:#C9E3ED"/>
		<stop  offset="0.1749" style="stop-color:#A4CFE1"/>
		<stop  offset="0.2617" style="stop-color:#85BFD6"/>
		<stop  offset="0.3557" style="stop-color:#6CB1CE"/>
		<stop  offset="0.46" style="stop-color:#58A7C7"/>
		<stop  offset="0.5799" style="stop-color:#4AA0C2"/>
		<stop  offset="0.7294" style="stop-color:#429BC0"/>
		<stop  offset="1" style="stop-color:#409ABF"/>
	</linearGradient>
	<path class="st21" d="M89.02,185.22c9.44,0.09,18.88-1.95,27.45-5.92c6.96-3.22,13.39-7.72,20.76-9.84
		c9.47-2.73,19.88-1.35,29.08-4.87c7.27-2.78,13.16-8.4,20.36-11.38c9.4-3.88,20.56-3.06,29.15-8.52c4-2.54,7.16-6.29,11.33-8.54
		c3.6-1.94,7.73-2.64,11.67-3.75c1.23-0.34,2.43-0.74,3.63-1.16c0.1-0.53,0.17-0.95,0.17-1.17c0,0-0.01,0-0.01,0.01
		c0.3-1.42,0.59-2.84,0.84-4.28c1.02-5.95,1.56-12.06,1.56-18.3c0-0.94-0.04-1.88-0.06-2.81c-7.52,4.57-15.58,8.27-23.96,10.97
		c-6.28,2.02-12.83,3.54-18.48,6.93c-3.92,2.36-7.31,5.56-11.35,7.71c-11.22,5.96-25.43,2.84-37.02,8.04
		c-1.72,0.77-3.35,1.71-4.96,2.71c-4.21,2.61-8.24,5.58-13.02,6.76c-0.01,0-0.02,0.01-0.03,0.01c-5.92,1.45-12.14-0.07-18.22,0.26
		c-16.18,0.86-29.66,14.51-45.86,14.98c-6.08,0.17-12.26-1.55-18.19-0.17c-2.37,0.55-4.58,1.59-6.68,2.84
		c3.76,5.83,8.08,11.26,12.86,16.24c1.73,1.8,3.52,3.52,5.37,5.2c2.49-1.19,5.28-1.88,8.04-2.15
		C78.6,184.49,83.82,185.17,89.02,185.22z"/>
	<linearGradient id="SVGID_22_" gradientUnits="userSpaceOnUse" x1="182.1734" y1="269.3131" x2="126.9273" y2="54.0441">
		<stop  offset="0" style="stop-color:#FFFFFF"/>
		<stop  offset="0.019" style="stop-color:#F3F9FB"/>
		<stop  offset="0.0937" style="stop-color:#C9E3ED"/>
		<stop  offset="0.1749" style="stop-color:#A4CFE1"/>
		<stop  offset="0.2617" style="stop-color:#85BFD6"/>
		<stop  offset="0.3557" style="stop-color:#6CB1CE"/>
		<stop  offset="0.46" style="stop-color:#58A7C7"/>
		<stop  offset="0.5799" style="stop-color:#4AA0C2"/>
		<stop  offset="0.7294" style="stop-color:#429BC0"/>
		<stop  offset="1" style="stop-color:#409ABF"/>
	</linearGradient>
	<path class="st22" d="M238.86,143.36c0.77-2.17,1.65-4.08,2.19-6.28c0.23-0.93,1.04-4.03,1.4-5.84c-1.2,0.42-2.41,0.81-3.63,1.16
		c-3.94,1.11-8.06,1.8-11.67,3.75c-4.17,2.25-7.33,6-11.33,8.54c-8.59,5.45-19.75,4.63-29.15,8.52c-7.2,2.97-13.09,8.59-20.36,11.38
		c-9.21,3.52-19.61,2.14-29.08,4.87c-7.37,2.12-13.8,6.62-20.76,9.84c-8.56,3.97-18.01,6-27.45,5.92c-5.2-0.05-10.42-0.73-15.6-0.22
		c-2.75,0.27-5.54,0.96-8.04,2.15c6.47,5.87,13.65,10.96,21.41,15.13c2.27,1.22,4.6,2.35,6.97,3.41c1.7-0.39,3.43-0.69,5.14-0.9
		c7.71-0.96,15.6-0.66,23.14-2.5c12.36-3.02,22.76-11.5,34.99-15.02c7.78-2.24,16.05-2.39,23.79-4.73
		c12.8-3.86,23.33-13.42,36.18-17.12c4.16-1.2,8.53-1.78,12.74-2.76c1-1.67,1.97-3.36,2.88-5.09
		C235.04,153,237.13,148.24,238.86,143.36z"/>
	<linearGradient id="SVGID_23_" gradientUnits="userSpaceOnUse" x1="180.2357" y1="273.8866" x2="133.5623" y2="70.524">
		<stop  offset="0" style="stop-color:#FFFFFF"/>
		<stop  offset="0.019" style="stop-color:#F3F9FB"/>
		<stop  offset="0.0937" style="stop-color:#C9E3ED"/>
		<stop  offset="0.1749" style="stop-color:#A4CFE1"/>
		<stop  offset="0.2617" style="stop-color:#85BFD6"/>
		<stop  offset="0.3557" style="stop-color:#6CB1CE"/>
		<stop  offset="0.46" style="stop-color:#58A7C7"/>
		<stop  offset="0.5799" style="stop-color:#4AA0C2"/>
		<stop  offset="0.7294" style="stop-color:#429BC0"/>
		<stop  offset="1" style="stop-color:#409ABF"/>
	</linearGradient>
	<path class="st23" d="M238.86,143.36c0.77-2.17,1.65-4.08,2.19-6.28c0.23-0.93,1.04-4.03,1.4-5.84c-1.2,0.42-2.41,0.81-3.63,1.16
		c-3.94,1.11-8.06,1.8-11.67,3.75c-4.17,2.25-7.33,6-11.33,8.54c-8.59,5.45-19.75,4.63-29.15,8.52c-7.2,2.97-13.09,8.59-20.36,11.38
		c-9.21,3.52-19.61,2.14-29.08,4.87c-7.37,2.12-13.8,6.62-20.76,9.84c-8.56,3.97-18.01,6-27.45,5.92c-5.2-0.05-10.42-0.73-15.6-0.22
		c-2.75,0.27-5.54,0.96-8.04,2.15c6.47,5.87,13.65,10.96,21.41,15.13c2.27,1.22,4.6,2.35,6.97,3.41c1.7-0.39,3.43-0.69,5.14-0.9
		c7.71-0.96,15.6-0.66,23.14-2.5c12.36-3.02,22.76-11.5,34.99-15.02c7.78-2.24,16.05-2.39,23.79-4.73
		c12.8-3.86,23.33-13.42,36.18-17.12c4.16-1.2,8.53-1.78,12.74-2.76c1-1.67,1.97-3.36,2.88-5.09
		C235.04,153,237.13,148.24,238.86,143.36z"/>
</g>
<linearGradient id="SVGID_24_" gradientUnits="userSpaceOnUse" x1="144.0982" y1="213.0897" x2="138.3831" y2="-37.8988">
	<stop  offset="0" style="stop-color:#409ABF"/>
	<stop  offset="0.219" style="stop-color:#3E94B8"/>
	<stop  offset="0.4833" style="stop-color:#3A86A4"/>
	<stop  offset="0.7696" style="stop-color:#356F87"/>
	<stop  offset="1" style="stop-color:#2F5A6B"/>
</linearGradient>
<path class="st24" d="M283.18,73.18c-1.86-7.31-12.61-11.8-29.48-13.49c-5.81-0.58-13.06-0.65-20.2-0.57
	c1.79,3.69,3.6,7.51,4.98,11.46c2.31,0.46,4.9,0.82,6.77,1.46c5.61,1.92,9.12,4.67,10.03,8.23c1.26,4.96-2.65,10.92-10.59,17.26
	c0,0.01,0,0.02,0,0.02l-0.16,0.13c-16,12.79-48.35,27.14-87.62,37.99c-3.21,0.89-6.47,1.76-9.77,2.6
	c-33.2,8.44-64,12.55-86.45,12.33c-8.8-0.09-16.31-0.85-22.18-2.27c-7.86-1.91-12.77-5.02-13.87-9.34
	c-1.05-4.11,1.39-8.83,6.8-13.97c-0.64-4.05-0.98-8.25-1.28-12.26C9.53,124.59-1.99,136.24,0.28,145.17
	c2.3,9.06,18.26,13.78,42.59,14.23l1.15,0.02c26.54,0.33,62.73-4.35,101.93-13.98c1.53-0.38,3.07-0.75,4.61-1.14
	c37.12-9.43,69.97-21.56,93.72-33.77v0.01l0.1-0.06c0.13-0.07,0.26-0.13,0.39-0.2c0-0.01,0-0.01,0-0.02l1.54-0.86l0,0
	C271.36,96.26,285.7,83.09,283.18,73.18z"/>
</svg>
