<svg id="Layer_1" data-name="Layer 1" xmlns="http://www.w3.org/2000/svg" viewBox="0 0 481.71 476.63"><defs><style>.cls-1{fill:#d8d8c5;}.cls-2,.cls-3{fill:#f4f4f4;}.cls-2{stroke:#000;stroke-miterlimit:10;stroke-width:6px;}</style></defs><path class="cls-1" d="M39.5,179.5c-3.06-3.44-16.55-12.81,24-47,47.84-40.33,67.48-68,72-92,1.84-9.77,1.62-17.18,8-24,21-22.4,85.68-8.95,122,29,10.7,11.18,7.19,12.22,18,24,36.39,39.66,69.22,20.34,103,49,40.31,34.2,30.8,93.29,74,108,5.21,1.77,7.21,1.55,10,4,26.49,23.3,1.78,141.21-64,175-55.53,28.53-100.43-23.88-167,10-38.21,19.45-33.68,41.94-67,52-55.78,16.84-140.4-24.52-161-93-1.61-5.36-15-52.49,9-93,26.9-45.31,82.94-52.39,81-81-.63-9.34-7.29-18.71-15-23C68.37,167.42,45.19,185.9,39.5,179.5Z" transform="translate(-1.14 -0.99)"/><path d="M39.05,179.9a17.55,17.55,0,0,1-3.81-5.07,12.06,12.06,0,0,1-.85-6.38,21.2,21.2,0,0,1,1.8-6.09,38.74,38.74,0,0,1,3.05-5.5c4.61-7,10.5-12.92,16.5-18.62s12.45-10.89,18.48-16.49l4.56-4.18c1.5-1.41,3-2.84,4.46-4.27,3-2.83,5.85-5.78,8.74-8.71,5.68-5.93,11.29-12,16.39-18.34a160.58,160.58,0,0,0,13.89-20,85.55,85.55,0,0,0,9.1-22l.57-2.88.29-1.44.23-1.48c.29-2,.53-4,.81-6.1a64.78,64.78,0,0,1,1.15-6.46,28.3,28.3,0,0,1,2.46-6.64,28.8,28.8,0,0,1,9.65-10.39A43.21,43.21,0,0,1,159,3.24a62.19,62.19,0,0,1,13.09-2.09,88.58,88.58,0,0,1,13,.17,133.8,133.8,0,0,1,49,14.56,135.64,135.64,0,0,1,21.7,13.77c3.42,2.61,6.64,5.48,9.8,8.42,1.53,1.54,3.09,3,4.57,4.63s2.93,3.28,4.34,5.07a49.72,49.72,0,0,1,3.82,5.7c1.11,1.9,2,3.52,3,5a68.45,68.45,0,0,0,7.27,8.87,95.3,95.3,0,0,0,8.5,8.09,84.17,84.17,0,0,0,9.42,6.79,86,86,0,0,0,21.49,9.2c7.65,2.22,15.75,3.68,23.93,5.84a95.76,95.76,0,0,1,24,9.39A83.13,83.13,0,0,1,396,123a102.78,102.78,0,0,1,14.3,21.1,199.59,199.59,0,0,1,9.91,23c2.88,7.78,5.63,15.54,8.79,23.05S435.88,205,441.07,211a44.31,44.31,0,0,0,19.28,13.44,59.65,59.65,0,0,0,5.8,1.8,16.42,16.42,0,0,1,3.25,1.24,12.48,12.48,0,0,1,2.84,2.15,24.53,24.53,0,0,1,4.12,5.24,38.07,38.07,0,0,1,2.77,5.9,59.58,59.58,0,0,1,2.92,12.42,96.9,96.9,0,0,1,.8,12.6,157.89,157.89,0,0,1-2.13,25,201.19,201.19,0,0,1-5.62,24.38,212.69,212.69,0,0,1-8.45,23.57c-6.63,15.33-15,30.08-25.82,43.07a121.14,121.14,0,0,1-18.19,17.81A98.06,98.06,0,0,1,412,406.91c-1.85,1.09-3.73,2.16-5.68,3.08l-2.92,1.43c-1,.48-2,.84-3,1.26a81.09,81.09,0,0,1-25.29,6,121.14,121.14,0,0,1-25.67-1.11c-8.38-1.14-16.57-2.78-24.62-4.31s-16-2.91-24-3.63a117.83,117.83,0,0,0-23.61.13,96.09,96.09,0,0,0-22.72,5.41,111.45,111.45,0,0,0-21,10.49,85.9,85.9,0,0,0-17.65,15c-1.34,1.4-2.61,3-3.92,4.47l-4,4.74a112.42,112.42,0,0,1-8.87,9.66l-2.59,2.26c-.44.36-.86.76-1.32,1.1l-1.4,1c-.94.68-1.88,1.37-2.83,2l-3,1.76a67.83,67.83,0,0,1-12.48,5.42,93.62,93.62,0,0,1-26,4.48,125.9,125.9,0,0,1-26-1.88,160.07,160.07,0,0,1-88.71-49.16,131,131,0,0,1-26.8-44l-2-6.2c-.63-2.14-1.13-4.24-1.6-6.35-.93-4.22-1.64-8.45-2.19-12.7a143.77,143.77,0,0,1-.89-25.66c.89-17.1,5.43-34.25,14.07-49.18l1.64-2.77,1.78-2.69c1.15-1.82,2.49-3.5,3.75-5.23A106.2,106.2,0,0,1,31,262.06a138.89,138.89,0,0,1,19.42-16.21c6.85-4.82,14-9.14,21-13.42,3.52-2.16,7-4.32,10.39-6.6a84,84,0,0,0,9.62-7.36,29,29,0,0,0,7.16-9.24,19.08,19.08,0,0,0,1.31-11.35A27.85,27.85,0,0,0,95.32,187a29.2,29.2,0,0,0-8.54-8.29,23.49,23.49,0,0,0-11.33-3.45,43.66,43.66,0,0,0-12.07,1.23c-4,.91-7.9,2.21-11.87,3.38a45.34,45.34,0,0,1-6.11,1.46,12.14,12.14,0,0,1-3.25.09A4.82,4.82,0,0,1,39.05,179.9Zm.9-.8a3.59,3.59,0,0,0,2.36,1.1,11.07,11.07,0,0,0,2.92-.1,45.1,45.1,0,0,0,5.91-1.46c3.94-1.2,7.87-2.51,11.92-3.48a45,45,0,0,1,12.47-1.46,25.94,25.94,0,0,1,12.16,3.49,31.25,31.25,0,0,1,9.3,8.62,30.69,30.69,0,0,1,5.29,11.61,21.79,21.79,0,0,1-1.1,12.9,10.13,10.13,0,0,1-.68,1.5l-.74,1.46c-.6.91-1.15,1.86-1.8,2.72a40.85,40.85,0,0,1-4.23,4.84A86.4,86.4,0,0,1,84,228.92c-3.37,2.47-6.81,4.79-10.24,7.1-6.84,4.64-13.64,9.23-20.06,14.24-12.84,9.93-24.1,21.82-31.29,36s-10.63,29.9-11,45.74a132.84,132.84,0,0,0,1.67,23.73c.62,3.92,1.37,7.83,2.33,11.65.47,1.9,1,3.81,1.57,5.61L19,378.5a121.78,121.78,0,0,0,25,39.64,148.89,148.89,0,0,0,37.41,28.92A146.52,146.52,0,0,0,125.77,463a113,113,0,0,0,23.31,1.8c1.94,0,3.86-.25,5.79-.35s3.82-.46,5.73-.69,3.77-.68,5.64-1.1l2.76-.72a22,22,0,0,0,2.73-.79,54.87,54.87,0,0,0,10.24-4.3l2.37-1.35,2.22-1.56,1.12-.78c.37-.26.7-.59,1-.88l2.1-1.77c5.46-5,10.3-11.65,16.26-18a98.07,98.07,0,0,1,20.22-16.7,123.84,123.84,0,0,1,23.39-11.29,107.36,107.36,0,0,1,25.41-5.69,125.89,125.89,0,0,1,25.83.25c17,1.86,33.09,6.36,49,9a113,113,0,0,0,23.69,1.66,72.93,72.93,0,0,0,22.85-4.63c.92-.35,1.85-.64,2.75-1.05l2.68-1.21c1.81-.78,3.56-1.71,5.29-2.64a90.94,90.94,0,0,0,10-6.41,113.88,113.88,0,0,0,17.67-16.22,147.91,147.91,0,0,0,14.54-19.39A178.72,178.72,0,0,0,462,336.69a205.1,205.1,0,0,0,8.82-22.81,196.7,196.7,0,0,0,5.88-23.76,140.87,140.87,0,0,0,2.37-24.29,93.85,93.85,0,0,0-.71-12.11,55.4,55.4,0,0,0-2.66-11.65,25.08,25.08,0,0,0-5.94-9.78,9.17,9.17,0,0,0-4.61-2.52c-1.92-.54-4-1.07-6-1.84a49.11,49.11,0,0,1-21-14.37,71.36,71.36,0,0,1-7.38-10.38c-2.12-3.65-4-7.41-5.73-11.22-3.43-7.63-6.3-15.4-9.4-23a194.85,194.85,0,0,0-10.35-22.11,94,94,0,0,0-14.12-19.31,76.24,76.24,0,0,0-18.76-14.22,87.83,87.83,0,0,0-22.32-7.75c-7.86-1.74-16.07-3-24.36-5.12a92.56,92.56,0,0,1-24.18-9.58,93.62,93.62,0,0,1-10.81-7.43,104.17,104.17,0,0,1-9.58-8.82c-1.52-1.54-3-3.12-4.4-4.81a55.68,55.68,0,0,1-4.12-5.35c-1.29-1.89-2.42-3.88-3.4-5.54a40,40,0,0,0-3.1-4.55,95.33,95.33,0,0,0-7.88-8.48c-2.89-2.68-5.83-5.31-9-7.71s-6.38-4.69-9.68-6.88-6.76-4.16-10.3-6-7.11-3.55-10.76-5.13c-1.85-.74-3.67-1.54-5.54-2.2l-2.8-1L207.36,16c-1.88-.66-3.79-1.17-5.69-1.74s-3.83-1-5.77-1.44a108.39,108.39,0,0,0-11.66-2,79.15,79.15,0,0,0-11.69-.54,55.6,55.6,0,0,0-11.38,1.34,35.06,35.06,0,0,0-10.23,4,21.25,21.25,0,0,0-7.38,7.21c-1.72,2.92-2.6,6.54-3.32,10.54-.37,2-.72,4.05-1.13,6.13l-.32,1.57-.39,1.57-.8,3.16a91.41,91.41,0,0,1-10.85,23.11,163.75,163.75,0,0,1-15.27,19.93C106,95.16,100.11,101,94.15,106.78c-3,2.83-6,5.69-9.14,8.42l-4.63,4.14-4.69,4.06c-6.24,5.43-12.73,10.57-18.86,16-3,2.74-6,5.6-8.81,8.6a78.17,78.17,0,0,0-7.71,9.53,35.41,35.41,0,0,0-3,5.3,20.23,20.23,0,0,0-1.72,5.73,10.8,10.8,0,0,0,.75,5.74,11.34,11.34,0,0,0,1.53,2.5C38.5,177.62,39.21,178.3,40,179.1Z" transform="translate(-1.14 -0.99)"/><path d="M164.89,38.67a44.23,44.23,0,0,1,9.68-5A33.68,33.68,0,0,1,180,32.2a28.06,28.06,0,0,1,5.66-.36,27.59,27.59,0,0,1,5.74.82,16.11,16.11,0,0,1,5.28,2.49,18.67,18.67,0,0,1,4.11,4.07,14.27,14.27,0,0,1,2.49,5.12l-.36.19a44.22,44.22,0,0,0-8.38-6c-1.45-.78-2.9-1.48-4.4-2.12A19,19,0,0,0,185.33,35a28.88,28.88,0,0,0-10.2.54,48.18,48.18,0,0,0-10,3.45Z" transform="translate(-1.14 -0.99)"/><path d="M33.79,336.43l3,10.1,3.44,9.94c1.34,3.24,2.59,6.51,4,9.71l2.21,4.75,1.11,2.37c.38.79.82,1.55,1.22,2.32l2.44,4.62c.39.78.83,1.53,1.29,2.27l1.35,2.23L55.21,387c.44.75.9,1.49,1.4,2.19l2.94,4.3.74,1.07.79,1,1.59,2.05c1.07,1.36,2.09,2.76,3.26,4l3.42,3.89L73,409.21a99,99,0,0,0,16.13,12.71,123.56,123.56,0,0,0,18.1,9.46,112.74,112.74,0,0,0,40.24,8.82l.08.6a68.31,68.31,0,0,1-21.41,1c-1.78-.22-3.59-.38-5.36-.72l-2.67-.47-2.65-.57A97.83,97.83,0,0,1,105,437a80.43,80.43,0,0,1-19.22-10.11,114,114,0,0,1-16.25-14.27l-3.62-4-3.38-4.19c-1.16-1.37-2.15-2.87-3.19-4.32l-1.56-2.18L57,396.8l-.71-1.14-2.83-4.54c-.49-.75-.93-1.53-1.34-2.31l-1.29-2.35-1.27-2.34c-.44-.78-.86-1.56-1.22-2.37l-2.29-4.82a191.21,191.21,0,0,1-12.88-40.36Z" transform="translate(-1.14 -0.99)"/><path class="cls-2" d="M415,160s-35.3,55.55-9.16,75,58.69-6.09,58.69-6.09S435.57,217.23,415,160Z" transform="translate(-1.14 -0.99)"/><path class="cls-3" d="M99,330s2,39,42,42,34-50,34-50-1-47-24-43S97,305,99,330Z" transform="translate(-1.14 -0.99)"/><path d="M99.3,330a42.92,42.92,0,0,0,14.81,28.82c8.23,7,18.81,10.12,29.52,10.8l1,.07h3c.66,0,1.31-.13,2-.19l1-.1c.32,0,.64-.12,1-.18a23.33,23.33,0,0,0,7.4-2.56c4.72-2.46,8.29-6.89,10.7-11.81a41.2,41.2,0,0,0,2.74-7.82,53,53,0,0,0,1.38-8.22,71.15,71.15,0,0,0-.39-16.58V322a119.15,119.15,0,0,0-2.6-16.17,61.61,61.61,0,0,0-5.21-15,23.06,23.06,0,0,0-4.36-5.91,10.68,10.68,0,0,0-5.74-2.85,7.11,7.11,0,0,0-.79-.1h-.81a8.5,8.5,0,0,0-1.65.12,14.59,14.59,0,0,0-1.83.31c-.64.12-1.28.28-1.91.44a69.92,69.92,0,0,0-7.6,2.33,93.83,93.83,0,0,0-27.56,16.43,55.86,55.86,0,0,0-5.7,5.81,37.49,37.49,0,0,0-4.63,6.72A28.74,28.74,0,0,0,99.3,330Zm-.6,0a36.7,36.7,0,0,1,2.76-16.58,55.14,55.14,0,0,1,9-14.6,66.75,66.75,0,0,1,12.82-11.55,70.38,70.38,0,0,1,7.41-4.47,75.22,75.22,0,0,1,7.9-3.63,64.37,64.37,0,0,1,8.36-2.62c.72-.17,1.44-.34,2.17-.46a21.54,21.54,0,0,1,2.29-.37,13.08,13.08,0,0,1,2.51-.12l1.28.05a11,11,0,0,1,1.28.2,16.88,16.88,0,0,1,8.87,4.7,28.07,28.07,0,0,1,5.28,7.67,60.57,60.57,0,0,1,4.92,16.7,104.35,104.35,0,0,1,1.17,17v-.15a95.66,95.66,0,0,1-.89,17.21,65.69,65.69,0,0,1-4.43,16.58,37.56,37.56,0,0,1-4.36,7.56c-.46.57-.86,1.2-1.38,1.73l-1.51,1.63L162.42,368c-.55.51-1.19.9-1.79,1.36a26.74,26.74,0,0,1-8.15,3.89c-.36.11-.72.24-1.09.33l-1.11.22c-.74.14-1.48.31-2.23.43l-2.24.22-1.13.11h-1.12a43.81,43.81,0,0,1-4.45-.15l-2.2-.19-2.2-.34c-1.47-.19-2.9-.61-4.35-.93-.73-.18-1.43-.43-2.14-.65s-1.43-.45-2.12-.74a39.51,39.51,0,0,1-7.95-4.14,37.7,37.7,0,0,1-6.72-5.87,41.6,41.6,0,0,1-5.19-7.11,54.77,54.77,0,0,1-3.7-7.83,66.34,66.34,0,0,1-2.46-8.19c-.33-1.39-.62-2.78-.84-4.18A39.75,39.75,0,0,1,98.7,330Z" transform="translate(-1.14 -0.99)"/><path class="cls-3" d="M227.6,102.5s-23,13-27,52.89C195,210,252,191,252,191s63-12,40.13-54.74C281.12,115.68,250.77,92.89,227.6,102.5Z" transform="translate(-1.14 -0.99)"/><path d="M227.73,102.77a33.53,33.53,0,0,0-6.61,5.55,44.93,44.93,0,0,0-5.3,6.85,69.56,69.56,0,0,0-7.19,15.58,132.5,132.5,0,0,0-4.16,16.51c-.53,2.79-.95,5.61-1.36,8.44a82.44,82.44,0,0,0-.63,8.42c-.09,5.59.58,11.27,3.08,16.23a21.83,21.83,0,0,0,12.27,10.78,32.61,32.61,0,0,0,8.31,1.85,46.5,46.5,0,0,0,8.59.06,66.08,66.08,0,0,0,16.74-3.64h0l.19,0a97.73,97.73,0,0,0,18.36-6.63,59.25,59.25,0,0,0,15.84-10.59c4.46-4.32,7.58-9.78,8.09-15.66s-1.17-12-4.06-17.51a70.18,70.18,0,0,0-11.09-15.41,99,99,0,0,0-14.5-12.71A57,57,0,0,0,247,102.07a33.37,33.37,0,0,0-9.7-1.28A27,27,0,0,0,227.73,102.77Zm-.26-.54a37.57,37.57,0,0,1,20-2.13,58.92,58.92,0,0,1,19.43,6.63,69.59,69.59,0,0,1,8.67,5.64,78.91,78.91,0,0,1,7.77,6.86,65.28,65.28,0,0,1,12.3,16.86,45,45,0,0,1,3.66,10.07,31.8,31.8,0,0,1,.64,11,28.06,28.06,0,0,1-3.51,10.5,35.09,35.09,0,0,1-6.78,8.43,59.65,59.65,0,0,1-17.7,10.87,89.14,89.14,0,0,1-9.66,3.37,91.85,91.85,0,0,1-10,2.34l.21-.05a74.62,74.62,0,0,1-8.81,1.76,82.34,82.34,0,0,1-8.87.81,48.39,48.39,0,0,1-17.65-2.31,28.92,28.92,0,0,1-8-4.27,26.13,26.13,0,0,1-6.12-6.84,38,38,0,0,1-5.13-17.5,62.38,62.38,0,0,1,.06-9.07,76.72,76.72,0,0,1,1.15-8.91,67.52,67.52,0,0,1,5.5-17.12,71.71,71.71,0,0,1,9.74-15,72.81,72.81,0,0,1,6.1-6.43A45.41,45.41,0,0,1,227.47,102.23Z" transform="translate(-1.14 -0.99)"/><path class="cls-3" d="M309.6,271.91s1.85,18.3,24.81,51.19c31.42,45,51.44-.05,51.44-.05s17.43-24-27.79-41.44C336.28,273.21,318.19,255.24,309.6,271.91Z" transform="translate(-1.14 -0.99)"/><path d="M309.89,272a.46.46,0,0,1,.07.14l.06.24.14.46.28.93c.22.61.41,1.23.63,1.84.42,1.22.93,2.42,1.39,3.62s1,2.39,1.54,3.56,1,2.36,1.62,3.52l.84,1.74.88,1.72c.57,1.16,1.15,2.31,1.78,3.43,1.2,2.28,2.5,4.52,3.76,6.76,2.62,4.44,5.26,8.87,8.12,13.18,1.37,2.18,2.82,4.32,4.22,6.5s2.8,4.29,4.26,6.38a55.52,55.52,0,0,0,10.11,11.22A24.71,24.71,0,0,0,356,341a16.56,16.56,0,0,0,7.27,1.09,17,17,0,0,0,7-2.26,25.18,25.18,0,0,0,5.9-4.7,42.58,42.58,0,0,0,8.1-12.76v0l.17-.27a17.2,17.2,0,0,0,1.31-2.83,18.87,18.87,0,0,0,.92-9.36,21.52,21.52,0,0,0-5.75-11,43.73,43.73,0,0,0-10.45-8,86.89,86.89,0,0,0-12.31-5.75l-3.32-1.3c-1.13-.46-2.24-1-3.34-1.46-2.19-1-4.32-2.11-6.42-3.24-4.19-2.27-8.2-4.75-12.22-7-2-1.15-4-2.23-6.05-3.16a25.58,25.58,0,0,0-6.15-2.1,9.4,9.4,0,0,0-6,.68,10.47,10.47,0,0,0-2.63,1.89c-.4.39-.77.81-1.15,1.25l-.54.67Zm-.59-.11q.17-.45.36-.93l.37-.83a13.52,13.52,0,0,1,.91-1.61,11,11,0,0,1,2.56-2.82,10.21,10.21,0,0,1,3.56-1.79,14,14,0,0,1,3.95-.48c5.26.19,9.86,2.16,14.25,4s8.56,4.1,12.73,6.12c2.08,1,4.16,2,6.24,2.95,1,.47,2.08.91,3.12,1.36s2.08.85,3.23,1.32a88.58,88.58,0,0,1,13,6.56,48.8,48.8,0,0,1,11.46,9.55,29,29,0,0,1,4.2,6.47,22.48,22.48,0,0,1,2.06,7.56,21.87,21.87,0,0,1-.76,7.74,22.92,22.92,0,0,1-1.35,3.6,20.15,20.15,0,0,1-2,3.38l.17-.31a51.37,51.37,0,0,1-4.37,6.84,49.9,49.9,0,0,1-5.31,6,33.56,33.56,0,0,1-3.09,2.61,25.79,25.79,0,0,1-3.4,2.22,21.24,21.24,0,0,1-7.76,2.5,20.71,20.71,0,0,1-8.17-.8,30.75,30.75,0,0,1-3.84-1.48,32.09,32.09,0,0,1-3.58-2,45.24,45.24,0,0,1-6.46-4.94,60.48,60.48,0,0,1-5.63-5.81,78.82,78.82,0,0,1-4.9-6.33l-2.27-3.24c-.75-1.08-1.44-2.22-2.15-3.33l-2.09-3.37-2-3.44c-1.35-2.27-2.5-4.67-3.73-7s-2.3-4.78-3.29-7.25c-.53-1.21-1-2.45-1.48-3.69s-.92-2.49-1.33-3.75a77.69,77.69,0,0,1-2.16-7.66c-.29-1.3-.53-2.61-.73-3.92-.12-.65-.17-1.32-.25-2l-.08-1c0-.16,0-.33,0-.5v-.59Z" transform="translate(-1.14 -0.99)"/><path class="cls-2" d="M213.6,434.3s-26.1-87.8,13.9-94.8,105.66,70.21,105.66,70.21S256.7,387.09,213.6,434.3Z" transform="translate(-1.14 -0.99)"/><path d="M435.18,356.09c-1.67,3.6-3.57,7.09-5.57,10.52s-4.13,6.8-6.44,10.05a115.21,115.21,0,0,1-7.38,9.44c-.65.77-1.31,1.52-2,2.25s-1.33,1.46-2.11,2.21a24.52,24.52,0,0,1-5.11,3.75,39.69,39.69,0,0,1-11.67,4.17,59.14,59.14,0,0,1-12.13,1q-3,0-6-.28c-2-.15-4-.39-6-.68a78,78,0,0,1-11.69-2.62l.08-.39a222.7,222.7,0,0,0,23.52.19,108,108,0,0,0,11.46-1.29,40.48,40.48,0,0,0,10.78-3.21,21.15,21.15,0,0,0,4.59-3c.68-.59,1.39-1.32,2.09-2s1.4-1.36,2.07-2.06a112.35,112.35,0,0,0,7.75-8.82,161.82,161.82,0,0,0,13.4-19.43Z" transform="translate(-1.14 -0.99)"/></svg>