<svg width="82" height="63" viewBox="0 0 82 63" fill="none" xmlns="http://www.w3.org/2000/svg">
<path d="M37.7026 5.6697C38.0857 8.96119 35.728 11.94 32.4365 12.3231C29.145 12.7062 26.1661 10.3485 25.783 7.05702C25.3999 3.76553 27.7577 0.786689 31.0492 0.403593C34.3406 0.0204958 37.3195 2.37821 37.7026 5.6697Z" fill="#C4C4C4"/>
<path d="M48.4449 11.4666C48.8279 14.7581 44.2467 17.9957 38.2123 18.6981C32.1779 19.4004 26.9755 17.3015 26.5924 14.01C26.2093 10.7185 30.7906 7.48089 36.825 6.77855C42.8593 6.0762 48.0618 8.17512 48.4449 11.4666Z" fill="#C4C4C4"/>
<path d="M41.5391 21.3311C41.9222 24.6226 37.3409 27.8602 31.3065 28.5626C25.2721 29.2649 20.0697 27.166 19.6866 23.8745C19.3035 20.583 23.8848 17.3454 29.9192 16.643C35.9536 15.9407 41.156 18.0396 41.5391 21.3311Z" fill="#C4C4C4"/>
<path d="M40.614 13.3848C40.9971 16.6763 36.4159 19.914 30.3815 20.6163C24.3471 21.3186 19.1447 19.2197 18.7616 15.9282C18.3785 12.6367 22.9597 9.3991 28.9941 8.69676C35.0285 7.99442 40.2309 10.0933 40.614 13.3848Z" fill="#C4C4C4"/>
<path d="M53.5742 20.9372C53.9573 24.2287 49.3761 27.4663 43.3417 28.1687C37.3073 28.871 32.1049 26.7721 31.7218 23.4806C31.3387 20.1891 35.9199 16.9515 41.9543 16.2491C47.9887 15.5468 53.1911 17.6457 53.5742 20.9372Z" fill="#C4C4C4"/>
<path d="M62.4927 37.014C62.8758 40.3055 58.2945 43.5431 52.2601 44.2454C46.2257 44.9478 41.0233 42.8489 40.6402 39.5574C40.2571 36.2659 44.8384 33.0283 50.8728 32.3259C56.9072 31.6236 62.1096 33.7225 62.4927 37.014Z" fill="#C4C4C4"/>
<path d="M48.4236 28.5838C48.8067 31.8753 44.2254 35.1129 38.191 35.8153C32.1566 36.5176 26.9542 34.4187 26.5711 31.1272C26.188 27.8357 30.7693 24.5981 36.8037 23.8957C42.8381 23.1934 48.0405 25.2923 48.4236 28.5838Z" fill="#C4C4C4"/>
<path d="M43.5462 41.4173C43.9293 44.7088 39.348 47.9464 33.3136 48.6488C27.2792 49.3511 22.0768 47.2522 21.6937 43.9607C21.3106 40.6692 25.8919 37.4316 31.9263 36.7292C37.9607 36.0269 43.1631 38.1258 43.5462 41.4173Z" fill="#C4C4C4"/>
<path d="M46.5462 36.4173C46.9293 39.7088 42.348 42.9464 36.3136 43.6488C30.2792 44.3511 25.0768 42.2522 24.6937 38.9607C24.3106 35.6692 28.8919 32.4316 34.9263 31.7292C40.9607 31.0269 46.1631 33.1258 46.5462 36.4173Z" fill="#C4C4C4"/>
<path d="M26.9961 50.9469C27.3792 54.2384 24.8351 57.239 21.3137 57.6488C17.7923 58.0587 14.6271 55.7227 14.244 52.4312C13.8609 49.1397 16.405 46.1391 19.9264 45.7293C23.4478 45.3194 26.613 47.6555 26.9961 50.9469Z" fill="#C4C4C4"/>
<path d="M33.4458 34.4172C33.8289 37.7087 31.2848 40.7092 27.7634 41.119C24.242 41.5289 21.0768 39.1929 20.6937 35.9014C20.3106 32.6099 22.8547 29.6094 26.3761 29.1995C29.8975 28.7896 33.0627 31.1257 33.4458 34.4172Z" fill="#C4C4C4"/>
<path d="M38.5462 40.4173C38.9293 43.7088 34.348 46.9464 28.3136 47.6488C22.2792 48.3511 17.0768 46.2522 16.6937 42.9607C16.3106 39.6692 20.8919 36.4316 26.9263 35.7292C32.9607 35.0269 38.1631 37.1258 38.5462 40.4173Z" fill="#C4C4C4"/>
<path d="M33.1775 27.3382C33.5606 30.6297 28.9793 33.8673 22.9449 34.5697C16.9105 35.272 11.7081 33.1731 11.325 29.8816C10.9419 26.5901 15.5232 23.3525 21.5576 22.6501C27.592 21.9478 32.7944 24.0467 33.1775 27.3382Z" fill="#C4C4C4"/>
<path d="M62.5462 31.4172C62.9293 34.7087 58.348 37.9463 52.3136 38.6486C46.2792 39.351 41.0768 37.2521 40.6937 33.9606C40.3106 30.6691 44.8919 27.4315 50.9263 26.7291C56.9607 26.0268 62.1631 28.1257 62.5462 31.4172Z" fill="#C4C4C4"/>
<path d="M31.4458 48.4172C31.8289 51.7087 29.2848 54.7092 25.7634 55.119C22.242 55.5289 19.0768 53.1929 18.6937 49.9014C18.3106 46.6099 20.8547 43.6094 24.3761 43.1995C27.8975 42.7896 31.0627 45.1257 31.4458 48.4172Z" fill="#C4C4C4"/>
<path d="M50.4458 46.4172C50.8289 49.7087 48.2848 52.7092 44.7634 53.119C41.242 53.5289 38.0768 51.1929 37.6937 47.9014C37.3106 44.6099 39.8547 41.6094 43.3761 41.1995C46.8975 40.7896 50.0627 43.1257 50.4458 46.4172Z" fill="#C4C4C4"/>
<path d="M53.7814 50.865C54.1645 54.1565 45.6498 57.8519 34.7632 59.119C23.8767 60.3861 14.7408 58.745 14.3577 55.4535C13.9747 52.162 22.4894 48.4666 33.3759 47.1995C44.2625 45.9324 53.3983 47.5735 53.7814 50.865Z" fill="#C4C4C4"/>
<path d="M81.0273 41.2348C81.9129 48.8439 73.8055 56.0394 62.919 57.3065C52.0324 58.5736 42.4892 53.4324 41.6036 45.8234C40.718 38.2143 48.8253 31.0188 59.7119 29.7517C70.5984 28.4846 80.1416 33.6258 81.0273 41.2348Z" fill="#C4C4C4"/>
<path d="M66.0273 27.2348C66.9129 34.8439 58.8055 42.0394 47.919 43.3065C37.0324 44.5736 27.4892 39.4324 26.6036 31.8234C25.718 24.2143 33.8253 17.0188 44.7119 15.7517C55.5984 14.4846 65.1416 19.6258 66.0273 27.2348Z" fill="#C4C4C4"/>
<path d="M54.4458 26.4172C54.8289 29.7087 52.2848 32.7092 48.7634 33.119C45.242 33.5289 42.0768 31.1929 41.6937 27.9014C41.3106 24.6099 43.8547 21.6094 47.3761 21.1995C50.8975 20.7896 54.0627 23.1257 54.4458 26.4172Z" fill="#C4C4C4"/>
<path d="M64.4458 31.4172C64.8289 34.7087 62.2848 37.7092 58.7634 38.119C55.242 38.5289 52.0768 36.1929 51.6937 32.9014C51.3106 29.6099 53.8547 26.6094 57.3761 26.1995C60.8975 25.7896 64.0627 28.1257 64.4458 31.4172Z" fill="#C4C4C4"/>
<path d="M67.4458 46.4173C67.8289 49.7088 65.2848 52.7093 61.7634 53.1192C58.242 53.529 55.0768 51.193 54.6937 47.9015C54.3106 44.61 56.8547 41.6095 60.3761 41.1996C63.8975 40.7898 67.0627 43.1258 67.4458 46.4173Z" fill="#C4C4C4"/>
<path d="M66.4458 37.4172C66.8289 40.7087 64.2848 43.7092 60.7634 44.119C57.242 44.5289 54.0768 42.1929 53.6937 38.9014C53.3106 35.6099 55.8547 32.6094 59.3761 32.1995C62.8975 31.7896 66.0627 34.1257 66.4458 37.4172Z" fill="#C4C4C4"/>
<path d="M76.4458 46.4172C76.8289 49.7087 74.2848 52.7092 70.7634 53.119C67.242 53.5289 64.0768 51.1929 63.6937 47.9014C63.3106 44.6099 65.8547 41.6094 69.3761 41.1995C72.8975 40.7896 76.0627 43.1257 76.4458 46.4172Z" fill="#C4C4C4"/>
<path d="M23.4458 45.4172C23.8289 48.7087 21.2848 51.7092 17.7634 52.119C14.242 52.5289 11.0768 50.1929 10.6937 46.9014C10.3106 43.6099 12.8547 40.6094 16.3761 40.1995C19.8975 39.7896 23.0627 42.1257 23.4458 45.4172Z" fill="#C4C4C4"/>
<path d="M27.4458 36.4172C27.8289 39.7087 25.2848 42.7092 21.7634 43.119C18.242 43.5289 15.0768 41.1929 14.6937 37.9014C14.3106 34.6099 16.8547 31.6094 20.3761 31.1995C23.8975 30.7896 27.0627 33.1257 27.4458 36.4172Z" fill="#C4C4C4"/>
<path d="M13.4458 55.4172C13.8289 58.7087 11.2848 61.7092 7.76339 62.119C4.242 62.5289 1.07678 60.1929 0.693686 56.9014C0.310589 53.6099 2.85468 50.6094 6.37607 50.1995C9.89746 49.7896 13.0627 52.1257 13.4458 55.4172Z" fill="#C4C4C4"/>
<path d="M65.5462 41.4173C65.9293 44.7088 61.348 47.9464 55.3136 48.6488C49.2792 49.3511 44.0768 47.2522 43.6937 43.9607C43.3106 40.6692 47.8919 37.4316 53.9263 36.7292C59.9607 36.0269 65.1631 38.1258 65.5462 41.4173Z" fill="#C4C4C4"/>
</svg>
