<svg width="118" height="120" viewBox="0 0 118 120" fill="none" xmlns="http://www.w3.org/2000/svg">
<path d="M47.05 60.5975C43.9245 60.121 40.6623 64.7412 38.8906 72.1483C37.7686 77.4139 41.2981 92.0274 42.7928 94.8144C44.2875 97.6014 47.958 93.1797 48.3662 91.8257C49.0131 89.6841 47.3167 79.829 47.1478 78.8452C46.9789 77.8599 49.5942 75.3798 51.2271 73.0687C49.731 70.283 47.3899 62.5675 47.05 60.5975Z" fill="#CC584C"/>
<path d="M72.6739 56.1895C75.461 54.6934 80.0805 57.9577 84.224 64.3481C87.041 68.9375 88.5999 83.8901 88.1248 87.0142C87.6488 90.1432 82.7111 87.2005 81.8745 86.0632C80.548 84.2593 78.8537 74.4064 78.6841 73.4204C78.5153 72.4351 75.2195 70.9732 72.9076 69.3424C73.383 66.2127 73.0124 58.1593 72.6739 56.1895Z" fill="#CC584C"/>
<path d="M50.3657 3.20322C47.4077 3.71327 36.2945 15.7728 40.1923 38.4416C43.4155 57.1672 50.2401 73.2404 51.5645 75.0421C54.5232 74.5342 62.4056 73.1762 62.4056 73.1762C62.4056 73.1762 70.2895 71.8182 73.2461 71.3095C73.8944 69.168 74.7819 50.7515 71.7312 33.0106C67.8276 10.3444 53.3208 2.69729 50.3657 3.20322Z" fill="#E6E6E6"/>
<path d="M62.242 40.1114C66.2966 36.3615 66.5436 30.0346 62.7937 25.98C59.0438 21.9254 52.717 21.6783 48.6624 25.4282C44.6077 29.1781 44.3607 35.505 48.1106 39.5596C51.8605 43.6142 58.1873 43.8613 62.242 40.1114Z" fill="#263740"/>
<path d="M56.4688 38.6836C53.2081 39.242 50.1001 37.048 49.5375 33.7885C48.9777 30.5263 51.1717 27.4198 54.4333 26.8551C57.6926 26.2967 60.7998 28.4914 61.3646 31.7516C61.9258 35.0138 59.7318 38.1204 56.4688 38.6836Z" fill="#C2E2F2"/>
<path d="M52.4 15.0302C56.0191 14.4073 59.3066 13 62.1247 11.019C57.1699 5.14313 52.0002 2.92307 50.3639 3.20097C48.7273 3.48593 44.5983 7.30734 41.8909 14.4996C45.2097 15.4253 48.7801 15.6524 52.4 15.0302Z" fill="#CC584C"/>
<path d="M76.2348 76.8829C76.421 77.9679 75.6869 79.0077 74.6025 79.1947L52.9232 82.9267C51.8375 83.1121 50.7976 82.378 50.6107 81.2937L49.9338 77.3512C49.7483 76.2669 50.481 75.2269 51.5667 75.0401L73.2467 71.3102C74.3325 71.1233 75.371 71.8574 75.56 72.9425L76.2348 76.8829Z" fill="#CC584C"/>
<path d="M58.1568 77.9666C58.3443 79.0531 58.5997 80.4132 58.922 81.8927L69.5907 80.0569C69.4003 78.5535 69.1834 77.1849 68.9972 76.0985C68.8111 75.0121 68.5549 73.6526 68.2334 72.1738L57.5662 74.0083C57.7544 75.5123 57.9685 76.8808 58.1568 77.9666Z" fill="#BF5347"/>
<path d="M54.8926 82.5859C56.9521 94.5583 64.8513 115.371 70.0214 114.481C75.1901 113.592 75.6789 91.3395 73.6168 79.3627L54.8926 82.5859Z" fill="#FFD464"/>
<path d="M60.703 60.2747C58.7981 60.6026 58.5448 68.3688 60.1374 77.6211C61.73 86.8733 64.5654 94.1079 66.4704 93.78C68.3754 93.4521 68.6286 85.6858 67.036 76.4336C65.4434 67.1813 62.608 59.9467 60.703 60.2747Z" fill="#CC584C"/>
</svg>
