<svg width="274" height="466" viewBox="0 0 274 466" fill="none" xmlns="http://www.w3.org/2000/svg">
<path d="M55.0498 402.055C51.9243 401.578 48.6621 406.199 46.8904 413.606C45.7684 418.871 49.2979 433.485 50.7926 436.272C52.2873 439.059 55.9578 434.637 56.3659 433.283C57.0129 431.142 55.3165 421.287 55.1475 420.303C54.9787 419.317 57.594 416.837 59.2269 414.526C57.7308 411.741 55.3897 404.025 55.0498 402.055Z" fill="#CC584C"/>
<path d="M80.674 397.647C83.461 396.151 88.0805 399.415 92.224 405.806C95.041 410.395 96.5999 425.348 96.1248 428.472C95.6488 431.601 90.7111 428.658 89.8745 427.521C88.548 425.717 86.8537 415.864 86.6842 414.878C86.5153 413.893 83.2195 412.431 80.9077 410.8C81.383 407.67 81.0124 399.617 80.674 397.647Z" fill="#CC584C"/>
<path d="M58.3659 344.661C55.4078 345.171 44.2946 357.23 48.1925 379.899C51.4156 398.625 58.2403 414.698 59.5647 416.5C62.5234 415.992 70.4058 414.634 70.4058 414.634C70.4058 414.634 78.2896 413.276 81.2462 412.767C81.8945 410.625 82.782 392.209 79.7313 374.468C75.8277 351.802 61.3209 344.155 58.3659 344.661Z" fill="#E6E6E6"/>
<path d="M70.242 381.569C74.2966 377.819 74.5437 371.492 70.7938 367.437C67.0439 363.383 60.717 363.136 56.6624 366.886C52.6078 370.636 52.3607 376.962 56.1106 381.017C59.8605 385.072 66.1874 385.319 70.242 381.569Z" fill="#263740"/>
<path d="M64.4687 380.141C61.208 380.7 58.1001 378.505 57.5374 375.246C56.9776 371.984 59.1716 368.877 62.4333 368.313C65.6926 367.754 68.7998 369.949 69.3645 373.209C69.9257 376.471 67.7317 379.578 64.4687 380.141Z" fill="#C2E2F2"/>
<path d="M60.4002 356.488C64.0193 355.865 67.3068 354.457 70.1249 352.476C65.1701 346.601 60.0004 344.38 58.3641 344.658C56.7275 344.943 52.5985 348.765 49.8911 355.957C53.2099 356.883 56.7803 357.11 60.4002 356.488Z" fill="#CC584C"/>
<path d="M84.2352 418.34C84.4214 419.425 83.6873 420.465 82.603 420.652L60.9236 424.384C59.8379 424.57 58.798 423.836 58.6111 422.751L57.9342 418.809C57.7487 417.724 58.4814 416.684 59.5671 416.498L81.2472 412.768C82.3329 412.581 83.3714 413.315 83.5604 414.4L84.2352 418.34Z" fill="#CC584C"/>
<path d="M66.157 419.424C66.3446 420.51 66.6 421.871 66.9222 423.35L77.5909 421.514C77.4005 420.011 77.1836 418.642 76.9975 417.556C76.8113 416.47 76.5552 415.11 76.2336 413.631L65.5664 415.466C65.7546 416.97 65.9687 418.338 66.157 419.424Z" fill="#BF5347"/>
<path d="M62.8928 424.043C64.9523 436.016 72.8515 456.828 78.0217 455.938C83.1903 455.05 83.6792 432.797 81.617 420.82L62.8928 424.043Z" fill="#FFD464"/>
<path d="M68.7033 401.732C66.7983 402.06 66.5451 409.826 68.1377 419.078C69.7303 428.331 72.5656 435.565 74.4706 435.237C76.3756 434.909 76.6288 427.143 75.0362 417.891C73.4436 408.639 70.6083 401.404 68.7033 401.732Z" fill="#CC584C"/>
<path d="M58.8771 328.228C34.1354 165.825 248.649 95.9089 266.826 50.0236C297.308 -26.9269 146.418 5.49179 42.8599 46.8591" stroke="white" stroke-width="6" stroke-dasharray="30 12"/>
</svg>
