<svg width="377" height="247" viewBox="0 0 377 247" fill="none" xmlns="http://www.w3.org/2000/svg">
<path d="M188.601 0.600098C120.701 0.600098 65.6006 55.7001 65.6006 123.6C65.6006 191.5 120.701 246.6 188.601 246.6C256.501 246.6 311.601 191.5 311.601 123.6C311.601 55.7001 256.601 0.600098 188.601 0.600098Z" fill="url(#paint0_linear)"/>
<path d="M279.201 224.3C244.101 224.3 203.601 217.4 162.901 204.5C114.201 189 70.8008 166.5 40.7008 141.2C8.90078 114.4 -4.69922 87.1 2.60078 64.3C9.90078 41.5 36.7008 27.1 78.1008 23.6C117.301 20.4 165.701 27.1 214.401 42.6C263.101 58.1 306.501 80.6 336.601 105.9C368.401 132.7 382.001 160 374.701 182.8C367.401 205.6 340.601 220 299.101 223.5C292.701 224.1 286.001 224.3 279.201 224.3ZM16.9008 68.9C11.7008 85.3 23.9008 107.5 50.4008 129.7C79.0008 153.8 120.601 175.3 167.501 190.2C214.401 205.1 260.701 211.7 298.001 208.6C332.501 205.7 355.301 194.7 360.501 178.3C365.701 161.9 353.501 139.7 327.001 117.5C298.401 93.4 256.801 71.9 209.901 57C163.001 42.1 116.701 35.5 79.4008 38.6C44.9008 41.4 22.1008 52.5 16.9008 68.9Z" fill="#BCBCBB"/>
<path d="M98.1001 224.3C91.2001 224.3 84.6001 224 78.1001 223.5C36.6001 220.1 9.80006 205.6 2.60006 182.8C-4.59994 160 8.90006 132.7 40.7001 105.9C70.8001 80.6 114.2 58.1 162.9 42.6C211.6 27.1 260 20.3 299.2 23.6C340.7 27 367.5 41.5 374.8 64.3C382.1 87.1 368.5 114.4 336.7 141.2C306.6 166.5 263.2 189 214.5 204.5C173.7 217.5 133.2 224.3 98.1001 224.3ZM167.4 57C120.5 71.9 78.9001 93.4 50.3001 117.5C23.8001 139.8 11.6001 162 16.8001 178.3C22.0001 194.7 44.8001 205.7 79.3001 208.6C116.6 211.7 162.9 205.2 209.8 190.2C256.7 175.3 298.3 153.8 326.9 129.7C353.4 107.4 365.6 85.2 360.4 68.9C355.2 52.5 332.4 41.5 297.9 38.6C260.6 35.5 214.3 42 167.4 57Z" fill="#BCBCBB"/>
<path d="M188.601 246.6C256.501 246.6 311.601 191.5 311.601 123.6H65.6006C65.6006 191.5 120.701 246.6 188.601 246.6Z" fill="url(#paint1_linear)"/>
<path d="M254.101 144.7L201.701 28.4001C200.401 25.1001 196.101 19.8 188.601 19.8C181.101 19.8 176.901 25.2001 175.501 28.4001L123.101 144.7C122.701 145.7 122.501 146.6 122.701 147.8L137.901 219.6C138.101 220.9 139.101 222.1 140.201 222.9L146.701 226.5C148.201 227.3 150.201 227.3 151.701 226.5L157.801 222.9C158.601 222.5 159.101 221.7 159.501 221.2L166.801 208.1L167.801 208.7V218.9C167.801 221.6 169.901 223.7 172.601 223.7H204.501C207.201 223.7 209.301 221.6 209.301 218.9V208.7L210.301 208.1L217.601 221.2C218.001 222 218.601 222.5 219.301 222.9L225.601 226.7C226.401 227.1 227.101 227.5 228.101 227.5C229.101 227.5 229.801 227.3 230.601 226.7L236.901 222.9C238.101 222.1 238.801 221 239.201 219.8L254.401 148C254.701 146.8 254.501 145.7 254.101 144.7Z" fill="white"/>
<defs>
<linearGradient id="paint0_linear" x1="188.638" y1="246.59" x2="188.638" y2="0.590391" gradientUnits="userSpaceOnUse">
<stop stop-color="#1B9DD9"/>
<stop offset="0.0281291" stop-color="#2098D5"/>
<stop offset="0.1838" stop-color="#1382C5"/>
<stop offset="0.3383" stop-color="#0A6BB4"/>
<stop offset="0.488" stop-color="#0855A3"/>
<stop offset="0.6318" stop-color="#114492"/>
<stop offset="0.7682" stop-color="#243988"/>
<stop offset="0.8943" stop-color="#2A3283"/>
<stop offset="1" stop-color="#302D7E"/>
</linearGradient>
<linearGradient id="paint1_linear" x1="188.638" y1="246.59" x2="188.638" y2="0.590398" gradientUnits="userSpaceOnUse">
<stop stop-color="#1B9DD9"/>
<stop offset="0.0281291" stop-color="#2098D5"/>
<stop offset="0.1838" stop-color="#1382C5"/>
<stop offset="0.3383" stop-color="#0A6BB4"/>
<stop offset="0.488" stop-color="#0855A3"/>
<stop offset="0.6318" stop-color="#114492"/>
<stop offset="0.7682" stop-color="#243988"/>
<stop offset="0.8943" stop-color="#2A3283"/>
<stop offset="1" stop-color="#302D7E"/>
</linearGradient>
</defs>
</svg>
