<svg xmlns="http://www.w3.org/2000/svg" viewBox="0 0 32.57 35.7"><defs><style>.cls-1{fill:#fefefe;}</style></defs><g id="Layer_2" data-name="Layer 2"><g id="Layer_1-2" data-name="Layer 1"><path class="cls-1" d="M29.48,9.91l.2-.24a.4.4,0,0,0-.07-.55L29,8.6l0-.08,1.19.2a.41.41,0,0,0,.19,0l.56-.21a.35.35,0,0,0,.17-.12.44.44,0,0,0,.08-.2l.08-.59a.38.38,0,0,0-.09-.29L27.38,2.71a.37.37,0,0,0-.2-.14L17.19,0A1.15,1.15,0,0,0,16,.43a1.17,1.17,0,0,0-.12,1.26l4.73,9.17a.46.46,0,0,0,.17.17l5.31,2.64a.36.36,0,0,0,.32,0l.56-.23a.37.37,0,0,0,.24-.31l.08-.57a.46.46,0,0,0,0-.2l-.46-1.11.08,0,.65.51a.39.39,0,0,0,.55-.06l.18-.22a14.23,14.23,0,0,1,2.43,8.42A14.41,14.41,0,1,1,7.56,8,9.25,9.25,0,0,1,9.5,4.63a16.3,16.3,0,1,0,20,5.28Z"/></g></g></svg>