<svg width="239" height="338" viewBox="0 0 239 338" fill="none" xmlns="http://www.w3.org/2000/svg">
<path d="M102.537 262.483C102.497 284.122 109.965 323.025 119.319 323.065C128.673 323.105 136.302 284.203 136.342 262.563L102.537 262.483Z" fill="#FFD467"/>
<path d="M197.728 168.418L135.137 29.3476C133.531 25.5336 128.433 19.0298 119.439 19.0298C110.446 19.0298 105.348 25.5336 103.782 29.2673L41.1914 168.418C40.6695 169.542 40.549 170.786 40.7899 171.991L59.0572 257.866C59.3783 259.472 60.4222 260.877 61.8274 261.68L69.5759 266.096C71.3825 267.1 73.671 267.1 75.4375 266.016L82.7042 261.6C83.5473 261.078 84.27 260.355 84.7518 259.472L93.3835 243.855L94.5077 244.497V256.782C94.5077 259.954 97.1173 262.563 100.289 262.563H138.51C141.681 262.563 144.291 259.954 144.291 256.782V244.497L145.415 243.855L154.047 259.472C154.529 260.355 155.251 261.078 156.094 261.6L163.562 266.136C164.485 266.698 165.529 266.979 166.573 266.979C167.617 266.979 168.661 266.698 169.584 266.136L177.132 261.559C178.497 260.716 179.46 259.351 179.782 257.826L198.049 171.951C198.37 170.786 198.21 169.542 197.728 168.418Z" fill="#AD2448"/>
<path d="M147.182 108.438L124.819 85.7947H114.14L91.6973 108.438L104.103 217.036L105.789 242.088C105.95 244.256 107.716 245.942 109.924 245.942H129.035C131.203 245.942 133.009 244.256 133.17 242.088L134.816 217.036L147.182 108.438Z" fill="#305B6C"/>
<path d="M105.428 69.816C106.833 66.4437 111.41 60.6223 119.48 60.6223C127.549 60.6223 132.126 66.4437 133.531 69.8562L147.222 108.398L124.819 85.7947H119.48H114.14L91.6973 108.438L105.428 69.816Z" fill="#3F9ABF"/>
<path d="M124.819 85.7947L133.531 69.8562L134.816 73.4695L124.819 85.7947Z" fill="#9CC4D1"/>
<path d="M114.1 85.7947L105.388 69.8562L104.104 73.4695L114.1 85.7947Z" fill="#9CC4D1"/>
</svg>
