<svg width="52" height="106" viewBox="0 0 52 106" fill="none" xmlns="http://www.w3.org/2000/svg">
<path d="M31.7406 78.6739C31.7562 85.7055 28.8512 104.676 25.2115 104.689C21.5719 104.702 18.5912 85.5429 18.5756 78.5113L31.7406 78.6739Z" fill="#FFD465"/>
<path d="M24.792 85.6203C23.239 83.3369 23.8312 80.2269 26.1145 78.674C28.3979 77.121 31.5079 77.7131 33.0608 79.9965C34.6138 82.2799 34.0217 85.3898 31.7383 86.9428C29.4549 88.4958 26.345 87.9036 24.792 85.6203Z" fill="#FFD465"/>
<path d="M18.2103 93.7247C16.6574 91.4413 17.2495 88.3313 19.5328 86.7784C21.8162 85.2254 24.9262 85.8175 26.4791 88.1009C28.0321 90.3843 27.44 93.4942 25.1566 95.0472C22.8732 96.6002 19.7633 96.008 18.2103 93.7247Z" fill="#FFD465"/>
<path d="M27.6379 95.6096C27.0167 94.6962 27.2536 93.4522 28.1669 92.8311C29.0803 92.2099 30.3242 92.4467 30.9454 93.3601C31.5666 94.2734 31.3298 95.5174 30.4164 96.1386C29.5031 96.7598 28.2591 96.5229 27.6379 95.6096Z" fill="#FFD465"/>
<path d="M17.8791 87.9031C17.2579 86.9898 17.4947 85.7458 18.4081 85.1246C19.3214 84.5034 20.5654 84.7403 21.1866 85.6536C21.8078 86.567 21.5709 87.811 20.6576 88.4321C19.7442 89.0533 18.5003 88.8165 17.8791 87.9031Z" fill="#FFD465"/>
<path d="M20.7529 95.6528C19.2 93.3694 19.7921 90.2595 22.0755 88.7065C24.3588 87.1536 27.4688 87.7457 29.0217 90.029C30.5747 92.3124 29.9826 95.4224 27.6992 96.9753C25.4158 98.5283 22.3059 97.9362 20.7529 95.6528Z" fill="#FFD465"/>
<path d="M19.4995 83.173C17.3253 79.9763 18.1543 75.6223 21.351 73.4482C24.5477 71.274 28.9017 72.103 31.0758 75.2997C33.25 78.4964 32.421 82.8504 29.2243 85.0245C26.0276 87.1987 21.6736 86.3697 19.4995 83.173Z" fill="#FFD465"/>
<path d="M0.161166 48.802L20.82 3.37063C21.3501 2.12467 23.033 -2.53237e-06 26.0013 -2.27288e-06C28.9696 -2.01338e-06 30.6525 2.12467 31.1693 3.3444L51.8282 48.802C52.0005 49.1692 52.0402 49.5758 51.9607 49.9692L45.9313 78.0228C45.8253 78.5474 45.4808 79.0065 45.017 79.2688L42.4595 80.7115C41.8632 81.0393 41.1079 81.0393 40.5248 80.6852L38.1263 79.2425C37.848 79.0721 37.6095 78.836 37.4505 78.5474L34.6014 73.4456L34.2304 73.6554L34.2304 77.6687C34.2304 78.7048 33.3691 79.5573 32.3222 79.5573L19.7069 79.5573C18.6601 79.5573 17.7987 78.7048 17.7987 77.6687L17.7987 73.6554L17.4277 73.4456L14.5786 78.5474C14.4196 78.836 14.1811 79.072 13.9028 79.2425L11.4381 80.7246C11.1333 80.9082 10.7888 81 10.4442 81C10.0997 81 9.75515 80.9082 9.45037 80.7246L6.95911 79.2294C6.50856 78.954 6.19053 78.5081 6.08452 78.0097L0.0551573 49.9561C-0.0508535 49.5758 0.00214985 49.1692 0.161166 48.802Z" fill="#AB2346"/>
<path d="M16.9394 28.4297L24.2185 21.072L27.6947 21.072L35 28.4297L30.9618 63.7179L30.413 71.8584C30.3607 72.5628 29.7857 73.1107 29.0669 73.1107L22.8463 73.1107C22.1406 73.1107 21.5525 72.5628 21.5003 71.8584L20.9645 63.7179L16.9394 28.4297Z" fill="#E0859E"/>
<path d="M30.5306 15.8793C30.0732 14.7835 28.5834 12.8918 25.9566 12.8918C23.3299 12.8918 21.8401 14.7834 21.3827 15.8923L16.9263 28.416L24.2185 21.0714L25.9566 21.0714L27.6947 21.0714L35 28.4291L30.5306 15.8793Z" fill="#4099BF"/>
<path d="M24.2183 21.0719L21.3824 15.8928L20.9643 17.0669L24.2183 21.0719Z" fill="#9BC4D1"/>
<path d="M27.7074 21.0714L30.5432 15.8923L30.9614 17.0664L27.7074 21.0714Z" fill="#9BC4D1"/>
</svg>
