<svg width="56" height="116" viewBox="0 0 56 116" fill="none" xmlns="http://www.w3.org/2000/svg">
<path d="M14.1667 58.3661C11.1551 57.404 7.20691 61.4537 4.29238 68.49C2.35625 73.5137 3.54372 88.5003 4.58153 91.4877C5.61934 94.4751 9.93957 90.6857 10.5555 89.4126C11.5312 87.3995 11.4057 77.4002 11.3936 76.4021C11.3818 75.4025 14.3546 73.3646 16.3307 71.339C15.2912 68.3527 14.1926 60.365 14.1667 58.3661Z" fill="#BF5347"/>
<path d="M40.1652 58.0426C43.1529 57.0034 47.2015 60.9535 50.2885 67.9161C52.3487 72.8914 51.5368 87.903 50.5763 90.9135C49.6141 93.9288 45.2006 90.2462 44.5533 88.9915C43.527 87.0014 43.4032 77.0046 43.3909 76.0042C43.379 75.0047 40.3542 73.0427 38.3275 71.0686C39.2891 68.0525 40.1897 60.0411 40.1652 58.0426Z" fill="#BF5347"/>
<path d="M26.4672 2.20733C23.4658 2.24586 10.5944 12.4077 10.8788 35.4074C11.1171 54.4069 15.3291 71.3533 16.3537 73.3409C19.3555 73.3045 27.3534 73.203 27.3534 73.203C27.3534 73.203 35.3526 73.1018 38.3524 73.0643C39.3295 71.0514 43.1021 53.0037 42.8793 35.0038C42.5888 12.0057 29.4651 2.17242 26.4672 2.20733Z" fill="#FAFAFA"/>
<path d="M32.3914 40.5239C36.9853 37.4583 38.2242 31.249 35.1586 26.6551C32.093 22.0612 25.8837 20.8223 21.2898 23.8879C16.6959 26.9535 15.457 33.1628 18.5226 37.7567C21.5882 42.3506 27.7975 43.5895 32.3914 40.5239Z" fill="#263740"/>
<path d="M26.9147 38.2061C23.6067 38.2447 20.8825 35.5892 20.8394 32.2818C20.7996 28.9722 23.4549 26.2494 26.7647 26.2046C30.0713 26.1657 32.7947 28.8217 32.8397 32.1302C32.8809 35.4401 30.2257 38.163 26.9147 38.2061Z" fill="#C2E2F2"/>
<path d="M26.6164 14.2071C30.2885 14.161 33.7564 13.2883 36.851 11.7751C32.8819 5.19312 28.1256 2.18769 26.466 2.20481C24.8049 2.22886 20.1263 5.35339 16.3216 12.0304C19.4535 13.4665 22.9438 14.2523 26.6164 14.2071Z" fill="#BF5347"/>
<path d="M40.4278 79.0384C40.441 80.1392 39.5525 81.0507 38.4523 81.0648L16.4558 81.341C15.3544 81.3534 14.4429 80.4649 14.4288 79.3647L14.3804 75.3648C14.3677 74.2648 15.2548 73.353 16.3565 73.3392L38.3533 73.0652C39.4549 73.0514 40.365 73.9396 40.381 75.041L40.4278 79.0384Z" fill="#BF5347"/>
<path d="M22.4042 77.2656C22.4186 78.3681 22.4569 79.7515 22.5425 81.2633L33.3671 81.128C33.4155 79.6134 33.4165 78.2278 33.4036 77.1256C33.3906 76.0234 33.3514 74.6405 33.2664 73.1296L22.4434 73.2637C22.3928 74.7786 22.389 76.1637 22.4042 77.2656Z" fill="#BF5347"/>
<path d="M18.4542 81.3142C18.6053 93.4615 23.1332 115.257 28.379 115.191C33.6231 115.127 37.6053 93.2277 37.4523 81.0757L18.4542 81.3142Z" fill="#FFD464"/>
<path d="M27.7009 60.1943C25.7681 60.2185 24.2967 67.8483 24.4145 77.2359C24.5322 86.6235 26.1946 94.2139 28.1275 94.1897C30.0603 94.1654 31.5317 86.5356 31.4139 77.1481C31.2962 67.7605 29.6338 60.17 27.7009 60.1943Z" fill="#BF5347"/>
</svg>
