<svg width="320" height="86" viewBox="0 0 320 86" fill="none" xmlns="http://www.w3.org/2000/svg">
<path d="M0 31C0 21.0589 8.05888 13 18 13H302C311.941 13 320 21.0589 320 31V68C320 77.9411 311.941 86 302 86H18C8.05887 86 0 77.9411 0 68V31Z" fill="#CECCCC"/>
<path d="M0 18C0 8.05888 8.05888 0 18 0H302C311.941 0 320 8.05888 320 18V55C320 64.9411 311.941 73 302 73H18C8.05887 73 0 64.9411 0 55V18Z" fill="#F8F8F8"/>
<path d="M102.844 26.4921H117.388V30.6321H107.776V35.7801H115.948V39.9201H107.776V45.8601H117.748V50.0001H102.844V26.4921Z" fill="black"/>
<path d="M129.553 50.4321C127.969 50.4321 126.421 50.1441 124.909 49.5681C123.397 48.9681 122.065 48.1161 120.913 47.0121L123.757 43.6281C124.621 44.3961 125.569 45.0081 126.601 45.4641C127.657 45.9201 128.677 46.1481 129.661 46.1481C130.813 46.1481 131.689 45.9321 132.289 45.5001C132.913 45.0441 133.225 44.4201 133.225 43.6281C133.225 43.1241 133.081 42.7041 132.793 42.3681C132.529 42.0321 132.181 41.7561 131.749 41.5401C131.341 41.3241 130.669 41.0241 129.733 40.6401L126.637 39.3081C125.245 38.7321 124.105 37.9281 123.217 36.8961C122.329 35.8401 121.885 34.5201 121.885 32.9361C121.885 31.6641 122.233 30.5121 122.929 29.4801C123.649 28.4241 124.633 27.5961 125.881 26.9961C127.129 26.3721 128.533 26.0601 130.093 26.0601C131.461 26.0601 132.805 26.3361 134.125 26.8881C135.445 27.4161 136.585 28.1601 137.545 29.1201L135.061 32.2521C134.245 31.6041 133.441 31.1241 132.649 30.8121C131.857 30.5001 131.005 30.3441 130.093 30.3441C129.109 30.3441 128.329 30.5481 127.753 30.9561C127.177 31.3641 126.889 31.9281 126.889 32.6481C126.889 33.1521 127.033 33.5721 127.321 33.9081C127.633 34.2441 128.005 34.5201 128.437 34.7361C128.893 34.9521 129.589 35.2521 130.525 35.6361L133.549 36.8601C135.061 37.4841 136.225 38.3121 137.041 39.3441C137.857 40.3521 138.265 41.6481 138.265 43.2321C138.265 44.5521 137.917 45.7641 137.221 46.8681C136.525 47.9481 135.517 48.8121 134.197 49.4601C132.877 50.1081 131.329 50.4321 129.553 50.4321Z" fill="black"/>
<path d="M142.324 26.4921H150.172C153.004 26.4921 155.248 27.0801 156.904 28.2561C158.584 29.4081 159.424 31.3041 159.424 33.9441C159.424 36.5361 158.572 38.4921 156.868 39.8121C155.164 41.1321 152.98 41.7921 150.316 41.7921H147.256V50.0001H142.324V26.4921ZM149.992 37.8681C153.064 37.8681 154.6 36.5601 154.6 33.9441C154.6 32.6961 154.204 31.7961 153.412 31.2441C152.644 30.6921 151.456 30.4161 149.848 30.4161H147.256V37.8681H149.992Z" fill="black"/>
<path d="M172.781 44.1321H165.401L163.817 50.0001H158.777L166.265 26.4921H172.133L179.585 50.0001H174.365L172.781 44.1321ZM171.773 40.3161L171.125 37.9041C170.837 36.8481 170.405 35.1921 169.829 32.9361L169.145 30.2721H169.001C168.281 33.3681 167.645 35.9121 167.093 37.9041L166.445 40.3161H171.773Z" fill="black"/>
<path d="M191.559 50.4321C189.543 50.4321 187.707 49.9641 186.051 49.0281C184.419 48.0921 183.123 46.7241 182.163 44.9241C181.203 43.1001 180.723 40.9161 180.723 38.3721C180.723 35.8521 181.215 33.6681 182.199 31.8201C183.183 29.9481 184.515 28.5201 186.195 27.5361C187.875 26.5521 189.711 26.0601 191.703 26.0601C193.119 26.0601 194.415 26.3481 195.591 26.9241C196.791 27.4761 197.823 28.1961 198.687 29.0841L196.059 32.2521C195.411 31.6281 194.739 31.1601 194.043 30.8481C193.371 30.5121 192.627 30.3441 191.811 30.3441C190.659 30.3441 189.627 30.6681 188.715 31.3161C187.803 31.9401 187.083 32.8521 186.555 34.0521C186.051 35.2281 185.799 36.6081 185.799 38.1921C185.799 40.6641 186.327 42.6081 187.383 44.0241C188.463 45.4401 189.915 46.1481 191.739 46.1481C193.539 46.1481 195.111 45.3921 196.455 43.8801L199.083 46.9761C197.115 49.2801 194.607 50.4321 191.559 50.4321Z" fill="black"/>
<path d="M202.758 26.4921H217.302V30.6321H207.69V35.7801H215.862V39.9201H207.69V45.8601H217.662V50.0001H202.758V26.4921Z" fill="black"/>
</svg>
